;Layer: Drill PTH
;EasyEDA v6.3.53, 2020-06-25T17:48:37+01:00
;4783db3a652f4b8084220859a28b68e3,923baca5ebdd4fbabfdc1fadd1ffc098,10
;Gerber Generator version 0.2
M48
INCH,LZ,00.0000
;Holesize 1 = 0.012 INCH
T01C0.012
;Holesize 2 = 0.032 INCH
T02C0.032
;Holesize 3 = 0.035 INCH
T03C0.035
;Holesize 4 = 0.035 INCH
T04C0.035
;Holesize 5 = 0.035 INCH
T05C0.035
;Holesize 6 = 0.036 INCH
T06C0.036
;Holesize 7 = 0.040 INCH
T07C0.040
;Holesize 8 = 0.043 INCH
T08C0.043
;Holesize 9 = 0.047 INCH
T09C0.047
%
G05
G90
T01
X+005986Y+016051
X+010165Y+016221
T02
X+019400Y+015906
X+019400Y+016693
T03
X+016550Y+003700
X+015450Y+003700
X+014350Y+003700
X+013250Y+003700
X+012150Y+003700
X+011850Y+001750
X+012750Y+001750
X+013600Y+001750
X+014500Y+001750
X+015450Y+001750
X+010900Y+001750
X+010000Y+001750
X+018350Y+001750
X+017411Y+001750
X+016400Y+001750
T04
X+010200Y+017626
X+003500Y+015373
X+007650Y+015373
X+029676Y+014450
X+026723Y+013450
T05
X+010200Y+014673
X+003500Y+018326
X+007650Y+018326
X+026723Y+014450
X+029676Y+013450
T06
X+021550Y+001700
X+025000Y+018900
X+026000Y+018900
X+027000Y+018900
X+028050Y+018900
X+029000Y+018900
X+030000Y+018900
X+007450Y+003700
X+007450Y+004700
X+007450Y+002700
X+007450Y+001700
T07
X+006300Y+022700
X+005300Y+022700
X+004300Y+022700
X+003300Y+022700
X+002300Y+022700
X+016300Y+006000
X+015300Y+006000
X+014300Y+006000
X+013300Y+006000
X+012300Y+006000
X+019350Y+022700
X+020350Y+022700
X+021350Y+022700
X+022350Y+022700
X+023350Y+022700
T08
X+018650Y+018550
X+027050Y+022550
X+027050Y+021550
X+026050Y+022550
X+026050Y+021550
X+025050Y+022550
X+025050Y+021550
X+010200Y+013600
X+010200Y+011600
X+019100Y+014250
X+019100Y+013250
X+019100Y+012250
X+019100Y+011250
X+011300Y+018600
X+017300Y+018600
X+011300Y+017600
X+011300Y+016600
X+011300Y+015600
X+011300Y+014600
X+011300Y+013600
X+011300Y+012600
X+011300Y+011600
X+011300Y+010600
X+011300Y+009600
X+011300Y+008600
X+011300Y+007600
X+017300Y+017600
X+017300Y+016600
X+017300Y+015600
X+017300Y+014600
X+017300Y+013600
X+017300Y+012600
X+017300Y+011600
X+017300Y+010600
X+017300Y+009600
X+017300Y+008600
X+017300Y+007600
X+016800Y+019750
X+015800Y+019750
X+014800Y+019750
X+013800Y+019750
X+012800Y+019750
X+011800Y+019750
X+013800Y+007600
X+014800Y+007600
X+015800Y+007600
X+012800Y+007600
T09
X+002900Y+013850
X+003900Y+013850
X+004900Y+013850
X+005900Y+013850
X+006900Y+013850
X+007900Y+013850
X+005250Y+021100
X+004250Y+021100
X+003250Y+021100
X+022350Y+021000
X+021350Y+021000
X+020350Y+021000
X+009550Y+022800
X+008550Y+022800
M30
