G04 Layer: TopLayer*
G04 EasyEDA v6.3.53, 2020-06-25T17:48:37+01:00*
G04 4783db3a652f4b8084220859a28b68e3,923baca5ebdd4fbabfdc1fadd1ffc098,10*
G04 Gerber Generator version 0.2*
G04 Scale: 100 percent, Rotated: No, Reflected: No *
G04 Dimensions in inches *
G04 leading zeros omitted , absolute positions ,2 integer and 4 decimal *
%FSLAX24Y24*%
%MOIN*%
G90*
G70D02*

%ADD10C,0.030000*%
%ADD11C,0.010000*%
%ADD12C,0.015000*%
%ADD13C,0.023622*%
%ADD14C,0.024000*%
%ADD15C,0.060000*%
%ADD16C,0.062000*%
%ADD17R,0.062000X0.062000*%
%ADD18R,0.066929X0.066929*%
%ADD19C,0.070866*%
%ADD20R,0.070866X0.070866*%
%ADD21C,0.066929*%
%ADD22C,0.051181*%
%ADD23C,0.074000*%
%ADD24R,0.062000X0.070866*%

%LPD*%
G54D10*
G01X2300Y22700D02*
G01X2910Y23311D01*
G01X7435Y23311D01*
G01X7946Y22800D01*
G01X8550Y22800D02*
G01X7946Y22800D01*
G54D11*
G01X10000Y1750D02*
G01X11950Y3700D01*
G01X12150Y3700D01*
G01X11850Y1750D02*
G01X11850Y2300D01*
G01X13250Y3700D01*
G01X17300Y14600D02*
G01X17650Y14250D01*
G01X19100Y14250D01*
G01X11300Y10600D02*
G01X12800Y12100D01*
G01X18477Y12100D01*
G01X18827Y11750D01*
G01X25023Y11750D01*
G01X26723Y13450D01*
G01X18650Y18550D02*
G01X17350Y18550D01*
G01X17300Y18600D01*
G01X17300Y11600D02*
G01X18750Y11600D01*
G01X19100Y11250D01*
G01X17300Y12600D02*
G01X18750Y12600D01*
G01X19100Y12250D01*
G01X17300Y13600D02*
G01X18750Y13600D01*
G01X19100Y13250D01*
G01X11300Y12600D02*
G01X13807Y15107D01*
G01X24257Y15107D01*
G01X28050Y18900D01*
G54D10*
G01X4643Y16030D02*
G01X5252Y16030D01*
G01X6252Y17030D01*
G01X6800Y17030D01*
G01X7650Y15373D02*
G01X7650Y16430D01*
G01X6925Y17155D01*
G01X6800Y17530D02*
G01X6925Y17405D01*
G01X6925Y17155D01*
G01X6925Y17155D02*
G01X6800Y17030D01*
G01X6800Y16530D02*
G01X6777Y16507D01*
G01X6777Y16051D01*
G01X6800Y16030D02*
G01X6777Y16051D01*
G01X6777Y16051D02*
G01X5986Y16051D01*
G54D11*
G01X7450Y4700D02*
G01X9900Y4700D01*
G01X12800Y7600D01*
G01X13800Y7600D02*
G01X13035Y6834D01*
G01X12339Y6834D01*
G01X9205Y3700D01*
G01X7450Y3700D01*
G01X17300Y16600D02*
G01X11300Y16600D01*
G01X16800Y19750D02*
G01X25250Y19750D01*
G01X27050Y21550D01*
G01X3500Y15373D02*
G01X3500Y15976D01*
G01X4552Y17030D01*
G01X4643Y17030D01*
G01X11300Y7600D02*
G01X10452Y7600D01*
G01X4427Y13625D01*
G01X4427Y14446D01*
G01X3500Y15373D01*
G54D10*
G01X7650Y18326D02*
G01X9500Y18326D01*
G01X10200Y17626D01*
G01X4643Y16530D02*
G01X4889Y16530D01*
G01X9550Y21190D01*
G01X9550Y22800D01*
G01X23889Y22700D02*
G01X24313Y23123D01*
G01X26477Y23123D01*
G01X27050Y22550D01*
G01X23350Y22700D02*
G01X23889Y22700D01*
G01X6900Y13850D02*
G01X6900Y13780D01*
G01X9081Y11600D01*
G01X10200Y11600D01*
G01X3500Y18326D02*
G01X3846Y18326D01*
G01X4643Y17530D01*
G01X11800Y19750D02*
G01X12800Y19750D01*
G01X12800Y19750D02*
G01X14950Y17600D01*
G01X17300Y17600D01*
G01X19400Y16880D02*
G01X19400Y16694D01*
G01X17300Y17600D02*
G01X18681Y17600D01*
G01X19400Y16880D01*
G01X19400Y16880D02*
G01X24981Y16880D01*
G01X27000Y18900D01*
G01X11300Y15600D02*
G01X9721Y15600D01*
G01X8589Y14469D01*
G01X7427Y14469D01*
G01X6900Y13942D01*
G01X6900Y13850D01*
G01X21550Y1700D02*
G01X18400Y1700D01*
G01X18350Y1750D01*
G01X16400Y1750D02*
G01X15869Y1219D01*
G01X15030Y1219D01*
G01X14500Y1750D01*
G01X7450Y1700D02*
G01X7964Y1186D01*
G01X10336Y1186D01*
G01X10900Y1750D01*
G54D12*
G01X7900Y13850D02*
G01X9950Y13850D01*
G01X10200Y13600D01*
G01X17300Y15600D02*
G01X19093Y15600D01*
G01X19400Y15905D01*
G01X25627Y19355D02*
G01X25627Y19273D01*
G01X26000Y18900D01*
G01X25050Y22550D02*
G01X25550Y22050D01*
G01X27277Y22050D01*
G01X27598Y21728D01*
G01X27598Y21328D01*
G01X25627Y19355D01*
G01X25627Y19355D02*
G01X17310Y19355D01*
G01X17186Y19232D01*
G01X14318Y19232D01*
G01X13800Y19750D01*
G01X10165Y16221D02*
G01X10773Y16830D01*
G01X10773Y19473D01*
G01X11576Y20275D01*
G01X13275Y20275D01*
G01X13800Y19750D01*
G54D13*
G01X6618Y16029D02*
G01X6981Y16029D01*
G01X6618Y16529D02*
G01X6981Y16529D01*
G01X6618Y17029D02*
G01X6981Y17029D01*
G01X6618Y17529D02*
G01X6981Y17529D01*
G01X4461Y16029D02*
G01X4823Y16029D01*
G01X4461Y16529D02*
G01X4823Y16529D01*
G01X4461Y17029D02*
G01X4823Y17029D01*
G01X4461Y17529D02*
G01X4823Y17529D01*
G54D12*
G01X6894Y25061D02*
G01X6831Y25125D01*
G01X6735Y25155D01*
G01X6609Y25155D01*
G01X6514Y25125D01*
G01X6450Y25061D01*
G01X6450Y24996D01*
G01X6481Y24934D01*
G01X6514Y24902D01*
G01X6577Y24869D01*
G01X6768Y24805D01*
G01X6831Y24775D01*
G01X6864Y24742D01*
G01X6894Y24678D01*
G01X6894Y24584D01*
G01X6831Y24519D01*
G01X6735Y24488D01*
G01X6609Y24488D01*
G01X6514Y24519D01*
G01X6450Y24584D01*
G01X7105Y25155D02*
G01X7105Y24488D01*
G01X7105Y25155D02*
G01X7360Y24488D01*
G01X7614Y25155D02*
G01X7360Y24488D01*
G01X7614Y25155D02*
G01X7614Y24488D01*
G01X8078Y25155D02*
G01X7825Y24488D01*
G01X8078Y25155D02*
G01X8334Y24488D01*
G01X7919Y24711D02*
G01X8238Y24711D01*
G01X8543Y25155D02*
G01X8543Y24488D01*
G01X8543Y25155D02*
G01X8830Y25155D01*
G01X8925Y25125D01*
G01X8956Y25092D01*
G01X8989Y25028D01*
G01X8989Y24965D01*
G01X8956Y24902D01*
G01X8925Y24869D01*
G01X8830Y24838D01*
G01X8543Y24838D01*
G01X8765Y24838D02*
G01X8989Y24488D01*
G01X9422Y25155D02*
G01X9422Y24488D01*
G01X9198Y25155D02*
G01X9644Y25155D01*
G01X10344Y25155D02*
G01X10344Y24488D01*
G01X10344Y25155D02*
G01X10631Y25155D01*
G01X10726Y25125D01*
G01X10757Y25092D01*
G01X10789Y25028D01*
G01X10789Y24934D01*
G01X10757Y24869D01*
G01X10726Y24838D01*
G01X10631Y24805D01*
G01X10344Y24805D01*
G01X11000Y25155D02*
G01X11000Y24488D01*
G01X11444Y25155D02*
G01X11444Y24488D01*
G01X11000Y24838D02*
G01X11444Y24838D01*
G01X11846Y25155D02*
G01X11782Y25125D01*
G01X11718Y25061D01*
G01X11686Y24996D01*
G01X11655Y24902D01*
G01X11655Y24742D01*
G01X11686Y24646D01*
G01X11718Y24584D01*
G01X11782Y24519D01*
G01X11846Y24488D01*
G01X11973Y24488D01*
G01X12036Y24519D01*
G01X12101Y24584D01*
G01X12132Y24646D01*
G01X12164Y24742D01*
G01X12164Y24902D01*
G01X12132Y24996D01*
G01X12101Y25061D01*
G01X12036Y25125D01*
G01X11973Y25155D01*
G01X11846Y25155D01*
G01X12375Y25155D02*
G01X12375Y24488D01*
G01X12375Y25155D02*
G01X12819Y24488D01*
G01X12819Y25155D02*
G01X12819Y24488D01*
G01X13030Y25155D02*
G01X13030Y24488D01*
G01X13030Y25155D02*
G01X13443Y25155D01*
G01X13030Y24838D02*
G01X13285Y24838D01*
G01X13030Y24488D02*
G01X13443Y24488D01*
G01X14621Y24996D02*
G01X14589Y25061D01*
G01X14525Y25125D01*
G01X14461Y25155D01*
G01X14335Y25155D01*
G01X14271Y25125D01*
G01X14206Y25061D01*
G01X14175Y24996D01*
G01X14143Y24902D01*
G01X14143Y24742D01*
G01X14175Y24646D01*
G01X14206Y24584D01*
G01X14271Y24519D01*
G01X14335Y24488D01*
G01X14461Y24488D01*
G01X14525Y24519D01*
G01X14589Y24584D01*
G01X14621Y24646D01*
G01X14831Y25155D02*
G01X14831Y24488D01*
G01X15276Y25155D02*
G01X15276Y24488D01*
G01X14831Y24838D02*
G01X15276Y24838D01*
G01X15740Y25155D02*
G01X15485Y24488D01*
G01X15740Y25155D02*
G01X15994Y24488D01*
G01X15581Y24711D02*
G01X15900Y24711D01*
G01X16205Y25155D02*
G01X16205Y24488D01*
G01X16205Y25155D02*
G01X16492Y25155D01*
G01X16586Y25125D01*
G01X16618Y25092D01*
G01X16651Y25028D01*
G01X16651Y24965D01*
G01X16618Y24902D01*
G01X16586Y24869D01*
G01X16492Y24838D01*
G01X16205Y24838D01*
G01X16427Y24838D02*
G01X16651Y24488D01*
G01X17338Y24996D02*
G01X17306Y25061D01*
G01X17243Y25125D01*
G01X17178Y25155D01*
G01X17052Y25155D01*
G01X16988Y25125D01*
G01X16925Y25061D01*
G01X16893Y24996D01*
G01X16860Y24902D01*
G01X16860Y24742D01*
G01X16893Y24646D01*
G01X16925Y24584D01*
G01X16988Y24519D01*
G01X17052Y24488D01*
G01X17178Y24488D01*
G01X17243Y24519D01*
G01X17306Y24584D01*
G01X17338Y24646D01*
G01X17338Y24742D01*
G01X17178Y24742D02*
G01X17338Y24742D01*
G01X17547Y25155D02*
G01X17547Y24488D01*
G01X17547Y25155D02*
G01X17961Y25155D01*
G01X17547Y24838D02*
G01X17802Y24838D01*
G01X17547Y24488D02*
G01X17961Y24488D01*
G01X18172Y25155D02*
G01X18172Y24488D01*
G01X18172Y25155D02*
G01X18457Y25155D01*
G01X18553Y25125D01*
G01X18585Y25092D01*
G01X18617Y25028D01*
G01X18617Y24965D01*
G01X18585Y24902D01*
G01X18553Y24869D01*
G01X18457Y24838D01*
G01X18172Y24838D01*
G01X18394Y24838D02*
G01X18617Y24488D01*
G54D15*
G01X16550Y3700D03*
G01X15450Y3700D03*
G01X14350Y3700D03*
G01X13250Y3700D03*
G01X12150Y3700D03*
G01X11850Y1750D03*
G01X12750Y1750D03*
G01X13600Y1750D03*
G01X14500Y1750D03*
G01X15450Y1750D03*
G01X10900Y1750D03*
G01X10000Y1750D03*
G01X18350Y1750D03*
G01X17411Y1750D03*
G01X16400Y1750D03*
G01X21550Y1700D03*
G01X25000Y18900D03*
G01X26000Y18900D03*
G01X27000Y18900D03*
G01X28050Y18900D03*
G01X29000Y18900D03*
G01X30000Y18900D03*
G54D16*
G01X6300Y22700D03*
G01X5300Y22700D03*
G01X4300Y22700D03*
G01X3300Y22700D03*
G54D17*
G01X2300Y22700D03*
G54D16*
G01X16300Y6000D03*
G01X15300Y6000D03*
G01X14300Y6000D03*
G01X13300Y6000D03*
G54D17*
G01X12300Y6000D03*
G54D16*
G01X19350Y22700D03*
G01X20350Y22700D03*
G01X21350Y22700D03*
G01X22350Y22700D03*
G54D17*
G01X23350Y22700D03*
G54D18*
G01X18650Y18550D03*
G54D19*
G01X2900Y13850D03*
G01X3900Y13850D03*
G01X4900Y13850D03*
G01X5900Y13850D03*
G01X6900Y13850D03*
G54D20*
G01X7900Y13850D03*
G54D15*
G01X7450Y3700D03*
G01X7450Y4700D03*
G01X7450Y2700D03*
G01X7450Y1700D03*
G54D21*
G01X27050Y22550D03*
G01X27050Y21550D03*
G01X26050Y22550D03*
G01X26050Y21550D03*
G01X25050Y22550D03*
G54D18*
G01X25050Y21550D03*
G54D22*
G01X19400Y15906D03*
G01X19400Y16693D03*
G54D19*
G01X10200Y13600D03*
G01X10200Y11600D03*
G54D23*
G01X10200Y14673D03*
G01X10200Y17626D03*
G01X3500Y18326D03*
G01X3500Y15373D03*
G01X7650Y18326D03*
G01X7650Y15373D03*
G54D19*
G01X5250Y21100D03*
G01X4250Y21100D03*
G54D24*
G01X3250Y21100D03*
G54D19*
G01X22350Y21000D03*
G01X21350Y21000D03*
G54D24*
G01X20350Y21000D03*
G54D18*
G01X19100Y14250D03*
G54D21*
G01X19100Y13250D03*
G01X19100Y12250D03*
G01X19100Y11250D03*
G54D23*
G01X26723Y14450D03*
G01X29676Y14450D03*
G54D19*
G01X11300Y18600D03*
G01X17300Y18600D03*
G01X11300Y17600D03*
G01X11300Y16600D03*
G01X11300Y15600D03*
G01X11300Y14600D03*
G01X11300Y13600D03*
G01X11300Y12600D03*
G01X11300Y11600D03*
G01X11300Y10600D03*
G01X11300Y9600D03*
G01X11300Y8600D03*
G01X11300Y7600D03*
G01X17300Y17600D03*
G01X17300Y16600D03*
G01X17300Y15600D03*
G01X17300Y14600D03*
G01X17300Y13600D03*
G01X17300Y12600D03*
G01X17300Y11600D03*
G01X17300Y10600D03*
G01X17300Y9600D03*
G01X17300Y8600D03*
G01X17300Y7600D03*
G01X16800Y19750D03*
G01X15800Y19750D03*
G01X14800Y19750D03*
G01X13800Y19750D03*
G01X12800Y19750D03*
G01X11800Y19750D03*
G01X13800Y7600D03*
G01X14800Y7600D03*
G01X15800Y7600D03*
G01X12800Y7600D03*
G54D23*
G01X29676Y13450D03*
G01X26723Y13450D03*
G54D19*
G01X9550Y22800D03*
G54D20*
G01X8550Y22800D03*
G54D14*
G01X5986Y16051D03*
G01X10165Y16221D03*
M00*
M02*
