G04 Layer: BottomSolderMaskLayer*
G04 EasyEDA v6.3.53, 2020-06-25T17:48:37+01:00*
G04 4783db3a652f4b8084220859a28b68e3,923baca5ebdd4fbabfdc1fadd1ffc098,10*
G04 Gerber Generator version 0.2*
G04 Scale: 100 percent, Rotated: No, Reflected: No *
G04 Dimensions in inches *
G04 leading zeros omitted , absolute positions ,2 integer and 4 decimal *
%FSLAX24Y24*%
%MOIN*%
G90*
G70D02*

%ADD33C,0.068000*%
%ADD34C,0.070000*%
%ADD37C,0.078866*%
%ADD39C,0.074929*%
%ADD40C,0.059181*%
%ADD41C,0.082000*%

%LPD*%
G54D33*
G01X16550Y3700D03*
G01X15450Y3700D03*
G01X14350Y3700D03*
G01X13250Y3700D03*
G01X12150Y3700D03*
G01X11850Y1750D03*
G01X12750Y1750D03*
G01X13600Y1750D03*
G01X14500Y1750D03*
G01X15450Y1750D03*
G01X10900Y1750D03*
G01X10000Y1750D03*
G01X18350Y1750D03*
G01X17411Y1750D03*
G01X16400Y1750D03*
G01X21550Y1700D03*
G01X25000Y18900D03*
G01X26000Y18900D03*
G01X27000Y18900D03*
G01X28050Y18900D03*
G01X29000Y18900D03*
G01X30000Y18900D03*
G54D34*
G01X6300Y22700D03*
G01X5300Y22700D03*
G01X4300Y22700D03*
G01X3300Y22700D03*
G36*
G01X1950Y22350D02*
G01X1950Y23050D01*
G01X2650Y23050D01*
G01X2650Y22350D01*
G01X1950Y22350D01*
G37*
G01X16300Y6000D03*
G01X15300Y6000D03*
G01X14300Y6000D03*
G01X13300Y6000D03*
G36*
G01X11950Y5650D02*
G01X11950Y6350D01*
G01X12650Y6350D01*
G01X12650Y5650D01*
G01X11950Y5650D01*
G37*
G01X19350Y22700D03*
G01X20350Y22700D03*
G01X21350Y22700D03*
G01X22350Y22700D03*
G36*
G01X23000Y22350D02*
G01X23000Y23050D01*
G01X23700Y23050D01*
G01X23700Y22350D01*
G01X23000Y22350D01*
G37*
G36*
G01X18275Y18175D02*
G01X18275Y18925D01*
G01X19025Y18925D01*
G01X19025Y18175D01*
G01X18275Y18175D01*
G37*
G54D37*
G01X2900Y13850D03*
G01X3900Y13850D03*
G01X4900Y13850D03*
G01X5900Y13850D03*
G01X6900Y13850D03*
G36*
G01X7506Y13455D02*
G01X7506Y14244D01*
G01X8293Y14244D01*
G01X8293Y13455D01*
G01X7506Y13455D01*
G37*
G54D33*
G01X7450Y3700D03*
G01X7450Y4700D03*
G01X7450Y2700D03*
G01X7450Y1700D03*
G54D39*
G01X27050Y22550D03*
G01X27050Y21550D03*
G01X26050Y22550D03*
G01X26050Y21550D03*
G01X25050Y22550D03*
G36*
G01X24675Y21175D02*
G01X24675Y21925D01*
G01X25425Y21925D01*
G01X25425Y21175D01*
G01X24675Y21175D01*
G37*
G54D40*
G01X19400Y15906D03*
G01X19400Y16693D03*
G54D37*
G01X10200Y13600D03*
G01X10200Y11600D03*
G54D41*
G01X10200Y14673D03*
G01X10200Y17626D03*
G01X3500Y18326D03*
G01X3500Y15373D03*
G01X7650Y18326D03*
G01X7650Y15373D03*
G54D37*
G01X5250Y21100D03*
G01X4250Y21100D03*
G36*
G01X2900Y20705D02*
G01X2900Y21494D01*
G01X3600Y21494D01*
G01X3600Y20705D01*
G01X2900Y20705D01*
G37*
G01X22350Y21000D03*
G01X21350Y21000D03*
G36*
G01X20000Y20605D02*
G01X20000Y21394D01*
G01X20700Y21394D01*
G01X20700Y20605D01*
G01X20000Y20605D01*
G37*
G36*
G01X18725Y13875D02*
G01X18725Y14625D01*
G01X19475Y14625D01*
G01X19475Y13875D01*
G01X18725Y13875D01*
G37*
G54D39*
G01X19100Y13250D03*
G01X19100Y12250D03*
G01X19100Y11250D03*
G54D41*
G01X26723Y14450D03*
G01X29676Y14450D03*
G54D37*
G01X11300Y18600D03*
G01X17300Y18600D03*
G01X11300Y17600D03*
G01X11300Y16600D03*
G01X11300Y15600D03*
G01X11300Y14600D03*
G01X11300Y13600D03*
G01X11300Y12600D03*
G01X11300Y11600D03*
G01X11300Y10600D03*
G01X11300Y9600D03*
G01X11300Y8600D03*
G01X11300Y7600D03*
G01X17300Y17600D03*
G01X17300Y16600D03*
G01X17300Y15600D03*
G01X17300Y14600D03*
G01X17300Y13600D03*
G01X17300Y12600D03*
G01X17300Y11600D03*
G01X17300Y10600D03*
G01X17300Y9600D03*
G01X17300Y8600D03*
G01X17300Y7600D03*
G01X16800Y19750D03*
G01X15800Y19750D03*
G01X14800Y19750D03*
G01X13800Y19750D03*
G01X12800Y19750D03*
G01X11800Y19750D03*
G01X13800Y7600D03*
G01X14800Y7600D03*
G01X15800Y7600D03*
G01X12800Y7600D03*
G54D41*
G01X29676Y13450D03*
G01X26723Y13450D03*
G54D37*
G01X9550Y22800D03*
G36*
G01X8156Y22405D02*
G01X8156Y23194D01*
G01X8943Y23194D01*
G01X8943Y22405D01*
G01X8156Y22405D01*
G37*
M00*
M02*
