G04 Layer: TopSilkLayer*
G04 EasyEDA v6.3.53, 2020-06-25T17:48:37+01:00*
G04 4783db3a652f4b8084220859a28b68e3,923baca5ebdd4fbabfdc1fadd1ffc098,10*
G04 Gerber Generator version 0.2*
G04 Scale: 100 percent, Rotated: No, Reflected: No *
G04 Dimensions in inches *
G04 leading zeros omitted , absolute positions ,2 integer and 4 decimal *
%FSLAX24Y24*%
%MOIN*%
G90*
G70D02*

%ADD10C,0.030000*%
%ADD11C,0.010000*%
%ADD25C,0.005000*%
%ADD26C,0.008000*%
%ADD27C,0.007992*%
%ADD28C,0.011811*%
%ADD29C,0.006000*%
%ADD30C,0.007000*%
%ADD31C,0.005906*%

%LPD*%

%LPD*%
G36*
G01X23250Y12300D02*
G01X21250Y12300D01*
G01X21250Y6300D01*
G01X23250Y6300D01*
G01X23250Y12300D01*
G37*

%LPC*%
G36*
G01X22222Y12034D02*
G01X22198Y12075D01*
G01X22158Y12043D01*
G01X22139Y12026D01*
G01X22125Y12008D01*
G01X22117Y11987D01*
G01X22112Y11961D01*
G01X22111Y11938D01*
G01X22114Y11913D01*
G01X22120Y11890D01*
G01X22130Y11867D01*
G01X22142Y11845D01*
G01X22157Y11826D01*
G01X22175Y11810D01*
G01X22194Y11798D01*
G01X22203Y11794D01*
G01X22217Y11790D01*
G01X22235Y11784D01*
G01X22256Y11779D01*
G01X22280Y11773D01*
G01X22306Y11767D01*
G01X22334Y11761D01*
G01X22392Y11749D01*
G01X22420Y11744D01*
G01X22447Y11739D01*
G01X22473Y11734D01*
G01X22497Y11731D01*
G01X22517Y11728D01*
G01X22534Y11726D01*
G01X22547Y11726D01*
G01X22562Y11727D01*
G01X22570Y11734D01*
G01X22574Y11748D01*
G01X22575Y11773D01*
G01X22575Y11820D01*
G01X22431Y11845D01*
G01X22386Y11853D01*
G01X22347Y11859D01*
G01X22315Y11866D01*
G01X22288Y11872D01*
G01X22265Y11878D01*
G01X22247Y11884D01*
G01X22233Y11890D01*
G01X22222Y11896D01*
G01X22215Y11903D01*
G01X22210Y11910D01*
G01X22207Y11918D01*
G01X22206Y11927D01*
G01X22208Y11940D01*
G01X22212Y11953D01*
G01X22218Y11966D01*
G01X22226Y11976D01*
G01X22236Y11987D01*
G01X22238Y11998D01*
G01X22234Y12012D01*
G01X22222Y12034D01*
G37*
G36*
G01X22255Y11736D02*
G01X22228Y11738D01*
G01X22202Y11737D01*
G01X22177Y11733D01*
G01X22154Y11726D01*
G01X22134Y11717D01*
G01X22116Y11705D01*
G01X22100Y11690D01*
G01X22086Y11673D01*
G01X22075Y11653D01*
G01X22065Y11630D01*
G01X22058Y11603D01*
G01X22053Y11575D01*
G01X22050Y11542D01*
G01X22049Y11519D01*
G01X22050Y11496D01*
G01X22052Y11473D01*
G01X22056Y11451D01*
G01X22060Y11430D01*
G01X22067Y11409D01*
G01X22074Y11390D01*
G01X22082Y11371D01*
G01X22102Y11339D01*
G01X22114Y11326D01*
G01X22127Y11314D01*
G01X22144Y11301D01*
G01X22153Y11296D01*
G01X22157Y11298D01*
G01X22157Y11309D01*
G01X22155Y11322D01*
G01X22148Y11340D01*
G01X22139Y11361D01*
G01X22127Y11384D01*
G01X22112Y11413D01*
G01X22102Y11441D01*
G01X22097Y11473D01*
G01X22096Y11511D01*
G01X22097Y11543D01*
G01X22100Y11572D01*
G01X22106Y11597D01*
G01X22113Y11619D01*
G01X22122Y11638D01*
G01X22135Y11655D01*
G01X22149Y11668D01*
G01X22165Y11678D01*
G01X22184Y11685D01*
G01X22206Y11690D01*
G01X22230Y11692D01*
G01X22256Y11690D01*
G01X22278Y11688D01*
G01X22318Y11676D01*
G01X22338Y11667D01*
G01X22356Y11657D01*
G01X22373Y11645D01*
G01X22389Y11632D01*
G01X22403Y11617D01*
G01X22417Y11601D01*
G01X22429Y11585D01*
G01X22440Y11568D01*
G01X22450Y11550D01*
G01X22458Y11532D01*
G01X22464Y11513D01*
G01X22469Y11494D01*
G01X22472Y11475D01*
G01X22473Y11456D01*
G01X22472Y11438D01*
G01X22470Y11419D01*
G01X22465Y11402D01*
G01X22459Y11385D01*
G01X22450Y11369D01*
G01X22439Y11353D01*
G01X22425Y11339D01*
G01X22409Y11325D01*
G01X22392Y11318D01*
G01X22371Y11315D01*
G01X22342Y11317D01*
G01X22314Y11322D01*
G01X22290Y11330D01*
G01X22269Y11342D01*
G01X22247Y11361D01*
G01X22225Y11384D01*
G01X22211Y11401D01*
G01X22206Y11413D01*
G01X22208Y11419D01*
G01X22219Y11421D01*
G01X22239Y11417D01*
G01X22268Y11408D01*
G01X22306Y11395D01*
G01X22345Y11380D01*
G01X22377Y11368D01*
G01X22400Y11360D01*
G01X22410Y11357D01*
G01X22412Y11360D01*
G01X22414Y11367D01*
G01X22415Y11377D01*
G01X22415Y11390D01*
G01X22414Y11402D01*
G01X22411Y11413D01*
G01X22407Y11420D01*
G01X22402Y11422D01*
G01X22397Y11423D01*
G01X22396Y11427D01*
G01X22397Y11434D01*
G01X22402Y11443D01*
G01X22413Y11471D01*
G01X22414Y11502D01*
G01X22405Y11533D01*
G01X22387Y11564D01*
G01X22372Y11582D01*
G01X22355Y11598D01*
G01X22336Y11613D01*
G01X22317Y11625D01*
G01X22297Y11634D01*
G01X22277Y11642D01*
G01X22258Y11647D01*
G01X22239Y11649D01*
G01X22221Y11649D01*
G01X22205Y11646D01*
G01X22190Y11639D01*
G01X22178Y11630D01*
G01X22164Y11604D01*
G01X22158Y11569D01*
G01X22160Y11534D01*
G01X22172Y11511D01*
G01X22179Y11505D01*
G01X22181Y11501D01*
G01X22179Y11499D01*
G01X22172Y11498D01*
G01X22161Y11485D01*
G01X22158Y11453D01*
G01X22163Y11415D01*
G01X22175Y11381D01*
G01X22191Y11358D01*
G01X22210Y11337D01*
G01X22231Y11318D01*
G01X22255Y11302D01*
G01X22281Y11289D01*
G01X22306Y11279D01*
G01X22333Y11273D01*
G01X22359Y11271D01*
G01X22381Y11272D01*
G01X22402Y11275D01*
G01X22421Y11280D01*
G01X22438Y11287D01*
G01X22453Y11296D01*
G01X22467Y11307D01*
G01X22479Y11321D01*
G01X22490Y11337D01*
G01X22497Y11353D01*
G01X22503Y11370D01*
G01X22508Y11389D01*
G01X22511Y11409D01*
G01X22513Y11430D01*
G01X22514Y11452D01*
G01X22513Y11474D01*
G01X22510Y11496D01*
G01X22507Y11517D01*
G01X22502Y11538D01*
G01X22496Y11557D01*
G01X22488Y11574D01*
G01X22474Y11598D01*
G01X22458Y11621D01*
G01X22441Y11641D01*
G01X22422Y11661D01*
G01X22401Y11678D01*
G01X22379Y11693D01*
G01X22356Y11706D01*
G01X22332Y11717D01*
G01X22307Y11726D01*
G01X22281Y11732D01*
G01X22255Y11736D01*
G37*
G36*
G01X22151Y11238D02*
G01X22143Y11238D01*
G01X22136Y11237D01*
G01X22131Y11234D01*
G01X22127Y11228D01*
G01X22124Y11217D01*
G01X22122Y11200D01*
G01X22121Y11177D01*
G01X22121Y11057D01*
G01X22122Y11021D01*
G01X22125Y10995D01*
G01X22129Y10977D01*
G01X22137Y10966D01*
G01X22148Y10959D01*
G01X22163Y10957D01*
G01X22182Y10957D01*
G01X22195Y10959D01*
G01X22202Y10971D01*
G01X22206Y10996D01*
G01X22209Y11041D01*
G01X22213Y11126D01*
G01X22384Y11096D01*
G01X22419Y11090D01*
G01X22452Y11085D01*
G01X22482Y11081D01*
G01X22508Y11077D01*
G01X22531Y11074D01*
G01X22548Y11072D01*
G01X22560Y11071D01*
G01X22565Y11072D01*
G01X22573Y11090D01*
G01X22575Y11121D01*
G01X22569Y11152D01*
G01X22559Y11167D01*
G01X22550Y11170D01*
G01X22534Y11173D01*
G01X22511Y11177D01*
G01X22485Y11182D01*
G01X22454Y11188D01*
G01X22420Y11194D01*
G01X22385Y11200D01*
G01X22312Y11212D01*
G01X22277Y11218D01*
G01X22243Y11223D01*
G01X22213Y11228D01*
G01X22187Y11232D01*
G01X22166Y11236D01*
G01X22151Y11238D01*
G37*
G36*
G01X22000Y12080D02*
G01X21987Y12080D01*
G01X21967Y12077D01*
G01X21942Y12071D01*
G01X21914Y12064D01*
G01X21886Y12054D01*
G01X21859Y12043D01*
G01X21840Y12034D01*
G01X21821Y12024D01*
G01X21803Y12013D01*
G01X21785Y12000D01*
G01X21768Y11987D01*
G01X21736Y11959D01*
G01X21721Y11943D01*
G01X21707Y11927D01*
G01X21693Y11910D01*
G01X21681Y11892D01*
G01X21657Y11854D01*
G01X21647Y11834D01*
G01X21637Y11813D01*
G01X21628Y11792D01*
G01X21620Y11770D01*
G01X21613Y11748D01*
G01X21606Y11725D01*
G01X21600Y11701D01*
G01X21595Y11676D01*
G01X21591Y11652D01*
G01X21588Y11627D01*
G01X21585Y11601D01*
G01X21584Y11575D01*
G01X21583Y11548D01*
G01X21585Y11494D01*
G01X21586Y11468D01*
G01X21589Y11443D01*
G01X21592Y11417D01*
G01X21600Y11367D01*
G01X21605Y11342D01*
G01X21617Y11294D01*
G01X21624Y11269D01*
G01X21631Y11246D01*
G01X21640Y11222D01*
G01X21648Y11198D01*
G01X21657Y11176D01*
G01X21677Y11130D01*
G01X21689Y11108D01*
G01X21700Y11086D01*
G01X21724Y11044D01*
G01X21737Y11023D01*
G01X21751Y11002D01*
G01X21765Y10982D01*
G01X21779Y10963D01*
G01X21794Y10944D01*
G01X21810Y10925D01*
G01X21842Y10889D01*
G01X21876Y10855D01*
G01X21894Y10838D01*
G01X21912Y10823D01*
G01X21931Y10807D01*
G01X21969Y10779D01*
G01X21989Y10765D01*
G01X22009Y10752D01*
G01X22084Y10706D01*
G01X22081Y11016D01*
G01X21987Y11097D01*
G01X21963Y11119D01*
G01X21942Y11139D01*
G01X21922Y11158D01*
G01X21906Y11176D01*
G01X21890Y11195D01*
G01X21877Y11213D01*
G01X21865Y11232D01*
G01X21854Y11251D01*
G01X21842Y11274D01*
G01X21831Y11298D01*
G01X21820Y11321D01*
G01X21810Y11345D01*
G01X21801Y11369D01*
G01X21793Y11394D01*
G01X21779Y11444D01*
G01X21773Y11468D01*
G01X21768Y11493D01*
G01X21760Y11543D01*
G01X21757Y11568D01*
G01X21755Y11592D01*
G01X21754Y11617D01*
G01X21753Y11641D01*
G01X21754Y11665D01*
G01X21755Y11688D01*
G01X21757Y11711D01*
G01X21763Y11757D01*
G01X21768Y11778D01*
G01X21773Y11800D01*
G01X21779Y11820D01*
G01X21793Y11860D01*
G01X21811Y11896D01*
G01X21819Y11910D01*
G01X21830Y11924D01*
G01X21856Y11956D01*
G01X21872Y11972D01*
G01X21923Y12020D01*
G01X21959Y12048D01*
G01X21993Y12070D01*
G01X22002Y12077D01*
G01X22000Y12080D01*
G37*
G36*
G01X22189Y7782D02*
G01X22162Y7782D01*
G01X22138Y7781D01*
G01X22114Y7778D01*
G01X22092Y7774D01*
G01X22071Y7769D01*
G01X22051Y7763D01*
G01X22032Y7755D01*
G01X22014Y7746D01*
G01X21998Y7735D01*
G01X21982Y7723D01*
G01X21968Y7710D01*
G01X21955Y7695D01*
G01X21942Y7679D01*
G01X21931Y7661D01*
G01X21920Y7642D01*
G01X21912Y7623D01*
G01X21905Y7600D01*
G01X21899Y7574D01*
G01X21896Y7547D01*
G01X21893Y7518D01*
G01X21893Y7488D01*
G01X21894Y7458D01*
G01X21896Y7427D01*
G01X21901Y7397D01*
G01X21906Y7368D01*
G01X21914Y7340D01*
G01X21922Y7315D01*
G01X21951Y7242D01*
G01X22021Y7225D01*
G01X22049Y7218D01*
G01X22076Y7211D01*
G01X22098Y7206D01*
G01X22111Y7202D01*
G01X22124Y7201D01*
G01X22133Y7203D01*
G01X22138Y7211D01*
G01X22139Y7222D01*
G01X22136Y7237D01*
G01X22129Y7257D01*
G01X22118Y7280D01*
G01X22103Y7308D01*
G01X22087Y7339D01*
G01X22074Y7369D01*
G01X22065Y7398D01*
G01X22060Y7425D01*
G01X22057Y7450D01*
G01X22059Y7474D01*
G01X22064Y7495D01*
G01X22072Y7514D01*
G01X22084Y7531D01*
G01X22099Y7545D01*
G01X22118Y7557D01*
G01X22139Y7565D01*
G01X22160Y7570D01*
G01X22181Y7573D01*
G01X22204Y7574D01*
G01X22226Y7573D01*
G01X22249Y7570D01*
G01X22272Y7565D01*
G01X22295Y7558D01*
G01X22317Y7550D01*
G01X22338Y7541D01*
G01X22359Y7530D01*
G01X22378Y7517D01*
G01X22396Y7504D01*
G01X22412Y7489D01*
G01X22426Y7474D01*
G01X22438Y7457D01*
G01X22448Y7440D01*
G01X22455Y7421D01*
G01X22460Y7401D01*
G01X22462Y7380D01*
G01X22462Y7359D01*
G01X22460Y7336D01*
G01X22457Y7315D01*
G01X22451Y7293D01*
G01X22444Y7273D01*
G01X22435Y7254D01*
G01X22424Y7237D01*
G01X22412Y7223D01*
G01X22399Y7211D01*
G01X22391Y7203D01*
G01X22384Y7193D01*
G01X22380Y7182D01*
G01X22378Y7171D01*
G01X22381Y7157D01*
G01X22389Y7148D01*
G01X22404Y7140D01*
G01X22431Y7133D01*
G01X22454Y7128D01*
G01X22479Y7121D01*
G01X22539Y7106D01*
G01X22554Y7103D01*
G01X22564Y7103D01*
G01X22570Y7104D01*
G01X22574Y7110D01*
G01X22581Y7125D01*
G01X22589Y7144D01*
G01X22598Y7167D01*
G01X22605Y7186D01*
G01X22611Y7207D01*
G01X22616Y7229D01*
G01X22620Y7253D01*
G01X22624Y7278D01*
G01X22627Y7303D01*
G01X22629Y7328D01*
G01X22630Y7352D01*
G01X22630Y7376D01*
G01X22629Y7399D01*
G01X22627Y7420D01*
G01X22624Y7438D01*
G01X22619Y7461D01*
G01X22612Y7482D01*
G01X22604Y7504D01*
G01X22595Y7526D01*
G01X22584Y7547D01*
G01X22573Y7567D01*
G01X22560Y7588D01*
G01X22546Y7607D01*
G01X22531Y7625D01*
G01X22515Y7643D01*
G01X22499Y7659D01*
G01X22482Y7675D01*
G01X22461Y7691D01*
G01X22441Y7706D01*
G01X22421Y7719D01*
G01X22401Y7731D01*
G01X22380Y7741D01*
G01X22359Y7750D01*
G01X22337Y7758D01*
G01X22314Y7765D01*
G01X22291Y7771D01*
G01X22267Y7775D01*
G01X22242Y7778D01*
G01X22216Y7780D01*
G01X22189Y7782D01*
G37*
G36*
G01X22730Y11700D02*
G01X22727Y11701D01*
G01X22728Y11692D01*
G01X22734Y11671D01*
G01X22743Y11639D01*
G01X22755Y11601D01*
G01X22762Y11577D01*
G01X22774Y11525D01*
G01X22779Y11498D01*
G01X22783Y11470D01*
G01X22787Y11441D01*
G01X22790Y11412D01*
G01X22792Y11383D01*
G01X22794Y11347D01*
G01X22794Y11292D01*
G01X22793Y11270D01*
G01X22790Y11250D01*
G01X22786Y11229D01*
G01X22780Y11208D01*
G01X22772Y11184D01*
G01X22764Y11162D01*
G01X22756Y11143D01*
G01X22747Y11126D01*
G01X22738Y11110D01*
G01X22726Y11095D01*
G01X22713Y11079D01*
G01X22697Y11063D01*
G01X22678Y11045D01*
G01X22611Y10984D01*
G01X22614Y10832D01*
G01X22618Y10680D01*
G01X22692Y10743D01*
G01X22711Y10759D01*
G01X22730Y10776D01*
G01X22762Y10810D01*
G01X22777Y10828D01*
G01X22790Y10846D01*
G01X22803Y10865D01*
G01X22815Y10884D01*
G01X22827Y10905D01*
G01X22838Y10927D01*
G01X22858Y10975D01*
G01X22865Y10995D01*
G01X22871Y11016D01*
G01X22877Y11038D01*
G01X22881Y11060D01*
G01X22885Y11084D01*
G01X22887Y11108D01*
G01X22889Y11133D01*
G01X22890Y11159D01*
G01X22890Y11184D01*
G01X22889Y11211D01*
G01X22887Y11238D01*
G01X22881Y11292D01*
G01X22876Y11320D01*
G01X22871Y11347D01*
G01X22865Y11375D01*
G01X22858Y11403D01*
G01X22842Y11457D01*
G01X22832Y11484D01*
G01X22824Y11504D01*
G01X22815Y11527D01*
G01X22793Y11575D01*
G01X22782Y11600D01*
G01X22771Y11623D01*
G01X22760Y11645D01*
G01X22751Y11664D01*
G01X22742Y11680D01*
G01X22735Y11692D01*
G01X22730Y11700D01*
G37*
G36*
G01X21928Y8494D02*
G01X21922Y8495D01*
G01X21919Y8494D01*
G01X21910Y8487D01*
G01X21904Y8471D01*
G01X21901Y8442D01*
G01X21900Y8396D01*
G01X21900Y8304D01*
G01X21945Y8293D01*
G01X21967Y8288D01*
G01X21995Y8282D01*
G01X22025Y8275D01*
G01X22054Y8269D01*
G01X22117Y8257D01*
G01X22125Y8167D01*
G01X22128Y8136D01*
G01X22133Y8106D01*
G01X22139Y8077D01*
G01X22146Y8049D01*
G01X22154Y8023D01*
G01X22163Y7998D01*
G01X22173Y7975D01*
G01X22184Y7953D01*
G01X22196Y7932D01*
G01X22210Y7913D01*
G01X22224Y7896D01*
G01X22239Y7880D01*
G01X22255Y7866D01*
G01X22272Y7853D01*
G01X22290Y7842D01*
G01X22309Y7833D01*
G01X22331Y7826D01*
G01X22359Y7821D01*
G01X22390Y7817D01*
G01X22420Y7816D01*
G01X22456Y7817D01*
G01X22483Y7821D01*
G01X22506Y7832D01*
G01X22530Y7848D01*
G01X22548Y7865D01*
G01X22566Y7885D01*
G01X22582Y7907D01*
G01X22593Y7927D01*
G01X22599Y7941D01*
G01X22604Y7958D01*
G01X22608Y7978D01*
G01X22611Y8003D01*
G01X22614Y8032D01*
G01X22617Y8067D01*
G01X22619Y8109D01*
G01X22621Y8159D01*
G01X22627Y8345D01*
G01X22585Y8355D01*
G01X22557Y8361D01*
G01X22528Y8369D01*
G01X22498Y8376D01*
G01X22467Y8382D01*
G01X22436Y8390D01*
G01X22374Y8404D01*
G01X22342Y8411D01*
G01X22280Y8425D01*
G01X22249Y8431D01*
G01X22219Y8438D01*
G01X22189Y8444D01*
G01X22160Y8450D01*
G01X22133Y8456D01*
G01X22106Y8461D01*
G01X22080Y8467D01*
G01X22056Y8471D01*
G01X22034Y8476D01*
G01X22013Y8480D01*
G01X21993Y8484D01*
G01X21976Y8487D01*
G01X21960Y8490D01*
G01X21947Y8492D01*
G01X21936Y8493D01*
G01X21928Y8494D01*
G37*
G36*
G01X22308Y10905D02*
G01X22282Y10905D01*
G01X22256Y10903D01*
G01X22231Y10898D01*
G01X22207Y10891D01*
G01X22184Y10882D01*
G01X22168Y10871D01*
G01X22152Y10856D01*
G01X22139Y10836D01*
G01X22128Y10815D01*
G01X22119Y10791D01*
G01X22114Y10766D01*
G01X22111Y10740D01*
G01X22113Y10716D01*
G01X22117Y10696D01*
G01X22124Y10674D01*
G01X22133Y10651D01*
G01X22143Y10629D01*
G01X22154Y10609D01*
G01X22164Y10592D01*
G01X22174Y10582D01*
G01X22181Y10578D01*
G01X22186Y10580D01*
G01X22194Y10584D01*
G01X22205Y10591D01*
G01X22217Y10599D01*
G01X22232Y10611D01*
G01X22238Y10621D01*
G01X22235Y10634D01*
G01X22226Y10652D01*
G01X22212Y10686D01*
G01X22207Y10722D01*
G01X22212Y10754D01*
G01X22226Y10777D01*
G01X22239Y10787D01*
G01X22255Y10794D01*
G01X22272Y10799D01*
G01X22291Y10801D01*
G01X22310Y10801D01*
G01X22330Y10800D01*
G01X22350Y10796D01*
G01X22370Y10790D01*
G01X22390Y10782D01*
G01X22409Y10773D01*
G01X22426Y10763D01*
G01X22442Y10751D01*
G01X22456Y10738D01*
G01X22468Y10723D01*
G01X22477Y10708D01*
G01X22484Y10692D01*
G01X22486Y10676D01*
G01X22485Y10659D01*
G01X22480Y10642D01*
G01X22471Y10623D01*
G01X22460Y10601D01*
G01X22457Y10586D01*
G01X22464Y10573D01*
G01X22482Y10557D01*
G01X22513Y10529D01*
G01X22540Y10553D01*
G01X22555Y10571D01*
G01X22565Y10593D01*
G01X22572Y10619D01*
G01X22574Y10649D01*
G01X22572Y10680D01*
G01X22567Y10711D01*
G01X22557Y10742D01*
G01X22543Y10771D01*
G01X22530Y10792D01*
G01X22514Y10811D01*
G01X22496Y10829D01*
G01X22476Y10845D01*
G01X22455Y10859D01*
G01X22432Y10872D01*
G01X22409Y10882D01*
G01X22385Y10891D01*
G01X22359Y10898D01*
G01X22334Y10902D01*
G01X22308Y10905D01*
G37*
G36*
G01X22216Y9153D02*
G01X22115Y9153D01*
G01X22092Y9151D01*
G01X22073Y9149D01*
G01X22058Y9145D01*
G01X22043Y9139D01*
G01X22029Y9132D01*
G01X22013Y9122D01*
G01X21988Y9105D01*
G01X21966Y9084D01*
G01X21946Y9059D01*
G01X21927Y9030D01*
G01X21918Y9011D01*
G01X21910Y8995D01*
G01X21904Y8978D01*
G01X21900Y8962D01*
G01X21897Y8944D01*
G01X21895Y8923D01*
G01X21894Y8897D01*
G01X21894Y8838D01*
G01X21895Y8813D01*
G01X21897Y8790D01*
G01X21903Y8750D01*
G01X21909Y8730D01*
G01X21915Y8711D01*
G01X21922Y8690D01*
G01X21951Y8617D01*
G01X22021Y8600D01*
G01X22049Y8593D01*
G01X22076Y8586D01*
G01X22098Y8581D01*
G01X22111Y8578D01*
G01X22124Y8576D01*
G01X22133Y8579D01*
G01X22138Y8586D01*
G01X22139Y8597D01*
G01X22136Y8613D01*
G01X22129Y8632D01*
G01X22118Y8655D01*
G01X22103Y8683D01*
G01X22087Y8715D01*
G01X22074Y8745D01*
G01X22065Y8773D01*
G01X22060Y8801D01*
G01X22057Y8826D01*
G01X22059Y8849D01*
G01X22064Y8871D01*
G01X22072Y8890D01*
G01X22084Y8906D01*
G01X22099Y8921D01*
G01X22118Y8932D01*
G01X22139Y8941D01*
G01X22160Y8946D01*
G01X22181Y8949D01*
G01X22204Y8950D01*
G01X22226Y8948D01*
G01X22249Y8945D01*
G01X22272Y8940D01*
G01X22295Y8934D01*
G01X22317Y8926D01*
G01X22338Y8916D01*
G01X22359Y8905D01*
G01X22378Y8893D01*
G01X22396Y8879D01*
G01X22412Y8865D01*
G01X22426Y8849D01*
G01X22438Y8832D01*
G01X22448Y8815D01*
G01X22455Y8797D01*
G01X22460Y8777D01*
G01X22462Y8756D01*
G01X22462Y8734D01*
G01X22460Y8712D01*
G01X22457Y8690D01*
G01X22451Y8669D01*
G01X22444Y8648D01*
G01X22435Y8630D01*
G01X22424Y8613D01*
G01X22412Y8598D01*
G01X22399Y8586D01*
G01X22391Y8578D01*
G01X22384Y8568D01*
G01X22380Y8557D01*
G01X22378Y8547D01*
G01X22381Y8533D01*
G01X22395Y8523D01*
G01X22423Y8512D01*
G01X22473Y8500D01*
G01X22510Y8491D01*
G01X22540Y8485D01*
G01X22562Y8481D01*
G01X22571Y8480D01*
G01X22575Y8486D01*
G01X22581Y8500D01*
G01X22589Y8520D01*
G01X22598Y8542D01*
G01X22605Y8561D01*
G01X22611Y8582D01*
G01X22621Y8628D01*
G01X22627Y8678D01*
G01X22629Y8703D01*
G01X22630Y8728D01*
G01X22630Y8752D01*
G01X22629Y8775D01*
G01X22627Y8796D01*
G01X22624Y8815D01*
G01X22618Y8840D01*
G01X22610Y8864D01*
G01X22601Y8888D01*
G01X22591Y8911D01*
G01X22578Y8934D01*
G01X22565Y8955D01*
G01X22550Y8977D01*
G01X22534Y8998D01*
G01X22498Y9036D01*
G01X22478Y9054D01*
G01X22457Y9071D01*
G01X22436Y9086D01*
G01X22413Y9100D01*
G01X22390Y9113D01*
G01X22366Y9124D01*
G01X22346Y9133D01*
G01X22327Y9139D01*
G01X22309Y9144D01*
G01X22290Y9148D01*
G01X22269Y9151D01*
G01X22245Y9152D01*
G01X22216Y9153D01*
G37*
G36*
G01X21927Y7118D02*
G01X21921Y7119D01*
G01X21917Y7118D01*
G01X21912Y7115D01*
G01X21909Y7109D01*
G01X21906Y7098D01*
G01X21903Y7082D01*
G01X21902Y7061D01*
G01X21901Y7034D01*
G01X21900Y7000D01*
G01X21900Y6958D01*
G01X21901Y6919D01*
G01X21901Y6883D01*
G01X21903Y6848D01*
G01X21905Y6816D01*
G01X21907Y6785D01*
G01X21911Y6756D01*
G01X21914Y6728D01*
G01X21924Y6678D01*
G01X21930Y6656D01*
G01X21937Y6635D01*
G01X21944Y6615D01*
G01X21952Y6598D01*
G01X21961Y6581D01*
G01X21971Y6566D01*
G01X21981Y6552D01*
G01X21992Y6539D01*
G01X22004Y6528D01*
G01X22017Y6518D01*
G01X22031Y6509D01*
G01X22046Y6501D01*
G01X22061Y6494D01*
G01X22095Y6484D01*
G01X22118Y6480D01*
G01X22141Y6478D01*
G01X22162Y6478D01*
G01X22183Y6481D01*
G01X22202Y6486D01*
G01X22220Y6494D01*
G01X22237Y6505D01*
G01X22252Y6517D01*
G01X22285Y6548D01*
G01X22313Y6511D01*
G01X22328Y6494D01*
G01X22344Y6481D01*
G01X22362Y6469D01*
G01X22381Y6461D01*
G01X22400Y6455D01*
G01X22420Y6452D01*
G01X22441Y6451D01*
G01X22461Y6453D01*
G01X22481Y6457D01*
G01X22501Y6464D01*
G01X22519Y6473D01*
G01X22537Y6485D01*
G01X22553Y6499D01*
G01X22568Y6515D01*
G01X22581Y6534D01*
G01X22592Y6554D01*
G01X22598Y6571D01*
G01X22603Y6589D01*
G01X22607Y6609D01*
G01X22611Y6634D01*
G01X22614Y6663D01*
G01X22617Y6698D01*
G01X22619Y6739D01*
G01X22621Y6788D01*
G01X22627Y6967D01*
G01X22281Y7046D01*
G01X22245Y7053D01*
G01X22210Y7061D01*
G01X22177Y7069D01*
G01X22144Y7076D01*
G01X22084Y7088D01*
G01X22056Y7094D01*
G01X22031Y7099D01*
G01X22007Y7104D01*
G01X21986Y7108D01*
G01X21967Y7111D01*
G01X21951Y7114D01*
G01X21938Y7117D01*
G01X21927Y7118D01*
G37*
G36*
G01X21928Y9786D02*
G01X21921Y9786D01*
G01X21916Y9785D01*
G01X21913Y9784D01*
G01X21911Y9780D01*
G01X21909Y9773D01*
G01X21907Y9763D01*
G01X21906Y9750D01*
G01X21905Y9734D01*
G01X21903Y9714D01*
G01X21902Y9692D01*
G01X21901Y9666D01*
G01X21901Y9637D01*
G01X21900Y9605D01*
G01X21900Y9290D01*
G01X21951Y9277D01*
G01X21973Y9273D01*
G01X21997Y9268D01*
G01X22018Y9265D01*
G01X22034Y9263D01*
G01X22065Y9261D01*
G01X22072Y9557D01*
G01X22331Y9498D01*
G01X22366Y9490D01*
G01X22400Y9483D01*
G01X22433Y9476D01*
G01X22464Y9469D01*
G01X22493Y9463D01*
G01X22519Y9458D01*
G01X22542Y9453D01*
G01X22563Y9450D01*
G01X22580Y9447D01*
G01X22593Y9445D01*
G01X22602Y9444D01*
G01X22607Y9445D01*
G01X22614Y9455D01*
G01X22620Y9478D01*
G01X22623Y9508D01*
G01X22625Y9543D01*
G01X22624Y9578D01*
G01X22621Y9608D01*
G01X22616Y9630D01*
G01X22609Y9641D01*
G01X22605Y9642D01*
G01X22598Y9643D01*
G01X22589Y9646D01*
G01X22576Y9648D01*
G01X22561Y9652D01*
G01X22543Y9656D01*
G01X22522Y9661D01*
G01X22500Y9666D01*
G01X22475Y9672D01*
G01X22448Y9678D01*
G01X22420Y9684D01*
G01X22390Y9691D01*
G01X22359Y9698D01*
G01X22327Y9705D01*
G01X22294Y9713D01*
G01X22260Y9720D01*
G01X22216Y9730D01*
G01X22176Y9739D01*
G01X22139Y9747D01*
G01X22105Y9755D01*
G01X22074Y9761D01*
G01X22047Y9767D01*
G01X22022Y9771D01*
G01X22000Y9776D01*
G01X21980Y9779D01*
G01X21964Y9782D01*
G01X21949Y9784D01*
G01X21938Y9785D01*
G01X21928Y9786D01*
G37*
G36*
G01X21967Y10380D02*
G01X21940Y10384D01*
G01X21923Y10383D01*
G01X21914Y10378D01*
G01X21908Y10366D01*
G01X21903Y10345D01*
G01X21899Y10317D01*
G01X21897Y10284D01*
G01X21895Y10248D01*
G01X21896Y10212D01*
G01X21897Y10178D01*
G01X21901Y10147D01*
G01X21907Y10117D01*
G01X21916Y10086D01*
G01X21926Y10058D01*
G01X21936Y10037D01*
G01X21949Y10017D01*
G01X21966Y9998D01*
G01X21985Y9979D01*
G01X22007Y9961D01*
G01X22030Y9944D01*
G01X22053Y9930D01*
G01X22076Y9918D01*
G01X22098Y9909D01*
G01X22114Y9905D01*
G01X22134Y9899D01*
G01X22157Y9893D01*
G01X22184Y9887D01*
G01X22214Y9880D01*
G01X22245Y9873D01*
G01X22278Y9865D01*
G01X22311Y9858D01*
G01X22346Y9850D01*
G01X22414Y9836D01*
G01X22447Y9829D01*
G01X22477Y9823D01*
G01X22506Y9817D01*
G01X22533Y9813D01*
G01X22556Y9808D01*
G01X22575Y9805D01*
G01X22590Y9803D01*
G01X22601Y9802D01*
G01X22606Y9802D01*
G01X22611Y9805D01*
G01X22615Y9811D01*
G01X22618Y9821D01*
G01X22620Y9835D01*
G01X22622Y9854D01*
G01X22623Y9878D01*
G01X22623Y9909D01*
G01X22624Y9947D01*
G01X22624Y10086D01*
G01X22561Y10099D01*
G01X22528Y10106D01*
G01X22502Y10110D01*
G01X22483Y10111D01*
G01X22469Y10111D01*
G01X22460Y10106D01*
G01X22455Y10099D01*
G01X22452Y10088D01*
G01X22452Y10074D01*
G01X22451Y10059D01*
G01X22449Y10047D01*
G01X22446Y10039D01*
G01X22443Y10036D01*
G01X22431Y10038D01*
G01X22411Y10041D01*
G01X22385Y10047D01*
G01X22354Y10054D01*
G01X22320Y10062D01*
G01X22285Y10071D01*
G01X22249Y10080D01*
G01X22215Y10088D01*
G01X22184Y10097D01*
G01X22157Y10104D01*
G01X22137Y10111D01*
G01X22125Y10115D01*
G01X22107Y10126D01*
G01X22092Y10138D01*
G01X22080Y10154D01*
G01X22071Y10173D01*
G01X22067Y10186D01*
G01X22064Y10198D01*
G01X22062Y10212D01*
G01X22063Y10227D01*
G01X22064Y10244D01*
G01X22067Y10266D01*
G01X22072Y10292D01*
G01X22079Y10323D01*
G01X22081Y10343D01*
G01X22075Y10354D01*
G01X22052Y10363D01*
G01X22005Y10373D01*
G01X21967Y10380D01*
G37*

%LPD*%
G36*
G01X22258Y11583D02*
G01X22241Y11585D01*
G01X22220Y11582D01*
G01X22206Y11573D01*
G01X22198Y11561D01*
G01X22198Y11545D01*
G01X22204Y11528D01*
G01X22216Y11509D01*
G01X22235Y11492D01*
G01X22260Y11476D01*
G01X22292Y11462D01*
G01X22320Y11456D01*
G01X22345Y11458D01*
G01X22364Y11468D01*
G01X22373Y11477D01*
G01X22377Y11486D01*
G01X22374Y11498D01*
G01X22366Y11517D01*
G01X22358Y11529D01*
G01X22346Y11540D01*
G01X22331Y11552D01*
G01X22314Y11562D01*
G01X22296Y11571D01*
G01X22277Y11578D01*
G01X22258Y11583D01*
G37*

%LPD*%
G36*
G01X22314Y8212D02*
G01X22303Y8213D01*
G01X22296Y8208D01*
G01X22293Y8194D01*
G01X22293Y8170D01*
G01X22294Y8138D01*
G01X22299Y8110D01*
G01X22307Y8086D01*
G01X22318Y8067D01*
G01X22332Y8052D01*
G01X22349Y8041D01*
G01X22370Y8034D01*
G01X22393Y8032D01*
G01X22422Y8037D01*
G01X22439Y8051D01*
G01X22449Y8078D01*
G01X22452Y8120D01*
G01X22452Y8181D01*
G01X22394Y8194D01*
G01X22369Y8199D01*
G01X22346Y8205D01*
G01X22327Y8209D01*
G01X22314Y8212D01*
G37*

%LPD*%
G36*
G01X22099Y6881D02*
G01X22078Y6884D01*
G01X22074Y6878D01*
G01X22072Y6863D01*
G01X22071Y6840D01*
G01X22072Y6813D01*
G01X22074Y6785D01*
G01X22077Y6759D01*
G01X22082Y6737D01*
G01X22087Y6723D01*
G01X22106Y6701D01*
G01X22130Y6688D01*
G01X22154Y6686D01*
G01X22176Y6696D01*
G01X22184Y6708D01*
G01X22190Y6726D01*
G01X22193Y6752D01*
G01X22194Y6786D01*
G01X22194Y6860D01*
G01X22140Y6872D01*
G01X22118Y6877D01*
G01X22099Y6881D01*
G37*

%LPD*%
G36*
G01X22414Y6813D02*
G01X22380Y6818D01*
G01X22361Y6815D01*
G01X22355Y6799D01*
G01X22354Y6768D01*
G01X22359Y6726D01*
G01X22372Y6694D01*
G01X22393Y6674D01*
G01X22419Y6670D01*
G01X22434Y6674D01*
G01X22442Y6684D01*
G01X22447Y6704D01*
G01X22450Y6739D01*
G01X22453Y6806D01*
G01X22414Y6813D01*
G37*

%LPD*%
G54D25*
G01X20150Y19700D02*
G01X20150Y19100D01*
G01X21300Y19100D01*
G01X21300Y19700D01*
G01X3300Y19900D02*
G01X3300Y19300D01*
G01X4450Y19300D01*
G01X4450Y19900D01*
G01X31085Y21077D02*
G01X28085Y21077D01*
G01X28085Y23077D01*
G01X31085Y23077D01*
G01X31085Y21077D01*
G01X30082Y21077D02*
G01X30082Y23027D01*
G01X29069Y23077D02*
G01X29069Y21077D01*
G01X31085Y22073D02*
G01X28085Y22073D01*
G01X3499Y16161D02*
G01X3499Y15829D01*
G01X3485Y17538D02*
G01X3485Y17929D01*
G01X7653Y16161D02*
G01X7653Y15779D01*
G01X7632Y17538D02*
G01X7632Y17879D01*
G01X10210Y15461D02*
G01X10210Y15100D01*
G01X10200Y17200D02*
G01X10200Y16838D01*
G01X21704Y17097D02*
G01X20000Y17100D01*
G01X21654Y15547D02*
G01X20000Y15547D01*
G54D10*
G01X9800Y1150D02*
G01X11050Y1150D01*
G01X17250Y1150D02*
G01X18500Y1150D01*
G01X15300Y1150D02*
G01X16550Y1150D01*
G01X13450Y1150D02*
G01X14700Y1150D01*
G01X11700Y1150D02*
G01X12950Y1150D01*
G54D11*
G01X24450Y4075D02*
G01X24450Y19425D01*
G01X30750Y19425D01*
G01X30750Y4075D01*
G01X24450Y4075D01*
G54D26*
G01X2550Y23200D02*
G01X1800Y23200D01*
G01X1800Y22200D01*
G01X6800Y22200D01*
G01X6800Y23200D01*
G54D27*
G01X6800Y23200D02*
G01X2550Y23200D01*
G54D26*
G01X12550Y6500D02*
G01X11800Y6500D01*
G01X11800Y5500D01*
G01X16800Y5500D01*
G01X16800Y6500D01*
G54D27*
G01X16800Y6500D02*
G01X12550Y6500D01*
G54D26*
G01X23100Y22200D02*
G01X23850Y22200D01*
G01X23850Y23200D01*
G01X18850Y23200D01*
G01X18850Y22200D01*
G54D27*
G01X18850Y22200D02*
G01X23100Y22200D01*
G54D26*
G01X19150Y18050D02*
G01X18150Y18050D01*
G01X18150Y19050D01*
G01X19150Y19050D01*
G01X19150Y18300D01*
G54D27*
G01X19150Y18050D02*
G01X19150Y18300D01*
G54D26*
G01X7650Y13350D02*
G01X8400Y13350D01*
G01X8400Y14350D01*
G01X2400Y14350D01*
G01X2400Y13350D01*
G54D27*
G01X2400Y13350D02*
G01X7650Y13350D01*
G54D11*
G01X7410Y5403D02*
G01X7410Y903D01*
G01X14910Y903D01*
G01X22410Y903D01*
G01X22450Y5588D01*
G01X7410Y5588D01*
G01X7410Y5403D01*
G01X24451Y26486D02*
G01X24451Y23140D01*
G01X27648Y26487D02*
G01X24451Y26487D01*
G01X27648Y23140D02*
G01X24451Y23140D01*
G01X27648Y23140D02*
G01X27648Y26487D01*
G01X18809Y15703D02*
G01X18809Y16103D01*
G01X18612Y15906D02*
G01X19012Y15906D01*
G01X10593Y13190D02*
G01X10593Y12009D01*
G01X9806Y12009D02*
G01X9806Y13190D01*
G01X10593Y13190D02*
G01X10373Y13190D01*
G01X10026Y13190D02*
G01X9806Y13190D01*
G01X9806Y12009D02*
G01X10026Y12009D01*
G01X10373Y12009D02*
G01X10593Y12009D01*
G01X10534Y15461D02*
G01X9865Y15461D01*
G01X9865Y15461D02*
G01X9865Y16838D01*
G01X10534Y16838D02*
G01X10534Y15461D01*
G01X9865Y16838D02*
G01X10534Y16838D01*
G01X4933Y17763D02*
G01X4933Y17707D01*
G01X4933Y17352D02*
G01X4933Y17207D01*
G01X6508Y17763D02*
G01X6508Y17707D01*
G01X6508Y17352D02*
G01X6508Y17207D01*
G01X6508Y16852D02*
G01X6508Y16707D01*
G01X6508Y16352D02*
G01X6508Y16207D01*
G01X5492Y17763D02*
G01X4933Y17763D01*
G01X4933Y16852D02*
G01X4933Y16707D01*
G01X4933Y16352D02*
G01X4933Y16207D01*
G01X4933Y15852D02*
G01X4933Y15795D01*
G01X6508Y17763D02*
G01X5957Y17763D01*
G01X6508Y15795D02*
G01X4933Y15795D01*
G01X6508Y15852D02*
G01X6508Y15795D01*
G01X3165Y17538D02*
G01X3834Y17538D01*
G01X3834Y17538D02*
G01X3834Y16161D01*
G01X3165Y16161D02*
G01X3165Y17538D01*
G01X3834Y16161D02*
G01X3165Y16161D01*
G01X7315Y17538D02*
G01X7984Y17538D01*
G01X7984Y17538D02*
G01X7984Y16161D01*
G01X7315Y16161D02*
G01X7315Y17538D01*
G01X7984Y16161D02*
G01X7315Y16161D01*
G54D26*
G01X3500Y21600D02*
G01X2750Y21600D01*
G01X2750Y20600D01*
G01X5750Y20600D01*
G01X5750Y21600D01*
G54D27*
G01X5750Y21600D02*
G01X3500Y21600D01*
G54D26*
G01X20600Y21500D02*
G01X19850Y21500D01*
G01X19850Y20500D01*
G01X22850Y20500D01*
G01X22850Y21500D01*
G54D27*
G01X22850Y21500D02*
G01X20600Y21500D01*
G54D26*
G01X19600Y10750D02*
G01X18600Y10750D01*
G01X18600Y14750D01*
G01X19600Y14750D01*
G01X19600Y14000D01*
G54D27*
G01X19600Y10750D02*
G01X19600Y14000D01*
G54D11*
G01X16300Y7100D02*
G01X16300Y8100D01*
G01X12300Y8100D01*
G01X12300Y7100D01*
G01X11300Y20300D02*
G01X11300Y19200D01*
G01X17300Y19200D01*
G01X17300Y20300D01*
G01X10800Y19100D02*
G01X10800Y20300D01*
G01X17800Y20300D01*
G01X17800Y19100D01*
G01X16800Y7100D02*
G01X11800Y7100D01*
G01X11800Y7200D01*
G01X16800Y19100D02*
G01X17800Y19100D01*
G01X17800Y7100D01*
G01X16800Y7100D01*
G01X16800Y19100D01*
G01X11800Y19100D02*
G01X11800Y7100D01*
G01X10800Y7100D01*
G01X10800Y19100D01*
G01X11800Y19100D01*
G01X8050Y23300D02*
G01X10050Y23300D01*
G01X10050Y22300D01*
G01X8050Y22300D01*
G01X8050Y23300D01*
G54D29*
G01X23200Y1453D02*
G01X23200Y1025D01*
G01X23200Y1453D02*
G01X23384Y1453D01*
G01X23444Y1434D01*
G01X23465Y1413D01*
G01X23485Y1371D01*
G01X23485Y1330D01*
G01X23465Y1290D01*
G01X23444Y1269D01*
G01X23384Y1250D01*
G01X23200Y1250D01*
G01X23343Y1250D02*
G01X23485Y1025D01*
G01X23621Y1188D02*
G01X23867Y1188D01*
G01X23867Y1228D01*
G01X23846Y1269D01*
G01X23826Y1290D01*
G01X23785Y1311D01*
G01X23723Y1311D01*
G01X23682Y1290D01*
G01X23642Y1250D01*
G01X23621Y1188D01*
G01X23621Y1146D01*
G01X23642Y1086D01*
G01X23682Y1044D01*
G01X23723Y1025D01*
G01X23785Y1025D01*
G01X23826Y1044D01*
G01X23867Y1086D01*
G01X24002Y1311D02*
G01X24125Y1025D01*
G01X24247Y1311D02*
G01X24125Y1025D01*
G01X24697Y1371D02*
G01X24738Y1392D01*
G01X24800Y1453D01*
G01X24800Y1025D01*
G01X24955Y1126D02*
G01X24935Y1105D01*
G01X24955Y1086D01*
G01X24975Y1105D01*
G01X24955Y1126D01*
G01X25110Y1371D02*
G01X25151Y1392D01*
G01X25213Y1453D01*
G01X25213Y1025D01*
G01X25867Y1453D02*
G01X25867Y1126D01*
G01X25847Y1065D01*
G01X25826Y1044D01*
G01X25785Y1025D01*
G01X25744Y1025D01*
G01X25703Y1044D01*
G01X25682Y1065D01*
G01X25663Y1126D01*
G01X25663Y1167D01*
G01X26002Y1311D02*
G01X26002Y1105D01*
G01X26022Y1044D01*
G01X26064Y1025D01*
G01X26125Y1025D01*
G01X26165Y1044D01*
G01X26227Y1105D01*
G01X26227Y1311D02*
G01X26227Y1025D01*
G01X26361Y1311D02*
G01X26361Y1025D01*
G01X26361Y1228D02*
G01X26423Y1290D01*
G01X26464Y1311D01*
G01X26526Y1311D01*
G01X26567Y1290D01*
G01X26586Y1228D01*
G01X26586Y1025D01*
G01X26722Y1188D02*
G01X26968Y1188D01*
G01X26968Y1228D01*
G01X26947Y1269D01*
G01X26927Y1290D01*
G01X26885Y1311D01*
G01X26825Y1311D01*
G01X26784Y1290D01*
G01X26743Y1250D01*
G01X26722Y1188D01*
G01X26722Y1146D01*
G01X26743Y1086D01*
G01X26784Y1044D01*
G01X26825Y1025D01*
G01X26885Y1025D01*
G01X26927Y1044D01*
G01X26968Y1086D01*
G01X27438Y1351D02*
G01X27438Y1371D01*
G01X27459Y1413D01*
G01X27478Y1434D01*
G01X27519Y1453D01*
G01X27602Y1453D01*
G01X27643Y1434D01*
G01X27663Y1413D01*
G01X27684Y1371D01*
G01X27684Y1330D01*
G01X27663Y1290D01*
G01X27622Y1228D01*
G01X27418Y1025D01*
G01X27703Y1025D01*
G01X27961Y1453D02*
G01X27900Y1434D01*
G01X27860Y1371D01*
G01X27839Y1269D01*
G01X27839Y1209D01*
G01X27860Y1105D01*
G01X27900Y1044D01*
G01X27961Y1025D01*
G01X28002Y1025D01*
G01X28064Y1044D01*
G01X28105Y1105D01*
G01X28125Y1209D01*
G01X28125Y1269D01*
G01X28105Y1371D01*
G01X28064Y1434D01*
G01X28002Y1453D01*
G01X27961Y1453D01*
G01X28281Y1351D02*
G01X28281Y1371D01*
G01X28301Y1413D01*
G01X28322Y1434D01*
G01X28363Y1453D01*
G01X28444Y1453D01*
G01X28485Y1434D01*
G01X28506Y1413D01*
G01X28526Y1371D01*
G01X28526Y1330D01*
G01X28506Y1290D01*
G01X28464Y1228D01*
G01X28260Y1025D01*
G01X28547Y1025D01*
G01X28805Y1453D02*
G01X28743Y1434D01*
G01X28702Y1371D01*
G01X28681Y1269D01*
G01X28681Y1209D01*
G01X28702Y1105D01*
G01X28743Y1044D01*
G01X28805Y1025D01*
G01X28844Y1025D01*
G01X28906Y1044D01*
G01X28947Y1105D01*
G01X28968Y1209D01*
G01X28968Y1269D01*
G01X28947Y1371D01*
G01X28906Y1434D01*
G01X28844Y1453D01*
G01X28805Y1453D01*
G01X11400Y3111D02*
G01X11400Y2825D01*
G01X11400Y2988D02*
G01X11419Y3050D01*
G01X11460Y3090D01*
G01X11502Y3111D01*
G01X11564Y3111D01*
G01X11698Y2988D02*
G01X11943Y2988D01*
G01X11943Y3028D01*
G01X11923Y3069D01*
G01X11902Y3090D01*
G01X11861Y3111D01*
G01X11801Y3111D01*
G01X11760Y3090D01*
G01X11718Y3050D01*
G01X11698Y2988D01*
G01X11698Y2946D01*
G01X11718Y2886D01*
G01X11760Y2844D01*
G01X11801Y2825D01*
G01X11861Y2825D01*
G01X11902Y2844D01*
G01X11943Y2886D01*
G01X12303Y3050D02*
G01X12284Y3090D01*
G01X12222Y3111D01*
G01X12160Y3111D01*
G01X12100Y3090D01*
G01X12078Y3050D01*
G01X12100Y3009D01*
G01X12139Y2988D01*
G01X12243Y2967D01*
G01X12284Y2946D01*
G01X12303Y2905D01*
G01X12303Y2886D01*
G01X12284Y2844D01*
G01X12222Y2825D01*
G01X12160Y2825D01*
G01X12100Y2844D01*
G01X12078Y2886D01*
G01X12439Y3253D02*
G01X12460Y3234D01*
G01X12480Y3253D01*
G01X12460Y3275D01*
G01X12439Y3253D01*
G01X12460Y3111D02*
G01X12460Y2825D01*
G01X12839Y3050D02*
G01X12819Y3090D01*
G01X12757Y3111D01*
G01X12697Y3111D01*
G01X12635Y3090D01*
G01X12614Y3050D01*
G01X12635Y3009D01*
G01X12676Y2988D01*
G01X12778Y2967D01*
G01X12819Y2946D01*
G01X12839Y2905D01*
G01X12839Y2886D01*
G01X12819Y2844D01*
G01X12757Y2825D01*
G01X12697Y2825D01*
G01X12635Y2844D01*
G01X12614Y2886D01*
G01X13035Y3253D02*
G01X13035Y2905D01*
G01X13056Y2844D01*
G01X13097Y2825D01*
G01X13139Y2825D01*
G01X12975Y3111D02*
G01X13118Y3111D01*
G01X13376Y3111D02*
G01X13335Y3090D01*
G01X13293Y3050D01*
G01X13273Y2988D01*
G01X13273Y2946D01*
G01X13293Y2886D01*
G01X13335Y2844D01*
G01X13376Y2825D01*
G01X13436Y2825D01*
G01X13477Y2844D01*
G01X13518Y2886D01*
G01X13539Y2946D01*
G01X13539Y2988D01*
G01X13518Y3050D01*
G01X13477Y3090D01*
G01X13436Y3111D01*
G01X13376Y3111D01*
G01X13675Y3111D02*
G01X13675Y2825D01*
G01X13675Y2988D02*
G01X13694Y3050D01*
G01X13735Y3090D01*
G01X13777Y3111D01*
G01X13838Y3111D01*
G01X14197Y3050D02*
G01X14177Y3090D01*
G01X14115Y3111D01*
G01X14055Y3111D01*
G01X13993Y3090D01*
G01X13972Y3050D01*
G01X13993Y3009D01*
G01X14035Y2988D01*
G01X14136Y2967D01*
G01X14177Y2946D01*
G01X14197Y2905D01*
G01X14197Y2886D01*
G01X14177Y2844D01*
G01X14115Y2825D01*
G01X14055Y2825D01*
G01X13993Y2844D01*
G01X13972Y2886D01*
G01X14893Y3111D02*
G01X14893Y2825D01*
G01X14893Y3050D02*
G01X14852Y3090D01*
G01X14811Y3111D01*
G01X14750Y3111D01*
G01X14710Y3090D01*
G01X14668Y3050D01*
G01X14647Y2988D01*
G01X14647Y2946D01*
G01X14668Y2886D01*
G01X14710Y2844D01*
G01X14750Y2825D01*
G01X14811Y2825D01*
G01X14852Y2844D01*
G01X14893Y2886D01*
G01X15028Y3111D02*
G01X15028Y2825D01*
G01X15028Y3028D02*
G01X15089Y3090D01*
G01X15131Y3111D01*
G01X15192Y3111D01*
G01X15232Y3090D01*
G01X15253Y3028D01*
G01X15253Y2825D01*
G01X15634Y3253D02*
G01X15634Y2825D01*
G01X15634Y3050D02*
G01X15593Y3090D01*
G01X15552Y3111D01*
G01X15490Y3111D01*
G01X15450Y3090D01*
G01X15409Y3050D01*
G01X15389Y2988D01*
G01X15389Y2946D01*
G01X15409Y2886D01*
G01X15450Y2844D01*
G01X15490Y2825D01*
G01X15552Y2825D01*
G01X15593Y2844D01*
G01X15634Y2886D01*
G01X16084Y3253D02*
G01X16084Y2825D01*
G01X16084Y2825D02*
G01X16330Y2825D01*
G01X16464Y3253D02*
G01X16464Y2825D01*
G01X16464Y3253D02*
G01X16730Y3253D01*
G01X16464Y3050D02*
G01X16627Y3050D01*
G01X16464Y2825D02*
G01X16730Y2825D01*
G01X16864Y3253D02*
G01X16864Y2825D01*
G01X16864Y3253D02*
G01X17009Y3253D01*
G01X17069Y3234D01*
G01X17110Y3192D01*
G01X17131Y3151D01*
G01X17152Y3090D01*
G01X17152Y2988D01*
G01X17131Y2926D01*
G01X17110Y2886D01*
G01X17069Y2844D01*
G01X17009Y2825D01*
G01X16864Y2825D01*
G01X17511Y3050D02*
G01X17490Y3090D01*
G01X17430Y3111D01*
G01X17368Y3111D01*
G01X17306Y3090D01*
G01X17286Y3050D01*
G01X17306Y3009D01*
G01X17347Y2988D01*
G01X17450Y2967D01*
G01X17490Y2946D01*
G01X17511Y2905D01*
G01X17511Y2886D01*
G01X17490Y2844D01*
G01X17430Y2825D01*
G01X17368Y2825D01*
G01X17306Y2844D01*
G01X17286Y2886D01*
G01X17946Y15267D02*
G01X17946Y15086D01*
G01X18110Y15067D01*
G01X18092Y15086D01*
G01X18073Y15140D01*
G01X18073Y15194D01*
G01X18092Y15250D01*
G01X18127Y15286D01*
G01X18182Y15305D01*
G01X18218Y15305D01*
G01X18273Y15286D01*
G01X18310Y15250D01*
G01X18327Y15194D01*
G01X18327Y15140D01*
G01X18310Y15086D01*
G01X18292Y15067D01*
G01X18255Y15050D01*
G01X17946Y15425D02*
G01X18327Y15569D01*
G01X17946Y15715D02*
G01X18327Y15569D01*
G01X17946Y16115D02*
G01X18327Y16115D01*
G01X17946Y16115D02*
G01X17946Y16278D01*
G01X17964Y16334D01*
G01X17982Y16351D01*
G01X18018Y16369D01*
G01X18055Y16369D01*
G01X18092Y16351D01*
G01X18110Y16334D01*
G01X18127Y16278D01*
G01X18127Y16115D01*
G01X18127Y16242D02*
G01X18327Y16369D01*
G01X18001Y16744D02*
G01X17964Y16707D01*
G01X17946Y16653D01*
G01X17946Y16580D01*
G01X17964Y16526D01*
G01X18001Y16490D01*
G01X18036Y16490D01*
G01X18073Y16507D01*
G01X18092Y16526D01*
G01X18110Y16563D01*
G01X18146Y16671D01*
G01X18164Y16707D01*
G01X18182Y16726D01*
G01X18218Y16744D01*
G01X18273Y16744D01*
G01X18310Y16707D01*
G01X18327Y16653D01*
G01X18327Y16580D01*
G01X18310Y16526D01*
G01X18273Y16490D01*
G01X17946Y16992D02*
G01X18327Y16992D01*
G01X17946Y16865D02*
G01X17946Y17119D01*
G01X18036Y17792D02*
G01X18001Y17773D01*
G01X17964Y17736D01*
G01X17946Y17701D01*
G01X17946Y17628D01*
G01X17964Y17592D01*
G01X18001Y17555D01*
G01X18036Y17536D01*
G01X18092Y17519D01*
G01X18182Y17519D01*
G01X18236Y17536D01*
G01X18273Y17555D01*
G01X18310Y17592D01*
G01X18327Y17628D01*
G01X18327Y17701D01*
G01X18310Y17736D01*
G01X18273Y17773D01*
G01X18236Y17792D01*
G01X18182Y17792D01*
G01X18182Y17701D02*
G01X18182Y17792D01*
G01X17946Y7100D02*
G01X18327Y7100D01*
G01X17946Y7100D02*
G01X17946Y7226D01*
G01X17964Y7282D01*
G01X18001Y7317D01*
G01X18036Y7336D01*
G01X18092Y7355D01*
G01X18182Y7355D01*
G01X18236Y7336D01*
G01X18273Y7317D01*
G01X18310Y7282D01*
G01X18327Y7226D01*
G01X18327Y7100D01*
G01X18018Y7475D02*
G01X18001Y7511D01*
G01X17946Y7565D01*
G01X18327Y7565D01*
G01X17946Y7794D02*
G01X17964Y7740D01*
G01X18018Y7703D01*
G01X18110Y7684D01*
G01X18164Y7684D01*
G01X18255Y7703D01*
G01X18310Y7740D01*
G01X18327Y7794D01*
G01X18327Y7830D01*
G01X18310Y7884D01*
G01X18255Y7921D01*
G01X18164Y7940D01*
G01X18110Y7940D01*
G01X18018Y7921D01*
G01X17964Y7884D01*
G01X17946Y7830D01*
G01X17946Y7794D01*
G01X10653Y7850D02*
G01X10272Y7850D01*
G01X10653Y7850D02*
G01X10653Y7723D01*
G01X10635Y7667D01*
G01X10598Y7632D01*
G01X10563Y7613D01*
G01X10507Y7594D01*
G01X10417Y7594D01*
G01X10363Y7613D01*
G01X10326Y7632D01*
G01X10289Y7667D01*
G01X10272Y7723D01*
G01X10272Y7850D01*
G01X10526Y7238D02*
G01X10472Y7257D01*
G01X10435Y7294D01*
G01X10417Y7348D01*
G01X10417Y7365D01*
G01X10435Y7421D01*
G01X10472Y7457D01*
G01X10526Y7475D01*
G01X10544Y7475D01*
G01X10598Y7457D01*
G01X10635Y7421D01*
G01X10653Y7365D01*
G01X10653Y7348D01*
G01X10635Y7294D01*
G01X10598Y7257D01*
G01X10526Y7238D01*
G01X10435Y7238D01*
G01X10344Y7257D01*
G01X10289Y7294D01*
G01X10272Y7348D01*
G01X10272Y7384D01*
G01X10289Y7438D01*
G01X10326Y7457D01*

%LPD*%
G36*
G01X22145Y3482D02*
G01X22127Y3484D01*
G01X22108Y3482D01*
G01X22090Y3477D01*
G01X22074Y3468D01*
G01X22060Y3457D01*
G01X22048Y3443D01*
G01X22039Y3426D01*
G01X22032Y3406D01*
G01X22031Y3384D01*
G01X22032Y3364D01*
G01X22039Y3345D01*
G01X22048Y3328D01*
G01X22060Y3314D01*
G01X22074Y3303D01*
G01X22090Y3294D01*
G01X22108Y3289D01*
G01X22127Y3288D01*
G01X22145Y3289D01*
G01X22163Y3294D01*
G01X22179Y3303D01*
G01X22194Y3314D01*
G01X22206Y3328D01*
G01X22215Y3345D01*
G01X22221Y3364D01*
G01X22222Y3384D01*
G01X22221Y3406D01*
G01X22215Y3426D01*
G01X22206Y3443D01*
G01X22194Y3457D01*
G01X22179Y3468D01*
G01X22163Y3477D01*
G01X22145Y3482D01*
G37*

%LPC*%
G36*
G01X22151Y3446D02*
G01X22127Y3451D01*
G01X22102Y3446D01*
G01X22084Y3432D01*
G01X22072Y3411D01*
G01X22068Y3384D01*
G01X22072Y3359D01*
G01X22084Y3339D01*
G01X22102Y3325D01*
G01X22127Y3321D01*
G01X22151Y3325D01*
G01X22170Y3339D01*
G01X22182Y3359D01*
G01X22186Y3384D01*
G01X22182Y3411D01*
G01X22170Y3432D01*
G01X22151Y3446D01*
G37*

%LPD*%
G01X1402Y5030D02*
G01X1402Y4786D01*
G01X1300Y4969D02*
G01X1505Y4846D01*
G01X1505Y4969D02*
G01X1300Y4846D01*
G01X1955Y5153D02*
G01X1955Y4725D01*
G01X1955Y5153D02*
G01X2139Y5153D01*
G01X2200Y5134D01*
G01X2219Y5113D01*
G01X2240Y5071D01*
G01X2240Y5030D01*
G01X2219Y4990D01*
G01X2200Y4969D01*
G01X2139Y4950D01*
G01X1955Y4950D01*
G01X2097Y4950D02*
G01X2240Y4725D01*
G01X2621Y5153D02*
G01X2417Y5153D01*
G01X2396Y4969D01*
G01X2417Y4990D01*
G01X2477Y5011D01*
G01X2539Y5011D01*
G01X2601Y4990D01*
G01X2642Y4950D01*
G01X2661Y4888D01*
G01X2661Y4846D01*
G01X2642Y4786D01*
G01X2601Y4744D01*
G01X2539Y4725D01*
G01X2477Y4725D01*
G01X2417Y4744D01*
G01X2396Y4765D01*
G01X2376Y4805D01*
G01X3336Y4950D02*
G01X3317Y4990D01*
G01X3255Y5011D01*
G01X3193Y5011D01*
G01X3132Y4990D01*
G01X3111Y4950D01*
G01X3132Y4909D01*
G01X3173Y4888D01*
G01X3276Y4867D01*
G01X3317Y4846D01*
G01X3336Y4805D01*
G01X3336Y4786D01*
G01X3317Y4744D01*
G01X3255Y4725D01*
G01X3193Y4725D01*
G01X3132Y4744D01*
G01X3111Y4786D01*
G01X3472Y5011D02*
G01X3472Y4725D01*
G01X3472Y4928D02*
G01X3534Y4990D01*
G01X3575Y5011D01*
G01X3635Y5011D01*
G01X3677Y4990D01*
G01X3697Y4928D01*
G01X3697Y4725D01*
G01X3697Y4928D02*
G01X3759Y4990D01*
G01X3800Y5011D01*
G01X3860Y5011D01*
G01X3902Y4990D01*
G01X3922Y4928D01*
G01X3922Y4725D01*
G01X4302Y5011D02*
G01X4302Y4725D01*
G01X4302Y4950D02*
G01X4261Y4990D01*
G01X4221Y5011D01*
G01X4160Y5011D01*
G01X4118Y4990D01*
G01X4077Y4950D01*
G01X4056Y4888D01*
G01X4056Y4846D01*
G01X4077Y4786D01*
G01X4118Y4744D01*
G01X4160Y4725D01*
G01X4221Y4725D01*
G01X4261Y4744D01*
G01X4302Y4786D01*
G01X4438Y5153D02*
G01X4438Y4725D01*
G01X4572Y5153D02*
G01X4572Y4725D01*
G01X5309Y5092D02*
G01X5268Y5134D01*
G01X5206Y5153D01*
G01X5125Y5153D01*
G01X5064Y5134D01*
G01X5022Y5092D01*
G01X5022Y5051D01*
G01X5043Y5011D01*
G01X5064Y4990D01*
G01X5105Y4969D01*
G01X5227Y4928D01*
G01X5268Y4909D01*
G01X5289Y4888D01*
G01X5309Y4846D01*
G01X5309Y4786D01*
G01X5268Y4744D01*
G01X5206Y4725D01*
G01X5125Y4725D01*
G01X5064Y4744D01*
G01X5022Y4786D01*
G01X5546Y5011D02*
G01X5505Y4990D01*
G01X5464Y4950D01*
G01X5443Y4888D01*
G01X5443Y4846D01*
G01X5464Y4786D01*
G01X5505Y4744D01*
G01X5546Y4725D01*
G01X5607Y4725D01*
G01X5648Y4744D01*
G01X5689Y4786D01*
G01X5710Y4846D01*
G01X5710Y4888D01*
G01X5689Y4950D01*
G01X5648Y4990D01*
G01X5607Y5011D01*
G01X5546Y5011D01*
G01X5988Y5153D02*
G01X5988Y4725D01*
G01X5844Y5153D02*
G01X6131Y5153D01*
G01X1300Y4161D02*
G01X1422Y3875D01*
G01X1544Y4161D02*
G01X1422Y3875D01*
G01X1926Y4161D02*
G01X1926Y3875D01*
G01X1926Y4100D02*
G01X1885Y4140D01*
G01X1843Y4161D01*
G01X1782Y4161D01*
G01X1742Y4140D01*
G01X1701Y4100D01*
G01X1680Y4038D01*
G01X1680Y3996D01*
G01X1701Y3936D01*
G01X1742Y3894D01*
G01X1782Y3875D01*
G01X1843Y3875D01*
G01X1885Y3894D01*
G01X1926Y3936D01*
G01X2060Y4303D02*
G01X2060Y3875D01*
G01X2196Y4161D02*
G01X2196Y3955D01*
G01X2215Y3894D01*
G01X2256Y3875D01*
G01X2318Y3875D01*
G01X2360Y3894D01*
G01X2421Y3955D01*
G01X2421Y4161D02*
G01X2421Y3875D01*
G01X2556Y4038D02*
G01X2801Y4038D01*
G01X2801Y4078D01*
G01X2781Y4119D01*
G01X2760Y4140D01*
G01X2719Y4161D01*
G01X2657Y4161D01*
G01X2617Y4140D01*
G01X2576Y4100D01*
G01X2556Y4038D01*
G01X2556Y3996D01*
G01X2576Y3936D01*
G01X2617Y3894D01*
G01X2657Y3875D01*
G01X2719Y3875D01*
G01X2760Y3894D01*
G01X2801Y3936D01*
G01X3313Y4303D02*
G01X3313Y3955D01*
G01X3332Y3894D01*
G01X3373Y3875D01*
G01X3414Y3875D01*
G01X3251Y4161D02*
G01X3394Y4161D01*
G01X3652Y4161D02*
G01X3610Y4140D01*
G01X3569Y4100D01*
G01X3550Y4038D01*
G01X3550Y3996D01*
G01X3569Y3936D01*
G01X3610Y3894D01*
G01X3652Y3875D01*
G01X3714Y3875D01*
G01X3755Y3894D01*
G01X3794Y3936D01*
G01X3815Y3996D01*
G01X3815Y4038D01*
G01X3794Y4100D01*
G01X3755Y4140D01*
G01X3714Y4161D01*
G01X3652Y4161D01*
G01X4265Y4161D02*
G01X4265Y3730D01*
G01X4265Y4100D02*
G01X4306Y4140D01*
G01X4347Y4161D01*
G01X4409Y4161D01*
G01X4450Y4140D01*
G01X4490Y4100D01*
G01X4510Y4038D01*
G01X4510Y3996D01*
G01X4490Y3936D01*
G01X4450Y3894D01*
G01X4409Y3875D01*
G01X4347Y3875D01*
G01X4306Y3894D01*
G01X4265Y3936D01*
G01X4646Y4161D02*
G01X4646Y3875D01*
G01X4646Y4038D02*
G01X4667Y4100D01*
G01X4707Y4140D01*
G01X4748Y4161D01*
G01X4810Y4161D01*
G01X4944Y4038D02*
G01X5189Y4038D01*
G01X5189Y4078D01*
G01X5169Y4119D01*
G01X5150Y4140D01*
G01X5109Y4161D01*
G01X5047Y4161D01*
G01X5006Y4140D01*
G01X4964Y4100D01*
G01X4944Y4038D01*
G01X4944Y3996D01*
G01X4964Y3936D01*
G01X5006Y3894D01*
G01X5047Y3875D01*
G01X5109Y3875D01*
G01X5150Y3894D01*
G01X5189Y3936D01*
G01X5325Y4161D02*
G01X5447Y3875D01*
G01X5571Y4161D02*
G01X5447Y3875D01*
G01X5706Y4038D02*
G01X5951Y4038D01*
G01X5951Y4078D01*
G01X5931Y4119D01*
G01X5910Y4140D01*
G01X5869Y4161D01*
G01X5807Y4161D01*
G01X5767Y4140D01*
G01X5726Y4100D01*
G01X5706Y4038D01*
G01X5706Y3996D01*
G01X5726Y3936D01*
G01X5767Y3894D01*
G01X5807Y3875D01*
G01X5869Y3875D01*
G01X5910Y3894D01*
G01X5951Y3936D01*
G01X6085Y4161D02*
G01X6085Y3875D01*
G01X6085Y4078D02*
G01X6147Y4140D01*
G01X6189Y4161D01*
G01X6250Y4161D01*
G01X6290Y4140D01*
G01X6310Y4078D01*
G01X6310Y3875D01*
G01X6507Y4303D02*
G01X6507Y3955D01*
G01X6527Y3894D01*
G01X6568Y3875D01*
G01X6610Y3875D01*
G01X6446Y4161D02*
G01X6589Y4161D01*
G01X1300Y3311D02*
G01X1300Y3025D01*
G01X1300Y3228D02*
G01X1360Y3290D01*
G01X1402Y3311D01*
G01X1464Y3311D01*
G01X1505Y3290D01*
G01X1525Y3228D01*
G01X1525Y3025D01*
G01X1761Y3311D02*
G01X1721Y3290D01*
G01X1680Y3250D01*
G01X1660Y3188D01*
G01X1660Y3146D01*
G01X1680Y3086D01*
G01X1721Y3044D01*
G01X1761Y3025D01*
G01X1823Y3025D01*
G01X1864Y3044D01*
G01X1905Y3086D01*
G01X1926Y3146D01*
G01X1926Y3188D01*
G01X1905Y3250D01*
G01X1864Y3290D01*
G01X1823Y3311D01*
G01X1761Y3311D01*
G01X2060Y3453D02*
G01X2081Y3434D01*
G01X2102Y3453D01*
G01X2081Y3475D01*
G01X2060Y3453D01*
G01X2081Y3311D02*
G01X2081Y3025D01*
G01X2461Y3250D02*
G01X2440Y3290D01*
G01X2380Y3311D01*
G01X2318Y3311D01*
G01X2256Y3290D01*
G01X2236Y3250D01*
G01X2256Y3209D01*
G01X2297Y3188D01*
G01X2400Y3167D01*
G01X2440Y3146D01*
G01X2461Y3105D01*
G01X2461Y3086D01*
G01X2440Y3044D01*
G01X2380Y3025D01*
G01X2318Y3025D01*
G01X2256Y3044D01*
G01X2236Y3086D01*
G01X2597Y3188D02*
G01X2842Y3188D01*
G01X2842Y3228D01*
G01X2822Y3269D01*
G01X2801Y3290D01*
G01X2760Y3311D01*
G01X2698Y3311D01*
G01X2657Y3290D01*
G01X2617Y3250D01*
G01X2597Y3188D01*
G01X2597Y3146D01*
G01X2617Y3086D01*
G01X2657Y3044D01*
G01X2698Y3025D01*
G01X2760Y3025D01*
G01X2801Y3044D01*
G01X2842Y3086D01*
G01X3394Y3311D02*
G01X3353Y3290D01*
G01X3313Y3250D01*
G01X3292Y3188D01*
G01X3292Y3146D01*
G01X3313Y3086D01*
G01X3353Y3044D01*
G01X3394Y3025D01*
G01X3456Y3025D01*
G01X3497Y3044D01*
G01X3538Y3086D01*
G01X3557Y3146D01*
G01X3557Y3188D01*
G01X3538Y3250D01*
G01X3497Y3290D01*
G01X3456Y3311D01*
G01X3394Y3311D01*
G01X3693Y3311D02*
G01X3693Y3025D01*
G01X3693Y3228D02*
G01X3755Y3290D01*
G01X3794Y3311D01*
G01X3856Y3311D01*
G01X3897Y3290D01*
G01X3918Y3228D01*
G01X3918Y3025D01*
G01X4368Y3453D02*
G01X4531Y3025D01*
G01X4694Y3453D02*
G01X4531Y3025D01*
G01X5136Y3351D02*
G01X5117Y3392D01*
G01X5076Y3434D01*
G01X5035Y3453D01*
G01X4952Y3453D01*
G01X4911Y3434D01*
G01X4871Y3392D01*
G01X4851Y3351D01*
G01X4830Y3290D01*
G01X4830Y3188D01*
G01X4851Y3126D01*
G01X4871Y3086D01*
G01X4911Y3044D01*
G01X4952Y3025D01*
G01X5035Y3025D01*
G01X5076Y3044D01*
G01X5117Y3086D01*
G01X5136Y3126D01*
G01X5578Y3351D02*
G01X5559Y3392D01*
G01X5518Y3434D01*
G01X5477Y3453D01*
G01X5394Y3453D01*
G01X5353Y3434D01*
G01X5313Y3392D01*
G01X5293Y3351D01*
G01X5272Y3290D01*
G01X5272Y3188D01*
G01X5293Y3126D01*
G01X5313Y3086D01*
G01X5353Y3044D01*
G01X5394Y3025D01*
G01X5477Y3025D01*
G01X5518Y3044D01*
G01X5559Y3086D01*
G01X5578Y3126D01*
G01X9256Y14636D02*
G01X9215Y14594D01*
G01X9196Y14534D01*
G01X9196Y14451D01*
G01X9215Y14390D01*
G01X9256Y14350D01*
G01X9297Y14350D01*
G01X9339Y14369D01*
G01X9360Y14390D01*
G01X9380Y14432D01*
G01X9421Y14555D01*
G01X9440Y14594D01*
G01X9461Y14615D01*
G01X9502Y14636D01*
G01X9564Y14636D01*
G01X9605Y14594D01*
G01X9625Y14534D01*
G01X9625Y14451D01*
G01X9605Y14390D01*
G01X9564Y14350D01*
G01X9461Y14771D02*
G01X9461Y15017D01*
G01X9421Y15017D01*
G01X9380Y14996D01*
G01X9360Y14976D01*
G01X9339Y14934D01*
G01X9339Y14873D01*
G01X9360Y14832D01*
G01X9400Y14792D01*
G01X9461Y14771D01*
G01X9502Y14771D01*
G01X9564Y14792D01*
G01X9605Y14832D01*
G01X9625Y14873D01*
G01X9625Y14934D01*
G01X9605Y14976D01*
G01X9564Y15017D01*
G01X9461Y15151D02*
G01X9461Y15396D01*
G01X9421Y15396D01*
G01X9380Y15376D01*
G01X9360Y15355D01*
G01X9339Y15315D01*
G01X9339Y15253D01*
G01X9360Y15213D01*
G01X9400Y15171D01*
G01X9461Y15151D01*
G01X9502Y15151D01*
G01X9564Y15171D01*
G01X9605Y15213D01*
G01X9625Y15253D01*
G01X9625Y15315D01*
G01X9605Y15355D01*
G01X9564Y15396D01*
G01X9196Y15846D02*
G01X9625Y15846D01*
G01X9196Y15846D02*
G01X9625Y16134D01*
G01X9196Y16134D02*
G01X9625Y16134D01*
G01X9339Y16371D02*
G01X9360Y16330D01*
G01X9400Y16288D01*
G01X9461Y16269D01*
G01X9502Y16269D01*
G01X9564Y16288D01*
G01X9605Y16330D01*
G01X9625Y16371D01*
G01X9625Y16432D01*
G01X9605Y16473D01*
G01X9564Y16513D01*
G01X9502Y16534D01*
G01X9461Y16534D01*
G01X9400Y16513D01*
G01X9360Y16473D01*
G01X9339Y16432D01*
G01X9339Y16371D01*
G01X9196Y16730D02*
G01X9543Y16730D01*
G01X9605Y16751D01*
G01X9625Y16792D01*
G01X9625Y16832D01*
G01X9339Y16669D02*
G01X9339Y16813D01*
G01X9461Y16967D02*
G01X9461Y17213D01*
G01X9421Y17213D01*
G01X9380Y17192D01*
G01X9360Y17173D01*
G01X9339Y17132D01*
G01X9339Y17069D01*
G01X9360Y17030D01*
G01X9400Y16988D01*
G01X9461Y16967D01*
G01X9502Y16967D01*
G01X9564Y16988D01*
G01X9605Y17030D01*
G01X9625Y17069D01*
G01X9625Y17132D01*
G01X9605Y17173D01*
G01X9564Y17213D01*
G01X9318Y17765D02*
G01X9564Y17765D01*
G01X9380Y17663D02*
G01X9502Y17867D01*
G01X9380Y17867D02*
G01X9502Y17663D01*
G01X8200Y4830D02*
G01X8150Y4880D01*
G01X8075Y4905D01*
G01X7975Y4905D01*
G01X7900Y4880D01*
G01X7850Y4830D01*
G01X7850Y4780D01*
G01X7875Y4730D01*
G01X7900Y4705D01*
G01X7950Y4680D01*
G01X8100Y4630D01*
G01X8150Y4605D01*
G01X8175Y4580D01*
G01X8200Y4530D01*
G01X8200Y4455D01*
G01X8150Y4405D01*
G01X8075Y4380D01*
G01X7975Y4380D01*
G01X7900Y4405D01*
G01X7850Y4455D01*
G01X8364Y4905D02*
G01X8364Y4380D01*
G01X8364Y4905D02*
G01X8539Y4905D01*
G01X8614Y4880D01*
G01X8664Y4830D01*
G01X8689Y4780D01*
G01X8714Y4705D01*
G01X8714Y4580D01*
G01X8689Y4505D01*
G01X8664Y4455D01*
G01X8614Y4405D01*
G01X8539Y4380D01*
G01X8364Y4380D01*
G01X9080Y4905D02*
G01X8880Y4380D01*
G01X9080Y4905D02*
G01X9280Y4380D01*
G01X8955Y4555D02*
G01X9205Y4555D01*
G01X8200Y3880D02*
G01X8150Y3930D01*
G01X8075Y3955D01*
G01X7975Y3955D01*
G01X7900Y3930D01*
G01X7850Y3880D01*
G01X7850Y3830D01*
G01X7875Y3780D01*
G01X7900Y3755D01*
G01X7950Y3730D01*
G01X8100Y3680D01*
G01X8150Y3655D01*
G01X8175Y3630D01*
G01X8200Y3580D01*
G01X8200Y3505D01*
G01X8150Y3455D01*
G01X8075Y3430D01*
G01X7975Y3430D01*
G01X7900Y3455D01*
G01X7850Y3505D01*
G01X8739Y3830D02*
G01X8714Y3880D01*
G01X8664Y3930D01*
G01X8614Y3955D01*
G01X8514Y3955D01*
G01X8464Y3930D01*
G01X8414Y3880D01*
G01X8389Y3830D01*
G01X8364Y3755D01*
G01X8364Y3630D01*
G01X8389Y3555D01*
G01X8414Y3505D01*
G01X8464Y3455D01*
G01X8514Y3430D01*
G01X8614Y3430D01*
G01X8664Y3455D01*
G01X8714Y3505D01*
G01X8739Y3555D01*
G01X8905Y3955D02*
G01X8905Y3430D01*
G01X8905Y3430D02*
G01X9205Y3430D01*
G01X7850Y3005D02*
G01X8050Y2480D01*
G01X8250Y3005D02*
G01X8050Y2480D01*
G01X8789Y2880D02*
G01X8764Y2930D01*
G01X8714Y2980D01*
G01X8664Y3005D01*
G01X8564Y3005D01*
G01X8514Y2980D01*
G01X8464Y2930D01*
G01X8439Y2880D01*
G01X8414Y2805D01*
G01X8414Y2680D01*
G01X8439Y2605D01*
G01X8464Y2555D01*
G01X8514Y2505D01*
G01X8564Y2480D01*
G01X8664Y2480D01*
G01X8714Y2505D01*
G01X8764Y2555D01*
G01X8789Y2605D01*
G01X9330Y2880D02*
G01X9305Y2930D01*
G01X9255Y2980D01*
G01X9205Y3005D01*
G01X9105Y3005D01*
G01X9055Y2980D01*
G01X9005Y2930D01*
G01X8980Y2880D01*
G01X8955Y2805D01*
G01X8955Y2680D01*
G01X8980Y2605D01*
G01X9005Y2555D01*
G01X9055Y2505D01*
G01X9105Y2480D01*
G01X9205Y2480D01*
G01X9255Y2505D01*
G01X9305Y2555D01*
G01X9330Y2605D01*
G01X8225Y1930D02*
G01X8200Y1980D01*
G01X8150Y2030D01*
G01X8100Y2055D01*
G01X8000Y2055D01*
G01X7950Y2030D01*
G01X7900Y1980D01*
G01X7875Y1930D01*
G01X7850Y1855D01*
G01X7850Y1730D01*
G01X7875Y1655D01*
G01X7900Y1605D01*
G01X7950Y1555D01*
G01X8000Y1530D01*
G01X8100Y1530D01*
G01X8150Y1555D01*
G01X8200Y1605D01*
G01X8225Y1655D01*
G01X8225Y1730D01*
G01X8100Y1730D02*
G01X8225Y1730D01*
G01X8389Y2055D02*
G01X8389Y1530D01*
G01X8389Y2055D02*
G01X8739Y1530D01*
G01X8739Y2055D02*
G01X8739Y1530D01*
G01X8905Y2055D02*
G01X8905Y1530D01*
G01X8905Y2055D02*
G01X9080Y2055D01*
G01X9155Y2030D01*
G01X9205Y1980D01*
G01X9230Y1930D01*
G01X9255Y1855D01*
G01X9255Y1730D01*
G01X9230Y1655D01*
G01X9205Y1605D01*
G01X9155Y1555D01*
G01X9080Y1530D01*
G01X8905Y1530D01*
G01X30535Y22394D02*
G01X30506Y22380D01*
G01X30477Y22352D01*
G01X30462Y22321D01*
G01X30462Y22263D01*
G01X30477Y22234D01*
G01X30506Y22205D01*
G01X30535Y22192D01*
G01X30578Y22177D01*
G01X30651Y22177D01*
G01X30695Y22192D01*
G01X30724Y22205D01*
G01X30753Y22234D01*
G01X30768Y22263D01*
G01X30768Y22321D01*
G01X30753Y22352D01*
G01X30724Y22380D01*
G01X30695Y22394D01*
G01X30651Y22394D01*
G01X30651Y22321D02*
G01X30651Y22394D01*
G01X30462Y22490D02*
G01X30768Y22490D01*
G01X30462Y22490D02*
G01X30768Y22694D01*
G01X30462Y22694D02*
G01X30768Y22694D01*
G01X30462Y22790D02*
G01X30768Y22790D01*
G01X30462Y22790D02*
G01X30462Y22892D01*
G01X30477Y22936D01*
G01X30506Y22965D01*
G01X30535Y22980D01*
G01X30578Y22994D01*
G01X30651Y22994D01*
G01X30695Y22980D01*
G01X30724Y22965D01*
G01X30753Y22936D01*
G01X30768Y22892D01*
G01X30768Y22790D01*
G01X29462Y22327D02*
G01X29768Y22327D01*
G01X29462Y22327D02*
G01X29768Y22442D01*
G01X29462Y22559D02*
G01X29768Y22442D01*
G01X29462Y22559D02*
G01X29768Y22559D01*
G01X29462Y22742D02*
G01X29477Y22713D01*
G01X29506Y22684D01*
G01X29535Y22669D01*
G01X29578Y22655D01*
G01X29651Y22655D01*
G01X29695Y22669D01*
G01X29724Y22684D01*
G01X29753Y22713D01*
G01X29768Y22742D01*
G01X29768Y22801D01*
G01X29753Y22830D01*
G01X29724Y22859D01*
G01X29695Y22873D01*
G01X29651Y22888D01*
G01X29578Y22888D01*
G01X29535Y22873D01*
G01X29506Y22859D01*
G01X29477Y22830D01*
G01X29462Y22801D01*
G01X29462Y22742D01*
G01X28462Y22127D02*
G01X28768Y22242D01*
G01X28462Y22359D02*
G01X28768Y22242D01*
G01X28535Y22673D02*
G01X28506Y22659D01*
G01X28477Y22630D01*
G01X28462Y22601D01*
G01X28462Y22542D01*
G01X28477Y22513D01*
G01X28506Y22484D01*
G01X28535Y22469D01*
G01X28578Y22455D01*
G01X28651Y22455D01*
G01X28695Y22469D01*
G01X28724Y22484D01*
G01X28753Y22513D01*
G01X28768Y22542D01*
G01X28768Y22601D01*
G01X28753Y22630D01*
G01X28724Y22659D01*
G01X28695Y22673D01*
G01X28535Y22988D02*
G01X28506Y22973D01*
G01X28477Y22944D01*
G01X28462Y22915D01*
G01X28462Y22857D01*
G01X28477Y22828D01*
G01X28506Y22798D01*
G01X28535Y22784D01*
G01X28578Y22769D01*
G01X28651Y22769D01*
G01X28695Y22784D01*
G01X28724Y22798D01*
G01X28753Y22828D01*
G01X28768Y22857D01*
G01X28768Y22915D01*
G01X28753Y22944D01*
G01X28724Y22973D01*
G01X28695Y22988D01*
G01X28462Y21427D02*
G01X28768Y21427D01*
G01X28462Y21427D02*
G01X28768Y21542D01*
G01X28462Y21659D02*
G01X28768Y21542D01*
G01X28462Y21659D02*
G01X28768Y21659D01*
G01X28462Y21755D02*
G01X28768Y21755D01*
G01X29506Y21380D02*
G01X29477Y21352D01*
G01X29462Y21307D01*
G01X29462Y21250D01*
G01X29477Y21205D01*
G01X29506Y21177D01*
G01X29535Y21177D01*
G01X29564Y21192D01*
G01X29578Y21205D01*
G01X29593Y21234D01*
G01X29622Y21321D01*
G01X29637Y21352D01*
G01X29651Y21365D01*
G01X29680Y21380D01*
G01X29724Y21380D01*
G01X29753Y21352D01*
G01X29768Y21307D01*
G01X29768Y21250D01*
G01X29753Y21205D01*
G01X29724Y21177D01*
G01X29535Y21694D02*
G01X29506Y21680D01*
G01X29477Y21651D01*
G01X29462Y21621D01*
G01X29462Y21563D01*
G01X29477Y21534D01*
G01X29506Y21505D01*
G01X29535Y21490D01*
G01X29578Y21477D01*
G01X29651Y21477D01*
G01X29695Y21490D01*
G01X29724Y21505D01*
G01X29753Y21534D01*
G01X29768Y21563D01*
G01X29768Y21621D01*
G01X29753Y21651D01*
G01X29724Y21680D01*
G01X29695Y21694D01*
G01X29462Y21790D02*
G01X29768Y21790D01*
G01X29462Y21994D02*
G01X29666Y21790D01*
G01X29593Y21863D02*
G01X29768Y21994D01*
G01X30512Y21177D02*
G01X30818Y21177D01*
G01X30512Y21177D02*
G01X30512Y21307D01*
G01X30527Y21352D01*
G01X30541Y21365D01*
G01X30570Y21380D01*
G01X30599Y21380D01*
G01X30628Y21365D01*
G01X30643Y21352D01*
G01X30658Y21307D01*
G01X30658Y21177D01*
G01X30658Y21278D02*
G01X30818Y21380D01*
G01X30556Y21680D02*
G01X30527Y21651D01*
G01X30512Y21607D01*
G01X30512Y21548D01*
G01X30527Y21505D01*
G01X30556Y21477D01*
G01X30585Y21477D01*
G01X30614Y21490D01*
G01X30628Y21505D01*
G01X30643Y21534D01*
G01X30672Y21621D01*
G01X30687Y21651D01*
G01X30701Y21665D01*
G01X30730Y21680D01*
G01X30774Y21680D01*
G01X30803Y21651D01*
G01X30818Y21607D01*
G01X30818Y21548D01*
G01X30803Y21505D01*
G01X30774Y21477D01*
G01X30512Y21878D02*
G01X30818Y21878D01*
G01X30512Y21776D02*
G01X30512Y21980D01*
G01X5300Y19203D02*
G01X5300Y18821D01*
G01X5300Y19203D02*
G01X5427Y19203D01*
G01X5481Y19184D01*
G01X5518Y19148D01*
G01X5535Y19113D01*
G01X5555Y19057D01*
G01X5555Y18967D01*
G01X5535Y18913D01*
G01X5518Y18876D01*
G01X5481Y18840D01*
G01X5427Y18821D01*
G01X5300Y18821D01*
G01X5675Y19076D02*
G01X5675Y18894D01*
G01X5693Y18840D01*
G01X5728Y18821D01*
G01X5784Y18821D01*
G01X5819Y18840D01*
G01X5875Y18894D01*
G01X5875Y19076D02*
G01X5875Y18821D01*
G01X6213Y19076D02*
G01X6213Y18821D01*
G01X6213Y19021D02*
G01X6176Y19057D01*
G01X6139Y19076D01*
G01X6085Y19076D01*
G01X6048Y19057D01*
G01X6013Y19021D01*
G01X5994Y18967D01*
G01X5994Y18930D01*
G01X6013Y18876D01*
G01X6048Y18840D01*
G01X6085Y18821D01*
G01X6139Y18821D01*
G01X6176Y18840D01*
G01X6213Y18876D01*
G01X6332Y19203D02*
G01X6332Y18821D01*
G01X3050Y20453D02*
G01X3050Y20071D01*
G01X3050Y20453D02*
G01X3177Y20453D01*
G01X3231Y20434D01*
G01X3268Y20398D01*
G01X3285Y20363D01*
G01X3305Y20307D01*
G01X3305Y20217D01*
G01X3285Y20163D01*
G01X3268Y20126D01*
G01X3231Y20090D01*
G01X3177Y20071D01*
G01X3050Y20071D01*
G01X3425Y20234D02*
G01X3752Y20234D01*
G01X4152Y20453D02*
G01X4152Y20071D01*
G01X4152Y20453D02*
G01X4278Y20453D01*
G01X4334Y20434D01*
G01X4369Y20398D01*
G01X4388Y20363D01*
G01X4406Y20307D01*
G01X4406Y20217D01*
G01X4388Y20163D01*
G01X4369Y20126D01*
G01X4334Y20090D01*
G01X4278Y20071D01*
G01X4152Y20071D01*
G01X4689Y20398D02*
G01X4689Y20071D01*
G01X4526Y20234D02*
G01X4853Y20234D01*
G01X5253Y20453D02*
G01X5253Y20071D01*
G01X5253Y20453D02*
G01X5507Y20071D01*
G01X5507Y20453D02*
G01X5507Y20071D01*
G01X5901Y20363D02*
G01X5882Y20398D01*
G01X5846Y20434D01*
G01X5810Y20453D01*
G01X5736Y20453D01*
G01X5701Y20434D01*
G01X5664Y20398D01*
G01X5646Y20363D01*
G01X5627Y20307D01*
G01X5627Y20217D01*
G01X5646Y20163D01*
G01X5664Y20126D01*
G01X5701Y20090D01*
G01X5736Y20071D01*
G01X5810Y20071D01*
G01X5846Y20090D01*
G01X5882Y20126D01*
G01X5901Y20163D01*
G01X20050Y20353D02*
G01X20050Y19971D01*
G01X20050Y20353D02*
G01X20177Y20353D01*
G01X20231Y20334D01*
G01X20268Y20298D01*
G01X20285Y20263D01*
G01X20305Y20207D01*
G01X20305Y20117D01*
G01X20285Y20063D01*
G01X20268Y20026D01*
G01X20231Y19990D01*
G01X20177Y19971D01*
G01X20050Y19971D01*
G01X20425Y20134D02*
G01X20752Y20134D01*
G01X21152Y20353D02*
G01X21152Y19971D01*
G01X21152Y20353D02*
G01X21278Y20353D01*
G01X21334Y20334D01*
G01X21369Y20298D01*
G01X21388Y20263D01*
G01X21406Y20207D01*
G01X21406Y20117D01*
G01X21388Y20063D01*
G01X21369Y20026D01*
G01X21334Y19990D01*
G01X21278Y19971D01*
G01X21152Y19971D01*
G01X21689Y20298D02*
G01X21689Y19971D01*
G01X21526Y20134D02*
G01X21853Y20134D01*
G01X22253Y20353D02*
G01X22253Y19971D01*
G01X22253Y20353D02*
G01X22507Y19971D01*
G01X22507Y20353D02*
G01X22507Y19971D01*
G01X22901Y20263D02*
G01X22882Y20298D01*
G01X22846Y20334D01*
G01X22810Y20353D01*
G01X22736Y20353D01*
G01X22701Y20334D01*
G01X22664Y20298D01*
G01X22646Y20263D01*
G01X22627Y20207D01*
G01X22627Y20117D01*
G01X22646Y20063D01*
G01X22664Y20026D01*
G01X22701Y19990D01*
G01X22736Y19971D01*
G01X22810Y19971D01*
G01X22846Y19990D01*
G01X22882Y20026D01*
G01X22901Y20063D01*
G01X12503Y8478D02*
G01X12475Y8507D01*
G01X12431Y8523D01*
G01X12372Y8523D01*
G01X12328Y8507D01*
G01X12300Y8478D01*
G01X12300Y8450D01*
G01X12314Y8421D01*
G01X12328Y8407D01*
G01X12357Y8392D01*
G01X12444Y8363D01*
G01X12475Y8348D01*
G01X12489Y8334D01*
G01X12503Y8305D01*
G01X12503Y8261D01*
G01X12475Y8232D01*
G01X12431Y8217D01*
G01X12372Y8217D01*
G01X12328Y8232D01*
G01X12300Y8261D01*
G01X12600Y8523D02*
G01X12600Y8217D01*
G01X12600Y8523D02*
G01X12701Y8523D01*
G01X12744Y8507D01*
G01X12773Y8478D01*
G01X12789Y8450D01*
G01X12802Y8407D01*
G01X12802Y8334D01*
G01X12789Y8290D01*
G01X12773Y8261D01*
G01X12744Y8232D01*
G01X12701Y8217D01*
G01X12600Y8217D01*
G01X13015Y8523D02*
G01X12898Y8217D01*
G01X13015Y8523D02*
G01X13131Y8217D01*
G01X12943Y8319D02*
G01X13088Y8319D01*
G01X13656Y8478D02*
G01X13627Y8507D01*
G01X13582Y8523D01*
G01X13525Y8523D01*
G01X13481Y8507D01*
G01X13452Y8478D01*
G01X13452Y8450D01*
G01X13467Y8421D01*
G01X13481Y8407D01*
G01X13510Y8392D01*
G01X13597Y8363D01*
G01X13627Y8348D01*
G01X13640Y8334D01*
G01X13656Y8305D01*
G01X13656Y8261D01*
G01X13627Y8232D01*
G01X13582Y8217D01*
G01X13525Y8217D01*
G01X13481Y8232D01*
G01X13452Y8261D01*
G01X13969Y8450D02*
G01X13955Y8478D01*
G01X13926Y8507D01*
G01X13897Y8523D01*
G01X13839Y8523D01*
G01X13810Y8507D01*
G01X13781Y8478D01*
G01X13765Y8450D01*
G01X13752Y8407D01*
G01X13752Y8334D01*
G01X13765Y8290D01*
G01X13781Y8261D01*
G01X13810Y8232D01*
G01X13839Y8217D01*
G01X13897Y8217D01*
G01X13926Y8232D01*
G01X13955Y8261D01*
G01X13969Y8290D01*
G01X14065Y8523D02*
G01X14065Y8217D01*
G01X14065Y8217D02*
G01X14239Y8217D01*
G01X14665Y8523D02*
G01X14550Y8217D01*
G01X14665Y8523D02*
G01X14782Y8217D01*
G01X14593Y8319D02*
G01X14739Y8319D01*
G01X15052Y8478D02*
G01X15039Y8507D01*
G01X14994Y8523D01*
G01X14965Y8523D01*
G01X14922Y8507D01*
G01X14893Y8465D01*
G01X14878Y8392D01*
G01X14878Y8319D01*
G01X14893Y8261D01*
G01X14922Y8232D01*
G01X14965Y8217D01*
G01X14981Y8217D01*
G01X15023Y8232D01*
G01X15052Y8261D01*
G01X15068Y8305D01*
G01X15068Y8319D01*
G01X15052Y8363D01*
G01X15023Y8392D01*
G01X14981Y8407D01*
G01X14965Y8407D01*
G01X14922Y8392D01*
G01X14893Y8363D01*
G01X14878Y8319D01*
G01X15727Y8523D02*
G01X15611Y8217D01*
G01X15727Y8523D02*
G01X15844Y8217D01*
G01X15655Y8319D02*
G01X15801Y8319D01*
G01X16143Y8523D02*
G01X15998Y8217D01*
G01X15940Y8523D02*
G01X16143Y8523D01*
G01X17977Y8300D02*
G01X18282Y8300D01*
G01X17977Y8300D02*
G01X18282Y8415D01*
G01X17977Y8532D02*
G01X18282Y8415D01*
G01X17977Y8532D02*
G01X18282Y8532D01*
G01X17977Y8715D02*
G01X17992Y8686D01*
G01X18021Y8657D01*
G01X18050Y8642D01*
G01X18093Y8628D01*
G01X18165Y8628D01*
G01X18210Y8642D01*
G01X18239Y8657D01*
G01X18268Y8686D01*
G01X18282Y8715D01*
G01X18282Y8773D01*
G01X18268Y8803D01*
G01X18239Y8832D01*
G01X18210Y8846D01*
G01X18165Y8861D01*
G01X18093Y8861D01*
G01X18050Y8846D01*
G01X18021Y8832D01*
G01X17992Y8803D01*
G01X17977Y8773D01*
G01X17977Y8715D01*
G01X17977Y9405D02*
G01X18282Y9405D01*
G01X17977Y9405D02*
G01X18282Y9521D01*
G01X17977Y9638D02*
G01X18282Y9521D01*
G01X17977Y9638D02*
G01X18282Y9638D01*
G01X17977Y9734D02*
G01X18282Y9734D01*
G01X18021Y10257D02*
G01X17992Y10228D01*
G01X17977Y10184D01*
G01X17977Y10126D01*
G01X17992Y10082D01*
G01X18021Y10053D01*
G01X18050Y10053D01*
G01X18078Y10069D01*
G01X18093Y10082D01*
G01X18107Y10111D01*
G01X18136Y10200D01*
G01X18152Y10228D01*
G01X18165Y10242D01*
G01X18194Y10257D01*
G01X18239Y10257D01*
G01X18268Y10228D01*
G01X18282Y10184D01*
G01X18282Y10126D01*
G01X18268Y10082D01*
G01X18239Y10053D01*
G01X18050Y10571D02*
G01X18021Y10557D01*
G01X17992Y10528D01*
G01X17977Y10498D01*
G01X17977Y10440D01*
G01X17992Y10411D01*
G01X18021Y10382D01*
G01X18050Y10367D01*
G01X18093Y10353D01*
G01X18165Y10353D01*
G01X18210Y10367D01*
G01X18239Y10382D01*
G01X18268Y10411D01*
G01X18282Y10440D01*
G01X18282Y10498D01*
G01X18268Y10528D01*
G01X18239Y10557D01*
G01X18210Y10571D01*
G01X17977Y10667D02*
G01X18282Y10667D01*
G01X17977Y10871D02*
G01X18181Y10667D01*
G01X18107Y10740D02*
G01X18282Y10871D01*
G01X24235Y21400D02*
G01X24221Y21428D01*
G01X24177Y21473D01*
G01X24482Y21473D01*
G01X24250Y22478D02*
G01X24235Y22478D01*
G01X24206Y22494D01*
G01X24192Y22507D01*
G01X24177Y22536D01*
G01X24177Y22596D01*
G01X24192Y22625D01*
G01X24206Y22638D01*
G01X24235Y22653D01*
G01X24264Y22653D01*
G01X24293Y22638D01*
G01X24336Y22609D01*
G01X24482Y22465D01*
G01X24482Y22667D01*
G01X19246Y18000D02*
G01X19627Y18000D01*
G01X19246Y18000D02*
G01X19246Y18163D01*
G01X19264Y18217D01*
G01X19282Y18236D01*
G01X19318Y18255D01*
G01X19355Y18255D01*
G01X19392Y18236D01*
G01X19410Y18217D01*
G01X19427Y18163D01*
G01X19427Y18000D01*
G01X19427Y18127D02*
G01X19627Y18255D01*
G01X19246Y18519D02*
G01X19627Y18375D01*
G01X19246Y18519D02*
G01X19627Y18665D01*
G01X19501Y18428D02*
G01X19501Y18611D01*
G01X19246Y18784D02*
G01X19627Y18876D01*
G01X19246Y18967D02*
G01X19627Y18876D01*
G01X19246Y18967D02*
G01X19627Y19057D01*
G01X19246Y19148D02*
G01X19627Y19057D01*
G01X8500Y22053D02*
G01X8500Y21671D01*
G01X8500Y21671D02*
G01X8718Y21671D01*
G01X8838Y22053D02*
G01X8838Y21671D01*
G01X8957Y22053D02*
G01X8957Y21671D01*
G01X8957Y22053D02*
G01X9213Y21671D01*
G01X9213Y22053D02*
G01X9213Y21671D01*
G01X9332Y22053D02*
G01X9332Y21671D01*
G01X9586Y22053D02*
G01X9332Y21798D01*
G01X9423Y21890D02*
G01X9586Y21671D01*
G01X1864Y22098D02*
G01X1864Y21771D01*
G01X1700Y21934D02*
G01X2027Y21934D01*
G01X2364Y22153D02*
G01X2184Y22153D01*
G01X2164Y21990D01*
G01X2184Y22007D01*
G01X2238Y22026D01*
G01X2293Y22026D01*
G01X2347Y22007D01*
G01X2384Y21971D01*
G01X2402Y21917D01*
G01X2402Y21880D01*
G01X2384Y21826D01*
G01X2347Y21790D01*
G01X2293Y21771D01*
G01X2238Y21771D01*
G01X2184Y21790D01*
G01X2164Y21807D01*
G01X2147Y21844D01*
G01X2522Y22153D02*
G01X2667Y21771D01*
G01X2813Y22153D02*
G01X2667Y21771D01*
G01X6005Y22063D02*
G01X5986Y22098D01*
G01X5951Y22134D01*
G01X5914Y22153D01*
G01X5842Y22153D01*
G01X5805Y22134D01*
G01X5768Y22098D01*
G01X5751Y22063D01*
G01X5732Y22007D01*
G01X5732Y21917D01*
G01X5751Y21863D01*
G01X5768Y21826D01*
G01X5805Y21790D01*
G01X5842Y21771D01*
G01X5914Y21771D01*
G01X5951Y21790D01*
G01X5986Y21826D01*
G01X6005Y21863D01*
G01X6005Y21917D01*
G01X5914Y21917D02*
G01X6005Y21917D01*
G01X6125Y22153D02*
G01X6125Y21771D01*
G01X6125Y22153D02*
G01X6380Y21771D01*
G01X6380Y22153D02*
G01X6380Y21771D01*
G01X6500Y22153D02*
G01X6500Y21771D01*
G01X6500Y22153D02*
G01X6627Y22153D01*
G01X6681Y22134D01*
G01X6718Y22098D01*
G01X6735Y22063D01*
G01X6755Y22007D01*
G01X6755Y21917D01*
G01X6735Y21863D01*
G01X6718Y21826D01*
G01X6681Y21790D01*
G01X6627Y21771D01*
G01X6500Y21771D01*
G01X18864Y21948D02*
G01X18864Y21621D01*
G01X18700Y21784D02*
G01X19027Y21784D01*
G01X19364Y22003D02*
G01X19184Y22003D01*
G01X19164Y21840D01*
G01X19184Y21857D01*
G01X19238Y21876D01*
G01X19293Y21876D01*
G01X19347Y21857D01*
G01X19384Y21821D01*
G01X19402Y21767D01*
G01X19402Y21730D01*
G01X19384Y21676D01*
G01X19347Y21640D01*
G01X19293Y21621D01*
G01X19238Y21621D01*
G01X19184Y21640D01*
G01X19164Y21657D01*
G01X19147Y21694D01*
G01X19522Y22003D02*
G01X19667Y21621D01*
G01X19813Y22003D02*
G01X19667Y21621D01*
G01X23005Y21913D02*
G01X22986Y21948D01*
G01X22951Y21984D01*
G01X22914Y22003D01*
G01X22842Y22003D01*
G01X22805Y21984D01*
G01X22768Y21948D01*
G01X22751Y21913D01*
G01X22732Y21857D01*
G01X22732Y21767D01*
G01X22751Y21713D01*
G01X22768Y21676D01*
G01X22805Y21640D01*
G01X22842Y21621D01*
G01X22914Y21621D01*
G01X22951Y21640D01*
G01X22986Y21676D01*
G01X23005Y21713D01*
G01X23005Y21767D01*
G01X22914Y21767D02*
G01X23005Y21767D01*
G01X23125Y22003D02*
G01X23125Y21621D01*
G01X23125Y22003D02*
G01X23380Y21621D01*
G01X23380Y22003D02*
G01X23380Y21621D01*
G01X23500Y22003D02*
G01X23500Y21621D01*
G01X23500Y22003D02*
G01X23627Y22003D01*
G01X23681Y21984D01*
G01X23718Y21948D01*
G01X23735Y21913D01*
G01X23755Y21857D01*
G01X23755Y21767D01*
G01X23735Y21713D01*
G01X23718Y21676D01*
G01X23681Y21640D01*
G01X23627Y21621D01*
G01X23500Y21621D01*
G01X11722Y20913D02*
G01X11705Y20948D01*
G01X11668Y20984D01*
G01X11631Y21003D01*
G01X11559Y21003D01*
G01X11522Y20984D01*
G01X11485Y20948D01*
G01X11468Y20913D01*
G01X11450Y20857D01*
G01X11450Y20767D01*
G01X11468Y20713D01*
G01X11485Y20676D01*
G01X11522Y20640D01*
G01X11559Y20621D01*
G01X11631Y20621D01*
G01X11668Y20640D01*
G01X11705Y20676D01*
G01X11722Y20713D01*
G01X11722Y20767D01*
G01X11631Y20767D02*
G01X11722Y20767D01*
G01X12675Y20913D02*
G01X12656Y20948D01*
G01X12621Y20984D01*
G01X12585Y21003D01*
G01X12511Y21003D01*
G01X12475Y20984D01*
G01X12439Y20948D01*
G01X12421Y20913D01*
G01X12402Y20857D01*
G01X12402Y20767D01*
G01X12421Y20713D01*
G01X12439Y20676D01*
G01X12475Y20640D01*
G01X12511Y20621D01*
G01X12585Y20621D01*
G01X12621Y20640D01*
G01X12656Y20676D01*
G01X12675Y20713D01*
G01X12675Y20767D01*
G01X12585Y20767D02*
G01X12675Y20767D01*
G01X13573Y21003D02*
G01X13392Y21003D01*
G01X13373Y20840D01*
G01X13392Y20857D01*
G01X13446Y20876D01*
G01X13501Y20876D01*
G01X13555Y20857D01*
G01X13592Y20821D01*
G01X13610Y20767D01*
G01X13610Y20730D01*
G01X13592Y20676D01*
G01X13555Y20640D01*
G01X13501Y20621D01*
G01X13446Y20621D01*
G01X13392Y20640D01*
G01X13373Y20657D01*
G01X13355Y20694D01*
G01X13730Y21003D02*
G01X13875Y20621D01*
G01X14021Y21003D02*
G01X13875Y20621D01*
G01X14421Y21003D02*
G01X14421Y20621D01*
G01X14421Y21003D02*
G01X14585Y21003D01*
G01X14639Y20984D01*
G01X14656Y20967D01*
G01X14675Y20930D01*
G01X14675Y20894D01*
G01X14656Y20857D01*
G01X14639Y20840D01*
G01X14585Y20821D01*
G01X14421Y20821D01*
G01X14547Y20821D02*
G01X14675Y20621D01*
G01X14794Y21003D02*
G01X15050Y20621D01*
G01X15050Y21003D02*
G01X14794Y20621D01*
G01X15577Y21003D02*
G01X15577Y20621D01*
G01X15450Y21003D02*
G01X15705Y21003D01*
G01X15825Y21003D02*
G01X16078Y20621D01*
G01X16078Y21003D02*
G01X15825Y20621D01*
G01X16478Y21003D02*
G01X16478Y20621D01*
G01X16478Y21003D02*
G01X16606Y21003D01*
G01X16660Y20984D01*
G01X16697Y20948D01*
G01X16714Y20913D01*
G01X16734Y20857D01*
G01X16734Y20767D01*
G01X16714Y20713D01*
G01X16697Y20676D01*
G01X16660Y20640D01*
G01X16606Y20621D01*
G01X16478Y20621D01*
G01X16981Y21003D02*
G01X16981Y20621D01*
G01X16853Y21003D02*
G01X17107Y21003D01*
G01X17227Y21003D02*
G01X17227Y20621D01*
G01X17227Y21003D02*
G01X17392Y21003D01*
G01X17446Y20984D01*
G01X17464Y20967D01*
G01X17482Y20930D01*
G01X17482Y20894D01*
G01X17464Y20857D01*
G01X17446Y20840D01*
G01X17392Y20821D01*
G01X17227Y20821D01*
G01X17355Y20821D02*
G01X17482Y20621D01*
G54D26*
G01X28900Y23855D02*
G01X28900Y23377D01*
G01X29390Y23740D02*
G01X29368Y23786D01*
G01X29322Y23832D01*
G01X29277Y23855D01*
G01X29185Y23855D01*
G01X29140Y23832D01*
G01X29094Y23786D01*
G01X29072Y23740D01*
G01X29050Y23673D01*
G01X29050Y23559D01*
G01X29072Y23490D01*
G01X29094Y23444D01*
G01X29140Y23400D01*
G01X29185Y23377D01*
G01X29277Y23377D01*
G01X29322Y23400D01*
G01X29368Y23444D01*
G01X29390Y23490D01*
G01X29859Y23786D02*
G01X29814Y23832D01*
G01X29744Y23855D01*
G01X29655Y23855D01*
G01X29585Y23832D01*
G01X29540Y23786D01*
G01X29540Y23740D01*
G01X29564Y23694D01*
G01X29585Y23673D01*
G01X29631Y23650D01*
G01X29768Y23605D01*
G01X29814Y23582D01*
G01X29835Y23559D01*
G01X29859Y23513D01*
G01X29859Y23444D01*
G01X29814Y23400D01*
G01X29744Y23377D01*
G01X29655Y23377D01*
G01X29585Y23400D01*
G01X29540Y23444D01*
G01X30009Y23855D02*
G01X30009Y23377D01*
G01X30009Y23855D02*
G01X30214Y23855D01*
G01X30281Y23832D01*
G01X30305Y23809D01*
G01X30327Y23763D01*
G01X30327Y23694D01*
G01X30305Y23650D01*
G01X30281Y23627D01*
G01X30214Y23605D01*
G01X30009Y23605D01*
G54D29*
G01X2350Y13253D02*
G01X2494Y12871D01*
G01X2640Y13253D02*
G01X2494Y12871D01*
G01X2925Y13198D02*
G01X2925Y12871D01*
G01X2760Y13034D02*
G01X3088Y13034D01*
G01X3488Y13253D02*
G01X3634Y12871D01*
G01X3778Y13253D02*
G01X3634Y12871D01*
G01X3898Y13034D02*
G01X4226Y13034D01*
G01X6859Y13163D02*
G01X6840Y13198D01*
G01X6805Y13234D01*
G01X6768Y13253D01*
G01X6694Y13253D01*
G01X6659Y13234D01*
G01X6622Y13198D01*
G01X6605Y13163D01*
G01X6585Y13107D01*
G01X6585Y13017D01*
G01X6605Y12963D01*
G01X6622Y12926D01*
G01X6659Y12890D01*
G01X6694Y12871D01*
G01X6768Y12871D01*
G01X6805Y12890D01*
G01X6840Y12926D01*
G01X6859Y12963D01*
G01X6859Y13017D01*
G01X6768Y13017D02*
G01X6859Y13017D01*
G01X7259Y13253D02*
G01X7405Y12871D01*
G01X7550Y13253D02*
G01X7405Y12871D01*
G01X7943Y13163D02*
G01X7925Y13198D01*
G01X7888Y13234D01*
G01X7852Y13253D01*
G01X7778Y13253D01*
G01X7743Y13234D01*
G01X7706Y13198D01*
G01X7688Y13163D01*
G01X7669Y13107D01*
G01X7669Y13017D01*
G01X7688Y12963D01*
G01X7706Y12926D01*
G01X7743Y12890D01*
G01X7778Y12871D01*
G01X7852Y12871D01*
G01X7888Y12890D01*
G01X7925Y12926D01*
G01X7943Y12963D01*
G01X8335Y13163D02*
G01X8317Y13198D01*
G01X8281Y13234D01*
G01X8244Y13253D01*
G01X8172Y13253D01*
G01X8135Y13234D01*
G01X8098Y13198D01*
G01X8081Y13163D01*
G01X8063Y13107D01*
G01X8063Y13017D01*
G01X8081Y12963D01*
G01X8098Y12926D01*
G01X8135Y12890D01*
G01X8172Y12871D01*
G01X8244Y12871D01*
G01X8281Y12890D01*
G01X8317Y12926D01*
G01X8335Y12963D01*
G01X19996Y11044D02*
G01X20377Y10900D01*
G01X19996Y11044D02*
G01X20377Y11190D01*
G01X20251Y10955D02*
G01X20251Y11136D01*
G01X19996Y11419D02*
G01X20014Y11365D01*
G01X20068Y11328D01*
G01X20160Y11311D01*
G01X20214Y11311D01*
G01X20305Y11328D01*
G01X20360Y11365D01*
G01X20377Y11419D01*
G01X20377Y11455D01*
G01X20360Y11511D01*
G01X20305Y11546D01*
G01X20214Y11565D01*
G01X20160Y11565D01*
G01X20068Y11546D01*
G01X20014Y11511D01*
G01X19996Y11455D01*
G01X19996Y11419D01*
G01X19996Y12111D02*
G01X20377Y11965D01*
G01X19996Y12111D02*
G01X20377Y12255D01*
G01X20251Y12019D02*
G01X20251Y12201D01*
G01X20068Y12376D02*
G01X20051Y12413D01*
G01X19996Y12467D01*
G01X20377Y12467D01*
G01X19996Y13013D02*
G01X20377Y12867D01*
G01X19996Y13013D02*
G01X20377Y13157D01*
G01X20251Y12921D02*
G01X20251Y13103D01*
G01X20086Y13296D02*
G01X20068Y13296D01*
G01X20032Y13315D01*
G01X20014Y13332D01*
G01X19996Y13369D01*
G01X19996Y13442D01*
G01X20014Y13478D01*
G01X20032Y13496D01*
G01X20068Y13515D01*
G01X20105Y13515D01*
G01X20142Y13496D01*
G01X20196Y13459D01*
G01X20377Y13278D01*
G01X20377Y13532D01*
G01X19996Y14078D02*
G01X20377Y13932D01*
G01X19996Y14078D02*
G01X20377Y14223D01*
G01X20251Y13986D02*
G01X20251Y14169D01*
G01X19996Y14380D02*
G01X19996Y14580D01*
G01X20142Y14471D01*
G01X20142Y14525D01*
G01X20160Y14561D01*
G01X20177Y14580D01*
G01X20232Y14598D01*
G01X20268Y14598D01*
G01X20323Y14580D01*
G01X20360Y14544D01*
G01X20377Y14488D01*
G01X20377Y14434D01*
G01X20360Y14380D01*
G01X20342Y14361D01*
G01X20305Y14344D01*
G01X11950Y6953D02*
G01X11950Y6571D01*
G01X11950Y6953D02*
G01X12077Y6953D01*
G01X12131Y6934D01*
G01X12168Y6898D01*
G01X12185Y6863D01*
G01X12205Y6807D01*
G01X12205Y6717D01*
G01X12185Y6663D01*
G01X12168Y6626D01*
G01X12131Y6590D01*
G01X12077Y6571D01*
G01X11950Y6571D01*
G01X12414Y6953D02*
G01X12360Y6934D01*
G01X12343Y6898D01*
G01X12343Y6863D01*
G01X12360Y6826D01*
G01X12397Y6807D01*
G01X12469Y6790D01*
G01X12525Y6771D01*
G01X12560Y6734D01*
G01X12578Y6698D01*
G01X12578Y6644D01*
G01X12560Y6607D01*
G01X12543Y6590D01*
G01X12488Y6571D01*
G01X12414Y6571D01*
G01X12360Y6590D01*
G01X12343Y6607D01*
G01X12325Y6644D01*
G01X12325Y6698D01*
G01X12343Y6734D01*
G01X12378Y6771D01*
G01X12434Y6790D01*
G01X12506Y6807D01*
G01X12543Y6826D01*
G01X12560Y6863D01*
G01X12560Y6898D01*
G01X12543Y6934D01*
G01X12488Y6953D01*
G01X12414Y6953D01*
G01X12978Y6953D02*
G01X12978Y6571D01*
G01X12978Y6953D02*
G01X13106Y6953D01*
G01X13160Y6934D01*
G01X13197Y6898D01*
G01X13214Y6863D01*
G01X13234Y6807D01*
G01X13234Y6717D01*
G01X13214Y6663D01*
G01X13197Y6626D01*
G01X13160Y6590D01*
G01X13106Y6571D01*
G01X12978Y6571D01*
G01X13607Y6953D02*
G01X13426Y6571D01*
G01X13353Y6953D02*
G01X13607Y6953D01*
G01X14007Y6953D02*
G01X14007Y6571D01*
G01X14007Y6953D02*
G01X14135Y6953D01*
G01X14189Y6934D01*
G01X14226Y6898D01*
G01X14244Y6863D01*
G01X14263Y6807D01*
G01X14263Y6717D01*
G01X14244Y6663D01*
G01X14226Y6626D01*
G01X14189Y6590D01*
G01X14135Y6571D01*
G01X14007Y6571D01*
G01X14601Y6953D02*
G01X14418Y6953D01*
G01X14401Y6790D01*
G01X14418Y6807D01*
G01X14473Y6826D01*
G01X14527Y6826D01*
G01X14582Y6807D01*
G01X14618Y6771D01*
G01X14636Y6717D01*
G01X14636Y6680D01*
G01X14618Y6626D01*
G01X14582Y6590D01*
G01X14527Y6571D01*
G01X14473Y6571D01*
G01X14418Y6590D01*
G01X14401Y6607D01*
G01X14382Y6644D01*
G01X15036Y6953D02*
G01X15036Y6571D01*
G01X15036Y6953D02*
G01X15164Y6953D01*
G01X15218Y6934D01*
G01X15255Y6898D01*
G01X15273Y6863D01*
G01X15292Y6807D01*
G01X15292Y6717D01*
G01X15273Y6663D01*
G01X15255Y6626D01*
G01X15218Y6590D01*
G01X15164Y6571D01*
G01X15036Y6571D01*
G01X15447Y6953D02*
G01X15647Y6953D01*
G01X15539Y6807D01*
G01X15593Y6807D01*
G01X15630Y6790D01*
G01X15647Y6771D01*
G01X15665Y6717D01*
G01X15665Y6680D01*
G01X15647Y6626D01*
G01X15611Y6590D01*
G01X15556Y6571D01*
G01X15502Y6571D01*
G01X15447Y6590D01*
G01X15430Y6607D01*
G01X15411Y6644D01*
G01X16065Y6953D02*
G01X16065Y6571D01*
G01X16065Y6953D02*
G01X16193Y6953D01*
G01X16247Y6934D01*
G01X16285Y6898D01*
G01X16302Y6863D01*
G01X16321Y6807D01*
G01X16321Y6717D01*
G01X16302Y6663D01*
G01X16285Y6626D01*
G01X16247Y6590D01*
G01X16193Y6571D01*
G01X16065Y6571D01*
G01X16459Y6863D02*
G01X16459Y6880D01*
G01X16477Y6917D01*
G01X16494Y6934D01*
G01X16531Y6953D01*
G01X16605Y6953D01*
G01X16640Y6934D01*
G01X16659Y6917D01*
G01X16677Y6880D01*
G01X16677Y6844D01*
G01X16659Y6807D01*
G01X16622Y6753D01*
G01X16440Y6571D01*
G01X16694Y6571D01*
G01X4450Y12105D02*
G01X4450Y11627D01*
G01X4600Y12105D02*
G01X4600Y11627D01*
G01X4600Y12105D02*
G01X4918Y11627D01*
G01X4918Y12105D02*
G01X4918Y11627D01*
G01X5250Y12105D02*
G01X5068Y11627D01*
G01X5250Y12105D02*
G01X5431Y11627D01*
G01X5135Y11786D02*
G01X5364Y11786D01*
G01X5605Y11991D02*
G01X5605Y12014D01*
G01X5627Y12059D01*
G01X5650Y12082D01*
G01X5694Y12105D01*
G01X5785Y12105D01*
G01X5831Y12082D01*
G01X5855Y12059D01*
G01X5877Y12014D01*
G01X5877Y11968D01*
G01X5855Y11923D01*
G01X5809Y11855D01*
G01X5581Y11627D01*
G01X5900Y11627D01*
G01X6050Y12014D02*
G01X6094Y12036D01*
G01X6164Y12105D01*
G01X6164Y11627D01*
G01X6609Y11945D02*
G01X6585Y11877D01*
G01X6540Y11832D01*
G01X6472Y11809D01*
G01X6450Y11809D01*
G01X6381Y11832D01*
G01X6335Y11877D01*
G01X6314Y11945D01*
G01X6314Y11968D01*
G01X6335Y12036D01*
G01X6381Y12082D01*
G01X6450Y12105D01*
G01X6472Y12105D01*
G01X6540Y12082D01*
G01X6585Y12036D01*
G01X6609Y11945D01*
G01X6609Y11832D01*
G01X6585Y11718D01*
G01X6540Y11650D01*
G01X6472Y11627D01*
G01X6427Y11627D01*
G01X6359Y11650D01*
G01X6335Y11695D01*
G01X2950Y24305D02*
G01X2950Y23963D01*
G01X2972Y23894D01*
G01X3018Y23850D01*
G01X3085Y23827D01*
G01X3131Y23827D01*
G01X3200Y23850D01*
G01X3244Y23894D01*
G01X3268Y23963D01*
G01X3268Y24305D01*
G01X3735Y24236D02*
G01X3690Y24282D01*
G01X3622Y24305D01*
G01X3531Y24305D01*
G01X3464Y24282D01*
G01X3418Y24236D01*
G01X3418Y24190D01*
G01X3440Y24144D01*
G01X3464Y24123D01*
G01X3509Y24100D01*
G01X3644Y24055D01*
G01X3690Y24032D01*
G01X3714Y24009D01*
G01X3735Y23963D01*
G01X3735Y23894D01*
G01X3690Y23850D01*
G01X3622Y23827D01*
G01X3531Y23827D01*
G01X3464Y23850D01*
G01X3418Y23894D01*
G01X3885Y24305D02*
G01X3885Y23827D01*
G01X3885Y24305D02*
G01X4090Y24305D01*
G01X4159Y24282D01*
G01X4181Y24259D01*
G01X4205Y24213D01*
G01X4205Y24167D01*
G01X4181Y24123D01*
G01X4159Y24100D01*
G01X4090Y24077D01*
G01X3885Y24077D02*
G01X4090Y24077D01*
G01X4159Y24055D01*
G01X4181Y24032D01*
G01X4205Y23986D01*
G01X4205Y23917D01*
G01X4181Y23873D01*
G01X4159Y23850D01*
G01X4090Y23827D01*
G01X3885Y23827D01*
G01X4705Y24305D02*
G01X4705Y23827D01*
G01X4855Y24305D02*
G01X4855Y23827D01*
G01X4855Y24305D02*
G01X5172Y23827D01*
G01X5172Y24305D02*
G01X5172Y23827D01*
G01X19750Y24255D02*
G01X19750Y23913D01*
G01X19772Y23844D01*
G01X19818Y23800D01*
G01X19885Y23777D01*
G01X19931Y23777D01*
G01X20000Y23800D01*
G01X20044Y23844D01*
G01X20068Y23913D01*
G01X20068Y24255D01*
G01X20535Y24186D02*
G01X20490Y24232D01*
G01X20422Y24255D01*
G01X20331Y24255D01*
G01X20264Y24232D01*
G01X20218Y24186D01*
G01X20218Y24140D01*
G01X20240Y24094D01*
G01X20264Y24073D01*
G01X20309Y24050D01*
G01X20444Y24005D01*
G01X20490Y23982D01*
G01X20514Y23959D01*
G01X20535Y23913D01*
G01X20535Y23844D01*
G01X20490Y23800D01*
G01X20422Y23777D01*
G01X20331Y23777D01*
G01X20264Y23800D01*
G01X20218Y23844D01*
G01X20685Y24255D02*
G01X20685Y23777D01*
G01X20685Y24255D02*
G01X20890Y24255D01*
G01X20959Y24232D01*
G01X20981Y24209D01*
G01X21005Y24163D01*
G01X21005Y24117D01*
G01X20981Y24073D01*
G01X20959Y24050D01*
G01X20890Y24027D01*
G01X20685Y24027D02*
G01X20890Y24027D01*
G01X20959Y24005D01*
G01X20981Y23982D01*
G01X21005Y23936D01*
G01X21005Y23867D01*
G01X20981Y23823D01*
G01X20959Y23800D01*
G01X20890Y23777D01*
G01X20685Y23777D01*
G01X21640Y24255D02*
G01X21594Y24232D01*
G01X21550Y24186D01*
G01X21527Y24140D01*
G01X21505Y24073D01*
G01X21505Y23959D01*
G01X21527Y23890D01*
G01X21550Y23844D01*
G01X21594Y23800D01*
G01X21640Y23777D01*
G01X21731Y23777D01*
G01X21777Y23800D01*
G01X21822Y23844D01*
G01X21844Y23890D01*
G01X21868Y23959D01*
G01X21868Y24073D01*
G01X21844Y24140D01*
G01X21822Y24186D01*
G01X21777Y24232D01*
G01X21731Y24255D01*
G01X21640Y24255D01*
G01X22018Y24255D02*
G01X22018Y23913D01*
G01X22040Y23844D01*
G01X22085Y23800D01*
G01X22155Y23777D01*
G01X22200Y23777D01*
G01X22268Y23800D01*
G01X22314Y23844D01*
G01X22335Y23913D01*
G01X22335Y24255D01*
G01X22644Y24255D02*
G01X22644Y23777D01*
G01X22485Y24255D02*
G01X22805Y24255D01*
G01X4885Y15472D02*
G01X4844Y15513D01*
G01X4784Y15533D01*
G01X4702Y15533D01*
G01X4640Y15513D01*
G01X4600Y15472D01*
G01X4600Y15431D01*
G01X4619Y15390D01*
G01X4640Y15369D01*
G01X4681Y15349D01*
G01X4805Y15308D01*
G01X4844Y15288D01*
G01X4865Y15267D01*
G01X4885Y15226D01*
G01X4885Y15165D01*
G01X4844Y15124D01*
G01X4784Y15104D01*
G01X4702Y15104D01*
G01X4640Y15124D01*
G01X4600Y15165D01*
G01X5021Y15533D02*
G01X5042Y15513D01*
G01X5061Y15533D01*
G01X5042Y15554D01*
G01X5021Y15533D01*
G01X5042Y15390D02*
G01X5042Y15104D01*
G01X5402Y15533D02*
G01X5197Y15247D01*
G01X5503Y15247D01*
G01X5402Y15533D02*
G01X5402Y15104D01*
G01X5885Y15533D02*
G01X5680Y15533D01*
G01X5660Y15349D01*
G01X5680Y15369D01*
G01X5740Y15390D01*
G01X5802Y15390D01*
G01X5864Y15369D01*
G01X5905Y15329D01*
G01X5925Y15267D01*
G01X5925Y15226D01*
G01X5905Y15165D01*
G01X5864Y15124D01*
G01X5802Y15104D01*
G01X5740Y15104D01*
G01X5680Y15124D01*
G01X5660Y15144D01*
G01X5639Y15185D01*
G01X6326Y15390D02*
G01X6306Y15329D01*
G01X6264Y15288D01*
G01X6203Y15267D01*
G01X6182Y15267D01*
G01X6122Y15288D01*
G01X6081Y15329D01*
G01X6060Y15390D01*
G01X6060Y15410D01*
G01X6081Y15472D01*
G01X6122Y15513D01*
G01X6182Y15533D01*
G01X6203Y15533D01*
G01X6264Y15513D01*
G01X6306Y15472D01*
G01X6326Y15390D01*
G01X6326Y15288D01*
G01X6306Y15185D01*
G01X6264Y15124D01*
G01X6203Y15104D01*
G01X6163Y15104D01*
G01X6101Y15124D01*
G01X6081Y15165D01*
G01X6727Y15390D02*
G01X6706Y15329D01*
G01X6665Y15288D01*
G01X6605Y15267D01*
G01X6584Y15267D01*
G01X6522Y15288D01*
G01X6481Y15329D01*
G01X6460Y15390D01*
G01X6460Y15410D01*
G01X6481Y15472D01*
G01X6522Y15513D01*
G01X6584Y15533D01*
G01X6605Y15533D01*
G01X6665Y15513D01*
G01X6706Y15472D01*
G01X6727Y15390D01*
G01X6727Y15288D01*
G01X6706Y15185D01*
G01X6665Y15124D01*
G01X6605Y15104D01*
G01X6564Y15104D01*
G01X6502Y15124D01*
G01X6481Y15165D01*
G01X9964Y2498D02*
G01X9964Y2171D01*
G01X9800Y2334D02*
G01X10127Y2334D01*
G01X11864Y2498D02*
G01X11864Y2171D01*
G01X11700Y2334D02*
G01X12027Y2334D01*
G01X13564Y2498D02*
G01X13564Y2171D01*
G01X13400Y2334D02*
G01X13727Y2334D01*
G01X15414Y2498D02*
G01X15414Y2171D01*
G01X15250Y2334D02*
G01X15577Y2334D01*
G01X17364Y2498D02*
G01X17364Y2171D01*
G01X17200Y2334D02*
G01X17527Y2334D01*
G01X17550Y703D02*
G01X17550Y321D01*
G01X17550Y703D02*
G01X17714Y703D01*
G01X17768Y684D01*
G01X17785Y667D01*
G01X17805Y630D01*
G01X17805Y594D01*
G01X17785Y557D01*
G01X17768Y540D01*
G01X17714Y521D01*
G01X17550Y521D02*
G01X17714Y521D01*
G01X17768Y503D01*
G01X17785Y484D01*
G01X17805Y448D01*
G01X17805Y394D01*
G01X17785Y357D01*
G01X17768Y340D01*
G01X17714Y321D01*
G01X17550Y321D01*
G01X18052Y703D02*
G01X18052Y321D01*
G01X17925Y703D02*
G01X18178Y703D01*
G01X15672Y613D02*
G01X15655Y648D01*
G01X15618Y684D01*
G01X15581Y703D01*
G01X15509Y703D01*
G01X15472Y684D01*
G01X15435Y648D01*
G01X15418Y613D01*
G01X15400Y557D01*
G01X15400Y467D01*
G01X15418Y413D01*
G01X15435Y376D01*
G01X15472Y340D01*
G01X15509Y321D01*
G01X15581Y321D01*
G01X15618Y340D01*
G01X15655Y376D01*
G01X15672Y413D01*
G01X15793Y703D02*
G01X15793Y321D01*
G01X16047Y703D02*
G01X16047Y321D01*
G01X15793Y521D02*
G01X16047Y521D01*
G01X16439Y613D02*
G01X16422Y648D01*
G01X16385Y684D01*
G01X16348Y703D01*
G01X16276Y703D01*
G01X16239Y684D01*
G01X16203Y648D01*
G01X16185Y613D01*
G01X16167Y557D01*
G01X16167Y467D01*
G01X16185Y413D01*
G01X16203Y376D01*
G01X16239Y340D01*
G01X16276Y321D01*
G01X16348Y321D01*
G01X16385Y340D01*
G01X16422Y376D01*
G01X16439Y413D01*
G01X16439Y467D01*
G01X16348Y467D02*
G01X16439Y467D01*
G01X13550Y703D02*
G01X13550Y321D01*
G01X13550Y703D02*
G01X13714Y703D01*
G01X13768Y684D01*
G01X13785Y667D01*
G01X13805Y630D01*
G01X13805Y576D01*
G01X13785Y540D01*
G01X13768Y521D01*
G01X13714Y503D01*
G01X13550Y503D01*
G01X13925Y703D02*
G01X14014Y321D01*
G01X14106Y703D02*
G01X14014Y321D01*
G01X14106Y703D02*
G01X14197Y321D01*
G01X14288Y703D02*
G01X14197Y321D01*
G01X14407Y703D02*
G01X14407Y321D01*
G01X14407Y703D02*
G01X14572Y703D01*
G01X14626Y684D01*
G01X14644Y667D01*
G01X14663Y630D01*
G01X14663Y594D01*
G01X14644Y557D01*
G01X14626Y540D01*
G01X14572Y521D01*
G01X14407Y521D01*
G01X14535Y521D02*
G01X14663Y321D01*

%LPD*%
G36*
G01X10293Y776D02*
G01X10272Y778D01*
G01X10247Y775D01*
G01X10224Y766D01*
G01X10202Y753D01*
G01X10184Y736D01*
G01X10168Y714D01*
G01X10156Y690D01*
G01X10149Y662D01*
G01X10147Y632D01*
G01X10150Y601D01*
G01X10158Y571D01*
G01X10172Y543D01*
G01X10188Y518D01*
G01X10207Y495D01*
G01X10226Y473D01*
G01X10246Y454D01*
G01X10284Y416D01*
G01X10304Y395D01*
G01X10324Y373D01*
G01X10343Y351D01*
G01X10360Y330D01*
G01X10376Y310D01*
G01X10389Y293D01*
G01X10398Y278D01*
G01X10399Y277D01*
G01X10400Y277D01*
G01X10401Y278D01*
G01X10410Y293D01*
G01X10423Y310D01*
G01X10439Y330D01*
G01X10456Y351D01*
G01X10475Y373D01*
G01X10495Y395D01*
G01X10515Y416D01*
G01X10553Y454D01*
G01X10573Y473D01*
G01X10592Y494D01*
G01X10611Y518D01*
G01X10627Y543D01*
G01X10641Y571D01*
G01X10649Y600D01*
G01X10652Y632D01*
G01X10650Y662D01*
G01X10643Y690D01*
G01X10631Y714D01*
G01X10615Y736D01*
G01X10597Y753D01*
G01X10575Y766D01*
G01X10552Y775D01*
G01X10527Y778D01*
G01X10506Y776D01*
G01X10486Y772D01*
G01X10467Y765D01*
G01X10450Y754D01*
G01X10434Y741D01*
G01X10421Y724D01*
G01X10410Y705D01*
G01X10402Y682D01*
G01X10402Y680D01*
G01X10401Y678D01*
G01X10401Y677D01*
G01X10400Y676D01*
G01X10398Y677D01*
G01X10398Y678D01*
G01X10397Y680D01*
G01X10397Y682D01*
G01X10388Y705D01*
G01X10377Y724D01*
G01X10364Y741D01*
G01X10349Y754D01*
G01X10332Y765D01*
G01X10313Y772D01*
G01X10293Y776D01*
G37*

%LPD*%
G01X3040Y11340D02*
G01X3018Y11386D01*
G01X2972Y11432D01*
G01X2927Y11455D01*
G01X2835Y11455D01*
G01X2790Y11432D01*
G01X2744Y11386D01*
G01X2722Y11340D01*
G01X2700Y11273D01*
G01X2700Y11159D01*
G01X2722Y11090D01*
G01X2744Y11044D01*
G01X2790Y11000D01*
G01X2835Y10976D01*
G01X2927Y10976D01*
G01X2972Y11000D01*
G01X3018Y11044D01*
G01X3040Y11090D01*
G01X3190Y11294D02*
G01X3190Y11067D01*
G01X3214Y11000D01*
G01X3259Y10976D01*
G01X3327Y10976D01*
G01X3372Y11000D01*
G01X3440Y11067D01*
G01X3440Y11294D02*
G01X3440Y10976D01*
G01X3590Y11294D02*
G01X3590Y10976D01*
G01X3590Y11159D02*
G01X3614Y11226D01*
G01X3659Y11273D01*
G01X3705Y11294D01*
G01X3772Y11294D01*
G01X3922Y11294D02*
G01X3922Y10976D01*
G01X3922Y11159D02*
G01X3944Y11226D01*
G01X3990Y11273D01*
G01X4035Y11294D01*
G01X4105Y11294D01*
G01X4255Y11159D02*
G01X4527Y11159D01*
G01X4527Y11205D01*
G01X4505Y11250D01*
G01X4481Y11273D01*
G01X4435Y11294D01*
G01X4368Y11294D01*
G01X4322Y11273D01*
G01X4277Y11226D01*
G01X4255Y11159D01*
G01X4255Y11113D01*
G01X4277Y11044D01*
G01X4322Y11000D01*
G01X4368Y10976D01*
G01X4435Y10976D01*
G01X4481Y11000D01*
G01X4527Y11044D01*
G01X4677Y11294D02*
G01X4677Y10976D01*
G01X4677Y11205D02*
G01X4744Y11273D01*
G01X4790Y11294D01*
G01X4859Y11294D01*
G01X4905Y11273D01*
G01X4927Y11205D01*
G01X4927Y10976D01*
G01X5144Y11455D02*
G01X5144Y11067D01*
G01X5168Y11000D01*
G01X5214Y10976D01*
G01X5259Y10976D01*
G01X5077Y11294D02*
G01X5235Y11294D01*
G01X5759Y11294D02*
G01X5759Y10976D01*
G01X5759Y11205D02*
G01X5827Y11273D01*
G01X5872Y11294D01*
G01X5940Y11294D01*
G01X5985Y11273D01*
G01X6009Y11205D01*
G01X6009Y10976D01*
G01X6009Y11205D02*
G01X6077Y11273D01*
G01X6122Y11294D01*
G01X6190Y11294D01*
G01X6235Y11273D01*
G01X6259Y11205D01*
G01X6259Y10976D01*
G01X6522Y11294D02*
G01X6477Y11273D01*
G01X6431Y11226D01*
G01X6409Y11159D01*
G01X6409Y11113D01*
G01X6431Y11044D01*
G01X6477Y11000D01*
G01X6522Y10976D01*
G01X6590Y10976D01*
G01X6635Y11000D01*
G01X6681Y11044D01*
G01X6705Y11113D01*
G01X6705Y11159D01*
G01X6681Y11226D01*
G01X6635Y11273D01*
G01X6590Y11294D01*
G01X6522Y11294D01*
G01X6855Y11294D02*
G01X6855Y10976D01*
G01X6855Y11205D02*
G01X6922Y11273D01*
G01X6968Y11294D01*
G01X7035Y11294D01*
G01X7081Y11273D01*
G01X7105Y11205D01*
G01X7105Y10976D01*
G01X7255Y11455D02*
G01X7277Y11432D01*
G01X7300Y11455D01*
G01X7277Y11476D01*
G01X7255Y11455D01*
G01X7277Y11294D02*
G01X7277Y10976D01*
G01X7518Y11455D02*
G01X7518Y11067D01*
G01X7540Y11000D01*
G01X7585Y10976D01*
G01X7631Y10976D01*
G01X7450Y11294D02*
G01X7609Y11294D01*
G01X7894Y11294D02*
G01X7850Y11273D01*
G01X7805Y11226D01*
G01X7781Y11159D01*
G01X7781Y11113D01*
G01X7805Y11044D01*
G01X7850Y11000D01*
G01X7894Y10976D01*
G01X7964Y10976D01*
G01X8009Y11000D01*
G01X8055Y11044D01*
G01X8077Y11113D01*
G01X8077Y11159D01*
G01X8055Y11226D01*
G01X8009Y11273D01*
G01X7964Y11294D01*
G01X7894Y11294D01*
G01X8227Y11294D02*
G01X8227Y10976D01*
G01X8227Y11159D02*
G01X8250Y11226D01*
G01X8294Y11273D01*
G01X8340Y11294D01*
G01X8409Y11294D01*
G01X2700Y10394D02*
G01X2700Y10167D01*
G01X2722Y10100D01*
G01X2768Y10076D01*
G01X2835Y10076D01*
G01X2881Y10100D01*
G01X2950Y10167D01*
G01X2950Y10394D02*
G01X2950Y10076D01*
G01X3350Y10326D02*
G01X3327Y10373D01*
G01X3259Y10394D01*
G01X3190Y10394D01*
G01X3122Y10373D01*
G01X3100Y10326D01*
G01X3122Y10282D01*
G01X3168Y10259D01*
G01X3281Y10236D01*
G01X3327Y10213D01*
G01X3350Y10167D01*
G01X3350Y10144D01*
G01X3327Y10100D01*
G01X3259Y10076D01*
G01X3190Y10076D01*
G01X3122Y10100D01*
G01X3100Y10144D01*
G01X3500Y10555D02*
G01X3522Y10532D01*
G01X3544Y10555D01*
G01X3522Y10576D01*
G01X3500Y10555D01*
G01X3522Y10394D02*
G01X3522Y10076D01*
G01X3694Y10394D02*
G01X3694Y10076D01*
G01X3694Y10305D02*
G01X3764Y10373D01*
G01X3809Y10394D01*
G01X3877Y10394D01*
G01X3922Y10373D01*
G01X3944Y10305D01*
G01X3944Y10076D01*
G01X4368Y10394D02*
G01X4368Y10032D01*
G01X4344Y9963D01*
G01X4322Y9940D01*
G01X4277Y9917D01*
G01X4209Y9917D01*
G01X4164Y9940D01*
G01X4368Y10326D02*
G01X4322Y10373D01*
G01X4277Y10394D01*
G01X4209Y10394D01*
G01X4164Y10373D01*
G01X4118Y10326D01*
G01X4094Y10259D01*
G01X4094Y10213D01*
G01X4118Y10144D01*
G01X4164Y10100D01*
G01X4209Y10076D01*
G01X4277Y10076D01*
G01X4322Y10100D01*
G01X4368Y10144D01*
G01X4868Y10555D02*
G01X4868Y10076D01*
G01X5040Y10440D02*
G01X5040Y10463D01*
G01X5064Y10509D01*
G01X5085Y10532D01*
G01X5131Y10555D01*
G01X5222Y10555D01*
G01X5268Y10532D01*
G01X5290Y10509D01*
G01X5314Y10463D01*
G01X5314Y10417D01*
G01X5290Y10373D01*
G01X5244Y10305D01*
G01X5018Y10076D01*
G01X5335Y10076D01*
G01X5827Y10440D02*
G01X5805Y10486D01*
G01X5759Y10532D01*
G01X5714Y10555D01*
G01X5622Y10555D01*
G01X5577Y10532D01*
G01X5531Y10486D01*
G01X5509Y10440D01*
G01X5485Y10373D01*
G01X5485Y10259D01*
G01X5509Y10190D01*
G01X5531Y10144D01*
G01X5577Y10100D01*
G01X5622Y10076D01*
G01X5714Y10076D01*
G01X5759Y10100D01*
G01X5805Y10144D01*
G01X5827Y10190D01*
G01X6394Y10555D02*
G01X6394Y10167D01*
G01X6418Y10100D01*
G01X6464Y10076D01*
G01X6509Y10076D01*
G01X6327Y10394D02*
G01X6485Y10394D01*
G01X6772Y10394D02*
G01X6727Y10373D01*
G01X6681Y10326D01*
G01X6659Y10259D01*
G01X6659Y10213D01*
G01X6681Y10144D01*
G01X6727Y10100D01*
G01X6772Y10076D01*
G01X6840Y10076D01*
G01X6885Y10100D01*
G01X6931Y10144D01*
G01X6955Y10213D01*
G01X6955Y10259D01*
G01X6931Y10326D01*
G01X6885Y10373D01*
G01X6840Y10394D01*
G01X6772Y10394D01*
G01X7455Y10394D02*
G01X7455Y10076D01*
G01X7455Y10259D02*
G01X7477Y10326D01*
G01X7522Y10373D01*
G01X7568Y10394D01*
G01X7635Y10394D01*
G01X7785Y10259D02*
G01X8059Y10259D01*
G01X8059Y10305D01*
G01X8035Y10350D01*
G01X8014Y10373D01*
G01X7968Y10394D01*
G01X7900Y10394D01*
G01X7855Y10373D01*
G01X7809Y10326D01*
G01X7785Y10259D01*
G01X7785Y10213D01*
G01X7809Y10144D01*
G01X7855Y10100D01*
G01X7900Y10076D01*
G01X7968Y10076D01*
G01X8014Y10100D01*
G01X8059Y10144D01*
G01X8481Y10394D02*
G01X8481Y10076D01*
G01X8481Y10326D02*
G01X8435Y10373D01*
G01X8390Y10394D01*
G01X8322Y10394D01*
G01X8277Y10373D01*
G01X8231Y10326D01*
G01X8209Y10259D01*
G01X8209Y10213D01*
G01X8231Y10144D01*
G01X8277Y10100D01*
G01X8322Y10076D01*
G01X8390Y10076D01*
G01X8435Y10100D01*
G01X8481Y10144D01*
G01X8905Y10555D02*
G01X8905Y10076D01*
G01X8905Y10326D02*
G01X8859Y10373D01*
G01X8814Y10394D01*
G01X8744Y10394D01*
G01X8700Y10373D01*
G01X8655Y10326D01*
G01X8631Y10259D01*
G01X8631Y10213D01*
G01X8655Y10144D01*
G01X8700Y10100D01*
G01X8744Y10076D01*
G01X8814Y10076D01*
G01X8859Y10100D01*
G01X8905Y10144D01*
G01X2950Y9426D02*
G01X2927Y9473D01*
G01X2859Y9494D01*
G01X2790Y9494D01*
G01X2722Y9473D01*
G01X2700Y9426D01*
G01X2722Y9382D01*
G01X2768Y9359D01*
G01X2881Y9336D01*
G01X2927Y9313D01*
G01X2950Y9267D01*
G01X2950Y9244D01*
G01X2927Y9200D01*
G01X2859Y9176D01*
G01X2790Y9176D01*
G01X2722Y9200D01*
G01X2700Y9244D01*
G01X3100Y9359D02*
G01X3372Y9359D01*
G01X3372Y9405D01*
G01X3350Y9450D01*
G01X3327Y9473D01*
G01X3281Y9494D01*
G01X3214Y9494D01*
G01X3168Y9473D01*
G01X3122Y9426D01*
G01X3100Y9359D01*
G01X3100Y9313D01*
G01X3122Y9244D01*
G01X3168Y9200D01*
G01X3214Y9176D01*
G01X3281Y9176D01*
G01X3327Y9200D01*
G01X3372Y9244D01*
G01X3522Y9494D02*
G01X3659Y9176D01*
G01X3794Y9494D02*
G01X3659Y9176D01*
G01X3944Y9359D02*
G01X4218Y9359D01*
G01X4218Y9405D01*
G01X4194Y9450D01*
G01X4172Y9473D01*
G01X4127Y9494D01*
G01X4059Y9494D01*
G01X4014Y9473D01*
G01X3968Y9426D01*
G01X3944Y9359D01*
G01X3944Y9313D01*
G01X3968Y9244D01*
G01X4014Y9200D01*
G01X4059Y9176D01*
G01X4127Y9176D01*
G01X4172Y9200D01*
G01X4218Y9244D01*
G01X4368Y9494D02*
G01X4368Y9176D01*
G01X4368Y9359D02*
G01X4390Y9426D01*
G01X4435Y9473D01*
G01X4481Y9494D01*
G01X4550Y9494D01*
G01X4972Y9494D02*
G01X4972Y9176D01*
G01X4972Y9426D02*
G01X4927Y9473D01*
G01X4881Y9494D01*
G01X4814Y9494D01*
G01X4768Y9473D01*
G01X4722Y9426D01*
G01X4700Y9359D01*
G01X4700Y9313D01*
G01X4722Y9244D01*
G01X4768Y9200D01*
G01X4814Y9176D01*
G01X4881Y9176D01*
G01X4927Y9200D01*
G01X4972Y9244D01*
G01X5122Y9655D02*
G01X5122Y9176D01*
G01X5872Y9426D02*
G01X5850Y9473D01*
G01X5781Y9494D01*
G01X5714Y9494D01*
G01X5644Y9473D01*
G01X5622Y9426D01*
G01X5644Y9382D01*
G01X5690Y9359D01*
G01X5805Y9336D01*
G01X5850Y9313D01*
G01X5872Y9267D01*
G01X5872Y9244D01*
G01X5850Y9200D01*
G01X5781Y9176D01*
G01X5714Y9176D01*
G01X5644Y9200D01*
G01X5622Y9244D01*
G01X6294Y9494D02*
G01X6294Y9176D01*
G01X6294Y9426D02*
G01X6250Y9473D01*
G01X6205Y9494D01*
G01X6135Y9494D01*
G01X6090Y9473D01*
G01X6044Y9426D01*
G01X6022Y9359D01*
G01X6022Y9313D01*
G01X6044Y9244D01*
G01X6090Y9200D01*
G01X6135Y9176D01*
G01X6205Y9176D01*
G01X6250Y9200D01*
G01X6294Y9244D01*
G01X6444Y9494D02*
G01X6444Y9176D01*
G01X6444Y9405D02*
G01X6514Y9473D01*
G01X6559Y9494D01*
G01X6627Y9494D01*
G01X6672Y9473D01*
G01X6694Y9405D01*
G01X6694Y9176D01*
G01X6694Y9405D02*
G01X6764Y9473D01*
G01X6809Y9494D01*
G01X6877Y9494D01*
G01X6922Y9473D01*
G01X6944Y9405D01*
G01X6944Y9176D01*
G01X7094Y9494D02*
G01X7094Y9017D01*
G01X7094Y9426D02*
G01X7140Y9473D01*
G01X7185Y9494D01*
G01X7255Y9494D01*
G01X7300Y9473D01*
G01X7344Y9426D01*
G01X7368Y9359D01*
G01X7368Y9313D01*
G01X7344Y9244D01*
G01X7300Y9200D01*
G01X7255Y9176D01*
G01X7185Y9176D01*
G01X7140Y9200D01*
G01X7094Y9244D01*
G01X7518Y9655D02*
G01X7518Y9176D01*
G01X7668Y9359D02*
G01X7940Y9359D01*
G01X7940Y9405D01*
G01X7918Y9450D01*
G01X7894Y9473D01*
G01X7850Y9494D01*
G01X7781Y9494D01*
G01X7735Y9473D01*
G01X7690Y9426D01*
G01X7668Y9359D01*
G01X7668Y9313D01*
G01X7690Y9244D01*
G01X7735Y9200D01*
G01X7781Y9176D01*
G01X7850Y9176D01*
G01X7894Y9200D01*
G01X7940Y9244D01*
G01X8340Y9426D02*
G01X8318Y9473D01*
G01X8250Y9494D01*
G01X8181Y9494D01*
G01X8114Y9473D01*
G01X8090Y9426D01*
G01X8114Y9382D01*
G01X8159Y9359D01*
G01X8272Y9336D01*
G01X8318Y9313D01*
G01X8340Y9267D01*
G01X8340Y9244D01*
G01X8318Y9200D01*
G01X8250Y9176D01*
G01X8181Y9176D01*
G01X8114Y9200D01*
G01X8090Y9244D01*
G01X2972Y8594D02*
G01X2972Y8276D01*
G01X2972Y8526D02*
G01X2927Y8573D01*
G01X2881Y8594D01*
G01X2814Y8594D01*
G01X2768Y8573D01*
G01X2722Y8526D01*
G01X2700Y8459D01*
G01X2700Y8413D01*
G01X2722Y8344D01*
G01X2768Y8300D01*
G01X2814Y8276D01*
G01X2881Y8276D01*
G01X2927Y8300D01*
G01X2972Y8344D01*
G01X3122Y8594D02*
G01X3259Y8276D01*
G01X3394Y8594D02*
G01X3259Y8276D01*
G01X3544Y8459D02*
G01X3818Y8459D01*
G01X3818Y8505D01*
G01X3794Y8550D01*
G01X3772Y8573D01*
G01X3727Y8594D01*
G01X3659Y8594D01*
G01X3614Y8573D01*
G01X3568Y8526D01*
G01X3544Y8459D01*
G01X3544Y8413D01*
G01X3568Y8344D01*
G01X3614Y8300D01*
G01X3659Y8276D01*
G01X3727Y8276D01*
G01X3772Y8300D01*
G01X3818Y8344D01*
G01X3968Y8594D02*
G01X3968Y8276D01*
G01X3968Y8459D02*
G01X3990Y8526D01*
G01X4035Y8573D01*
G01X4081Y8594D01*
G01X4150Y8594D01*
G01X4572Y8594D02*
G01X4572Y8276D01*
G01X4572Y8526D02*
G01X4527Y8573D01*
G01X4481Y8594D01*
G01X4414Y8594D01*
G01X4368Y8573D01*
G01X4322Y8526D01*
G01X4300Y8459D01*
G01X4300Y8413D01*
G01X4322Y8344D01*
G01X4368Y8300D01*
G01X4414Y8276D01*
G01X4481Y8276D01*
G01X4527Y8300D01*
G01X4572Y8344D01*
G01X4994Y8594D02*
G01X4994Y8232D01*
G01X4972Y8163D01*
G01X4950Y8140D01*
G01X4905Y8117D01*
G01X4835Y8117D01*
G01X4790Y8140D01*
G01X4994Y8526D02*
G01X4950Y8573D01*
G01X4905Y8594D01*
G01X4835Y8594D01*
G01X4790Y8573D01*
G01X4744Y8526D01*
G01X4722Y8459D01*
G01X4722Y8413D01*
G01X4744Y8344D01*
G01X4790Y8300D01*
G01X4835Y8276D01*
G01X4905Y8276D01*
G01X4950Y8300D01*
G01X4994Y8344D01*
G01X5144Y8459D02*
G01X5418Y8459D01*
G01X5418Y8505D01*
G01X5394Y8550D01*
G01X5372Y8573D01*
G01X5327Y8594D01*
G01X5259Y8594D01*
G01X5214Y8573D01*
G01X5168Y8526D01*
G01X5144Y8459D01*
G01X5144Y8413D01*
G01X5168Y8344D01*
G01X5214Y8300D01*
G01X5259Y8276D01*
G01X5327Y8276D01*
G01X5372Y8300D01*
G01X5418Y8344D01*
G01X5840Y8755D02*
G01X5840Y8276D01*
G01X5840Y8526D02*
G01X5794Y8573D01*
G01X5750Y8594D01*
G01X5681Y8594D01*
G01X5635Y8573D01*
G01X5590Y8526D01*
G01X5568Y8459D01*
G01X5568Y8413D01*
G01X5590Y8344D01*
G01X5635Y8300D01*
G01X5681Y8276D01*
G01X5750Y8276D01*
G01X5794Y8300D01*
G01X5840Y8344D01*
G01X6455Y8594D02*
G01X6409Y8573D01*
G01X6364Y8526D01*
G01X6340Y8459D01*
G01X6340Y8413D01*
G01X6364Y8344D01*
G01X6409Y8300D01*
G01X6455Y8276D01*
G01X6522Y8276D01*
G01X6568Y8300D01*
G01X6614Y8344D01*
G01X6635Y8413D01*
G01X6635Y8459D01*
G01X6614Y8526D01*
G01X6568Y8573D01*
G01X6522Y8594D01*
G01X6455Y8594D01*
G01X6785Y8594D02*
G01X6922Y8276D01*
G01X7059Y8594D02*
G01X6922Y8276D01*
G01X7209Y8459D02*
G01X7481Y8459D01*
G01X7481Y8505D01*
G01X7459Y8550D01*
G01X7435Y8573D01*
G01X7390Y8594D01*
G01X7322Y8594D01*
G01X7277Y8573D01*
G01X7231Y8526D01*
G01X7209Y8459D01*
G01X7209Y8413D01*
G01X7231Y8344D01*
G01X7277Y8300D01*
G01X7322Y8276D01*
G01X7390Y8276D01*
G01X7435Y8300D01*
G01X7481Y8344D01*
G01X7631Y8594D02*
G01X7631Y8276D01*
G01X7631Y8459D02*
G01X7655Y8526D01*
G01X7700Y8573D01*
G01X7744Y8594D01*
G01X7814Y8594D01*
G01X8585Y8594D02*
G01X8585Y8276D01*
G01X8585Y8526D02*
G01X8540Y8573D01*
G01X8494Y8594D01*
G01X8427Y8594D01*
G01X8381Y8573D01*
G01X8335Y8526D01*
G01X8314Y8459D01*
G01X8314Y8413D01*
G01X8335Y8344D01*
G01X8381Y8300D01*
G01X8427Y8276D01*
G01X8494Y8276D01*
G01X8540Y8300D01*
G01X8585Y8344D01*
G01X2881Y7855D02*
G01X2835Y7855D01*
G01X2790Y7832D01*
G01X2768Y7763D01*
G01X2768Y7376D01*
G01X2700Y7694D02*
G01X2859Y7694D01*
G01X3031Y7559D02*
G01X3305Y7559D01*
G01X3305Y7605D01*
G01X3281Y7650D01*
G01X3259Y7673D01*
G01X3214Y7694D01*
G01X3144Y7694D01*
G01X3100Y7673D01*
G01X3055Y7626D01*
G01X3031Y7559D01*
G01X3031Y7513D01*
G01X3055Y7444D01*
G01X3100Y7400D01*
G01X3144Y7376D01*
G01X3214Y7376D01*
G01X3259Y7400D01*
G01X3305Y7444D01*
G01X3455Y7694D02*
G01X3544Y7376D01*
G01X3635Y7694D02*
G01X3544Y7376D01*
G01X3635Y7694D02*
G01X3727Y7376D01*
G01X3818Y7694D02*
G01X3727Y7376D01*
G01X4318Y7694D02*
G01X4318Y7376D01*
G01X4318Y7605D02*
G01X4385Y7673D01*
G01X4431Y7694D01*
G01X4500Y7694D01*
G01X4544Y7673D01*
G01X4568Y7605D01*
G01X4568Y7376D01*
G01X4568Y7605D02*
G01X4635Y7673D01*
G01X4681Y7694D01*
G01X4750Y7694D01*
G01X4794Y7673D01*
G01X4818Y7605D01*
G01X4818Y7376D01*
G01X4968Y7855D02*
G01X4990Y7832D01*
G01X5014Y7855D01*
G01X4990Y7876D01*
G01X4968Y7855D01*
G01X4990Y7694D02*
G01X4990Y7376D01*
G01X5164Y7855D02*
G01X5164Y7376D01*
G01X5314Y7855D02*
G01X5314Y7376D01*
G01X5464Y7855D02*
G01X5485Y7832D01*
G01X5509Y7855D01*
G01X5485Y7876D01*
G01X5464Y7855D01*
G01X5485Y7694D02*
G01X5485Y7376D01*
G01X5909Y7626D02*
G01X5885Y7673D01*
G01X5818Y7694D01*
G01X5750Y7694D01*
G01X5681Y7673D01*
G01X5659Y7626D01*
G01X5681Y7582D01*
G01X5727Y7559D01*
G01X5840Y7536D01*
G01X5885Y7513D01*
G01X5909Y7467D01*
G01X5909Y7444D01*
G01X5885Y7400D01*
G01X5818Y7376D01*
G01X5750Y7376D01*
G01X5681Y7400D01*
G01X5659Y7444D01*
G01X6059Y7559D02*
G01X6331Y7559D01*
G01X6331Y7605D01*
G01X6309Y7650D01*
G01X6285Y7673D01*
G01X6240Y7694D01*
G01X6172Y7694D01*
G01X6127Y7673D01*
G01X6081Y7626D01*
G01X6059Y7559D01*
G01X6059Y7513D01*
G01X6081Y7444D01*
G01X6127Y7400D01*
G01X6172Y7376D01*
G01X6240Y7376D01*
G01X6285Y7400D01*
G01X6331Y7444D01*
G01X6755Y7626D02*
G01X6709Y7673D01*
G01X6664Y7694D01*
G01X6594Y7694D01*
G01X6550Y7673D01*
G01X6505Y7626D01*
G01X6481Y7559D01*
G01X6481Y7513D01*
G01X6505Y7444D01*
G01X6550Y7400D01*
G01X6594Y7376D01*
G01X6664Y7376D01*
G01X6709Y7400D01*
G01X6755Y7444D01*
G01X7018Y7694D02*
G01X6972Y7673D01*
G01X6927Y7626D01*
G01X6905Y7559D01*
G01X6905Y7513D01*
G01X6927Y7444D01*
G01X6972Y7400D01*
G01X7018Y7376D01*
G01X7085Y7376D01*
G01X7131Y7400D01*
G01X7177Y7444D01*
G01X7200Y7513D01*
G01X7200Y7559D01*
G01X7177Y7626D01*
G01X7131Y7673D01*
G01X7085Y7694D01*
G01X7018Y7694D01*
G01X7350Y7694D02*
G01X7350Y7376D01*
G01X7350Y7605D02*
G01X7418Y7673D01*
G01X7464Y7694D01*
G01X7531Y7694D01*
G01X7577Y7673D01*
G01X7600Y7605D01*
G01X7600Y7376D01*
G01X8022Y7855D02*
G01X8022Y7376D01*
G01X8022Y7626D02*
G01X7977Y7673D01*
G01X7931Y7694D01*
G01X7864Y7694D01*
G01X7818Y7673D01*
G01X7772Y7626D01*
G01X7750Y7559D01*
G01X7750Y7513D01*
G01X7772Y7444D01*
G01X7818Y7400D01*
G01X7864Y7376D01*
G01X7931Y7376D01*
G01X7977Y7400D01*
G01X8022Y7444D01*
G01X8422Y7626D02*
G01X8400Y7673D01*
G01X8331Y7694D01*
G01X8264Y7694D01*
G01X8194Y7673D01*
G01X8172Y7626D01*
G01X8194Y7582D01*
G01X8240Y7559D01*
G01X8355Y7536D01*
G01X8400Y7513D01*
G01X8422Y7467D01*
G01X8422Y7444D01*
G01X8400Y7400D01*
G01X8331Y7376D01*
G01X8264Y7376D01*
G01X8194Y7400D01*
G01X8172Y7444D01*
G01X24950Y12703D02*
G01X24950Y12275D01*
G01X24950Y12703D02*
G01X25134Y12703D01*
G01X25194Y12684D01*
G01X25215Y12663D01*
G01X25235Y12621D01*
G01X25235Y12580D01*
G01X25215Y12540D01*
G01X25194Y12519D01*
G01X25134Y12500D01*
G01X24950Y12500D02*
G01X25134Y12500D01*
G01X25194Y12478D01*
G01X25215Y12459D01*
G01X25235Y12417D01*
G01X25235Y12355D01*
G01X25215Y12315D01*
G01X25194Y12294D01*
G01X25134Y12275D01*
G01X24950Y12275D01*
G01X25371Y12703D02*
G01X25371Y12275D01*
G01X25506Y12561D02*
G01X25506Y12355D01*
G01X25527Y12294D01*
G01X25568Y12275D01*
G01X25628Y12275D01*
G01X25669Y12294D01*
G01X25731Y12355D01*
G01X25731Y12561D02*
G01X25731Y12275D01*
G01X25865Y12438D02*
G01X26111Y12438D01*
G01X26111Y12478D01*
G01X26090Y12519D01*
G01X26071Y12540D01*
G01X26030Y12561D01*
G01X25968Y12561D01*
G01X25927Y12540D01*
G01X25886Y12500D01*
G01X25865Y12438D01*
G01X25865Y12396D01*
G01X25886Y12336D01*
G01X25927Y12294D01*
G01X25968Y12275D01*
G01X26030Y12275D01*
G01X26071Y12294D01*
G01X26111Y12336D01*
G01X26307Y12703D02*
G01X26307Y12355D01*
G01X26328Y12294D01*
G01X26369Y12275D01*
G01X26410Y12275D01*
G01X26247Y12561D02*
G01X26389Y12561D01*
G01X26647Y12561D02*
G01X26606Y12540D01*
G01X26565Y12500D01*
G01X26544Y12438D01*
G01X26544Y12396D01*
G01X26565Y12336D01*
G01X26606Y12294D01*
G01X26647Y12275D01*
G01X26709Y12275D01*
G01X26750Y12294D01*
G01X26790Y12336D01*
G01X26810Y12396D01*
G01X26810Y12438D01*
G01X26790Y12500D01*
G01X26750Y12540D01*
G01X26709Y12561D01*
G01X26647Y12561D01*
G01X27048Y12561D02*
G01X27007Y12540D01*
G01X26967Y12500D01*
G01X26946Y12438D01*
G01X26946Y12396D01*
G01X26967Y12336D01*
G01X27007Y12294D01*
G01X27048Y12275D01*
G01X27110Y12275D01*
G01X27151Y12294D01*
G01X27192Y12336D01*
G01X27211Y12396D01*
G01X27211Y12438D01*
G01X27192Y12500D01*
G01X27151Y12540D01*
G01X27110Y12561D01*
G01X27048Y12561D01*
G01X27409Y12703D02*
G01X27409Y12355D01*
G01X27428Y12294D01*
G01X27469Y12275D01*
G01X27510Y12275D01*
G01X27347Y12561D02*
G01X27489Y12561D01*
G01X27646Y12703D02*
G01X27646Y12275D01*
G01X27646Y12478D02*
G01X27706Y12540D01*
G01X27747Y12561D01*
G01X27810Y12561D01*
G01X27850Y12540D01*
G01X27871Y12478D01*
G01X27871Y12275D01*
G01X28321Y12561D02*
G01X28321Y12275D01*
G01X28321Y12478D02*
G01X28381Y12540D01*
G01X28422Y12561D01*
G01X28485Y12561D01*
G01X28525Y12540D01*
G01X28546Y12478D01*
G01X28546Y12275D01*
G01X28546Y12478D02*
G01X28606Y12540D01*
G01X28647Y12561D01*
G01X28710Y12561D01*
G01X28750Y12540D01*
G01X28771Y12478D01*
G01X28771Y12275D01*
G01X29007Y12561D02*
G01X28967Y12540D01*
G01X28926Y12500D01*
G01X28906Y12438D01*
G01X28906Y12396D01*
G01X28926Y12336D01*
G01X28967Y12294D01*
G01X29007Y12275D01*
G01X29069Y12275D01*
G01X29110Y12294D01*
G01X29151Y12336D01*
G01X29172Y12396D01*
G01X29172Y12438D01*
G01X29151Y12500D01*
G01X29110Y12540D01*
G01X29069Y12561D01*
G01X29007Y12561D01*
G01X29552Y12703D02*
G01X29552Y12275D01*
G01X29552Y12500D02*
G01X29510Y12540D01*
G01X29469Y12561D01*
G01X29409Y12561D01*
G01X29368Y12540D01*
G01X29327Y12500D01*
G01X29306Y12438D01*
G01X29306Y12396D01*
G01X29327Y12336D01*
G01X29368Y12294D01*
G01X29409Y12275D01*
G01X29469Y12275D01*
G01X29510Y12294D01*
G01X29552Y12336D01*
G01X29686Y12561D02*
G01X29686Y12355D01*
G01X29707Y12294D01*
G01X29748Y12275D01*
G01X29810Y12275D01*
G01X29851Y12294D01*
G01X29911Y12355D01*
G01X29911Y12561D02*
G01X29911Y12275D01*
G01X30047Y12703D02*
G01X30047Y12275D01*
G01X30181Y12438D02*
G01X30427Y12438D01*
G01X30427Y12478D01*
G01X30406Y12519D01*
G01X30386Y12540D01*
G01X30346Y12561D01*
G01X30285Y12561D01*
G01X30243Y12540D01*
G01X30202Y12500D01*
G01X30181Y12438D01*
G01X30181Y12396D01*
G01X30202Y12336D01*
G01X30243Y12294D01*
G01X30285Y12275D01*
G01X30346Y12275D01*
G01X30386Y12294D01*
G01X30427Y12336D01*
G01X25010Y11853D02*
G01X25010Y11505D01*
G01X25031Y11444D01*
G01X25072Y11425D01*
G01X25114Y11425D01*
G01X24950Y11711D02*
G01X25093Y11711D01*
G01X25248Y11853D02*
G01X25248Y11425D01*
G01X25248Y11628D02*
G01X25310Y11690D01*
G01X25351Y11711D01*
G01X25411Y11711D01*
G01X25452Y11690D01*
G01X25473Y11628D01*
G01X25473Y11425D01*
G01X25853Y11711D02*
G01X25853Y11425D01*
G01X25853Y11650D02*
G01X25813Y11690D01*
G01X25772Y11711D01*
G01X25710Y11711D01*
G01X25669Y11690D01*
G01X25628Y11650D01*
G01X25609Y11588D01*
G01X25609Y11546D01*
G01X25628Y11486D01*
G01X25669Y11444D01*
G01X25710Y11425D01*
G01X25772Y11425D01*
G01X25813Y11444D01*
G01X25853Y11486D01*
G01X26050Y11853D02*
G01X26050Y11505D01*
G01X26071Y11444D01*
G01X26111Y11425D01*
G01X26152Y11425D01*
G01X25989Y11711D02*
G01X26131Y11711D01*
G01X26602Y11853D02*
G01X26602Y11425D01*
G01X26602Y11628D02*
G01X26664Y11690D01*
G01X26705Y11711D01*
G01X26765Y11711D01*
G01X26806Y11690D01*
G01X26827Y11628D01*
G01X26827Y11425D01*
G01X27207Y11711D02*
G01X27207Y11425D01*
G01X27207Y11650D02*
G01X27167Y11690D01*
G01X27126Y11711D01*
G01X27064Y11711D01*
G01X27023Y11690D01*
G01X26982Y11650D01*
G01X26963Y11588D01*
G01X26963Y11546D01*
G01X26982Y11486D01*
G01X27023Y11444D01*
G01X27064Y11425D01*
G01X27126Y11425D01*
G01X27167Y11444D01*
G01X27207Y11486D01*
G01X27568Y11650D02*
G01X27547Y11690D01*
G01X27485Y11711D01*
G01X27425Y11711D01*
G01X27364Y11690D01*
G01X27343Y11650D01*
G01X27364Y11609D01*
G01X27405Y11588D01*
G01X27506Y11567D01*
G01X27547Y11546D01*
G01X27568Y11505D01*
G01X27568Y11486D01*
G01X27547Y11444D01*
G01X27485Y11425D01*
G01X27425Y11425D01*
G01X27364Y11444D01*
G01X27343Y11486D01*
G01X28018Y11853D02*
G01X28018Y11425D01*
G01X28018Y11650D02*
G01X28059Y11690D01*
G01X28100Y11711D01*
G01X28160Y11711D01*
G01X28202Y11690D01*
G01X28243Y11650D01*
G01X28264Y11588D01*
G01X28264Y11546D01*
G01X28243Y11486D01*
G01X28202Y11444D01*
G01X28160Y11425D01*
G01X28100Y11425D01*
G01X28059Y11444D01*
G01X28018Y11486D01*
G01X28398Y11588D02*
G01X28643Y11588D01*
G01X28643Y11628D01*
G01X28623Y11669D01*
G01X28602Y11690D01*
G01X28561Y11711D01*
G01X28501Y11711D01*
G01X28460Y11690D01*
G01X28418Y11650D01*
G01X28398Y11588D01*
G01X28398Y11546D01*
G01X28418Y11486D01*
G01X28460Y11444D01*
G01X28501Y11425D01*
G01X28561Y11425D01*
G01X28602Y11444D01*
G01X28643Y11486D01*
G01X28778Y11588D02*
G01X29025Y11588D01*
G01X29025Y11628D01*
G01X29003Y11669D01*
G01X28984Y11690D01*
G01X28943Y11711D01*
G01X28881Y11711D01*
G01X28839Y11690D01*
G01X28800Y11650D01*
G01X28778Y11588D01*
G01X28778Y11546D01*
G01X28800Y11486D01*
G01X28839Y11444D01*
G01X28881Y11425D01*
G01X28943Y11425D01*
G01X28984Y11444D01*
G01X29025Y11486D01*
G01X29160Y11711D02*
G01X29160Y11425D01*
G01X29160Y11628D02*
G01X29221Y11690D01*
G01X29261Y11711D01*
G01X29322Y11711D01*
G01X29364Y11690D01*
G01X29385Y11628D01*
G01X29385Y11425D01*
G01X24950Y10861D02*
G01X24950Y10430D01*
G01X24950Y10800D02*
G01X24990Y10840D01*
G01X25031Y10861D01*
G01X25093Y10861D01*
G01X25134Y10840D01*
G01X25175Y10800D01*
G01X25194Y10738D01*
G01X25194Y10696D01*
G01X25175Y10636D01*
G01X25134Y10594D01*
G01X25093Y10575D01*
G01X25031Y10575D01*
G01X24990Y10594D01*
G01X24950Y10636D01*
G01X25576Y10861D02*
G01X25576Y10575D01*
G01X25576Y10800D02*
G01X25535Y10840D01*
G01X25493Y10861D01*
G01X25432Y10861D01*
G01X25392Y10840D01*
G01X25351Y10800D01*
G01X25330Y10738D01*
G01X25330Y10696D01*
G01X25351Y10636D01*
G01X25392Y10594D01*
G01X25432Y10575D01*
G01X25493Y10575D01*
G01X25535Y10594D01*
G01X25576Y10636D01*
G01X25710Y11003D02*
G01X25731Y10984D01*
G01X25752Y11003D01*
G01X25731Y11025D01*
G01X25710Y11003D01*
G01X25731Y10861D02*
G01X25731Y10575D01*
G01X25886Y10861D02*
G01X25886Y10575D01*
G01X25886Y10738D02*
G01X25906Y10800D01*
G01X25947Y10840D01*
G01X25989Y10861D01*
G01X26050Y10861D01*
G01X26185Y10738D02*
G01X26431Y10738D01*
G01X26431Y10778D01*
G01X26410Y10819D01*
G01X26389Y10840D01*
G01X26348Y10861D01*
G01X26288Y10861D01*
G01X26247Y10840D01*
G01X26206Y10800D01*
G01X26185Y10738D01*
G01X26185Y10696D01*
G01X26206Y10636D01*
G01X26247Y10594D01*
G01X26288Y10575D01*
G01X26348Y10575D01*
G01X26389Y10594D01*
G01X26431Y10636D01*
G01X26810Y11003D02*
G01X26810Y10575D01*
G01X26810Y10800D02*
G01X26769Y10840D01*
G01X26730Y10861D01*
G01X26668Y10861D01*
G01X26627Y10840D01*
G01X26585Y10800D01*
G01X26565Y10738D01*
G01X26565Y10696D01*
G01X26585Y10636D01*
G01X26627Y10594D01*
G01X26668Y10575D01*
G01X26730Y10575D01*
G01X26769Y10594D01*
G01X26810Y10636D01*
G01X27260Y10861D02*
G01X27343Y10575D01*
G01X27425Y10861D02*
G01X27343Y10575D01*
G01X27425Y10861D02*
G01X27506Y10575D01*
G01X27589Y10861D02*
G01X27506Y10575D01*
G01X27723Y11003D02*
G01X27743Y10984D01*
G01X27764Y11003D01*
G01X27743Y11025D01*
G01X27723Y11003D01*
G01X27743Y10861D02*
G01X27743Y10575D01*
G01X27960Y11003D02*
G01X27960Y10655D01*
G01X27981Y10594D01*
G01X28022Y10575D01*
G01X28063Y10575D01*
G01X27900Y10861D02*
G01X28043Y10861D01*
G01X28197Y11003D02*
G01X28197Y10575D01*
G01X28197Y10778D02*
G01X28260Y10840D01*
G01X28300Y10861D01*
G01X28361Y10861D01*
G01X28402Y10840D01*
G01X28422Y10778D01*
G01X28422Y10575D01*
G01X29118Y10861D02*
G01X29118Y10575D01*
G01X29118Y10800D02*
G01X29077Y10840D01*
G01X29036Y10861D01*
G01X28975Y10861D01*
G01X28935Y10840D01*
G01X28893Y10800D01*
G01X28872Y10738D01*
G01X28872Y10696D01*
G01X28893Y10636D01*
G01X28935Y10594D01*
G01X28975Y10575D01*
G01X29036Y10575D01*
G01X29077Y10594D01*
G01X29118Y10636D01*
G01X24950Y10011D02*
G01X24950Y9580D01*
G01X24950Y9950D02*
G01X24990Y9990D01*
G01X25031Y10011D01*
G01X25093Y10011D01*
G01X25134Y9990D01*
G01X25175Y9950D01*
G01X25194Y9888D01*
G01X25194Y9846D01*
G01X25175Y9786D01*
G01X25134Y9744D01*
G01X25093Y9725D01*
G01X25031Y9725D01*
G01X24990Y9744D01*
G01X24950Y9786D01*
G01X25330Y10153D02*
G01X25330Y9725D01*
G01X25330Y9928D02*
G01X25392Y9990D01*
G01X25432Y10011D01*
G01X25493Y10011D01*
G01X25535Y9990D01*
G01X25555Y9928D01*
G01X25555Y9725D01*
G01X25793Y10011D02*
G01X25752Y9990D01*
G01X25710Y9950D01*
G01X25689Y9888D01*
G01X25689Y9846D01*
G01X25710Y9786D01*
G01X25752Y9744D01*
G01X25793Y9725D01*
G01X25853Y9725D01*
G01X25894Y9744D01*
G01X25935Y9786D01*
G01X25956Y9846D01*
G01X25956Y9888D01*
G01X25935Y9950D01*
G01X25894Y9990D01*
G01X25853Y10011D01*
G01X25793Y10011D01*
G01X26090Y10011D02*
G01X26090Y9725D01*
G01X26090Y9928D02*
G01X26152Y9990D01*
G01X26193Y10011D01*
G01X26255Y10011D01*
G01X26296Y9990D01*
G01X26315Y9928D01*
G01X26315Y9725D01*
G01X26451Y9888D02*
G01X26697Y9888D01*
G01X26697Y9928D01*
G01X26676Y9969D01*
G01X26656Y9990D01*
G01X26614Y10011D01*
G01X26553Y10011D01*
G01X26513Y9990D01*
G01X26472Y9950D01*
G01X26451Y9888D01*
G01X26451Y9846D01*
G01X26472Y9786D01*
G01X26513Y9744D01*
G01X26553Y9725D01*
G01X26614Y9725D01*
G01X26656Y9744D01*
G01X26697Y9786D01*
G01X26852Y9826D02*
G01X26831Y9805D01*
G01X26852Y9786D01*
G01X26872Y9805D01*
G01X26852Y9826D01*
G01X27322Y10153D02*
G01X27322Y9846D01*
G01X27343Y9786D01*
G01X27384Y9744D01*
G01X27444Y9725D01*
G01X27485Y9725D01*
G01X27547Y9744D01*
G01X27589Y9786D01*
G01X27609Y9846D01*
G01X27609Y10153D01*
G01X27968Y9950D02*
G01X27948Y9990D01*
G01X27886Y10011D01*
G01X27826Y10011D01*
G01X27764Y9990D01*
G01X27743Y9950D01*
G01X27764Y9909D01*
G01X27805Y9888D01*
G01X27907Y9867D01*
G01X27948Y9846D01*
G01X27968Y9805D01*
G01X27968Y9786D01*
G01X27948Y9744D01*
G01X27886Y9725D01*
G01X27826Y9725D01*
G01X27764Y9744D01*
G01X27743Y9786D01*
G01X28103Y9888D02*
G01X28350Y9888D01*
G01X28350Y9928D01*
G01X28328Y9969D01*
G01X28309Y9990D01*
G01X28268Y10011D01*
G01X28206Y10011D01*
G01X28164Y9990D01*
G01X28125Y9950D01*
G01X28103Y9888D01*
G01X28103Y9846D01*
G01X28125Y9786D01*
G01X28164Y9744D01*
G01X28206Y9725D01*
G01X28268Y9725D01*
G01X28309Y9744D01*
G01X28350Y9786D01*
G01X29044Y10011D02*
G01X29044Y9725D01*
G01X29044Y9950D02*
G01X29003Y9990D01*
G01X28963Y10011D01*
G01X28902Y10011D01*
G01X28860Y9990D01*
G01X28819Y9950D01*
G01X28800Y9888D01*
G01X28800Y9846D01*
G01X28819Y9786D01*
G01X28860Y9744D01*
G01X28902Y9725D01*
G01X28963Y9725D01*
G01X29003Y9744D01*
G01X29044Y9786D01*
G01X29180Y10011D02*
G01X29180Y9725D01*
G01X29180Y9928D02*
G01X29240Y9990D01*
G01X29281Y10011D01*
G01X29343Y10011D01*
G01X29385Y9990D01*
G01X29405Y9928D01*
G01X29405Y9725D01*
G01X24950Y9303D02*
G01X24950Y8875D01*
G01X25235Y9303D02*
G01X25235Y8875D01*
G01X24950Y9100D02*
G01X25235Y9100D01*
G01X25677Y9201D02*
G01X25657Y9242D01*
G01X25617Y9284D01*
G01X25576Y9303D01*
G01X25493Y9303D01*
G01X25452Y9284D01*
G01X25411Y9242D01*
G01X25392Y9201D01*
G01X25371Y9140D01*
G01X25371Y9038D01*
G01X25392Y8976D01*
G01X25411Y8936D01*
G01X25452Y8894D01*
G01X25493Y8875D01*
G01X25576Y8875D01*
G01X25617Y8894D01*
G01X25657Y8936D01*
G01X25677Y8976D01*
G01X25813Y9059D02*
G01X26181Y9059D01*
G01X26439Y9303D02*
G01X26377Y9284D01*
G01X26336Y9221D01*
G01X26315Y9119D01*
G01X26315Y9059D01*
G01X26336Y8955D01*
G01X26377Y8894D01*
G01X26439Y8875D01*
G01X26480Y8875D01*
G01X26540Y8894D01*
G01X26581Y8955D01*
G01X26602Y9059D01*
G01X26602Y9119D01*
G01X26581Y9221D01*
G01X26540Y9284D01*
G01X26480Y9303D01*
G01X26439Y9303D01*
G01X26982Y9303D02*
G01X26778Y9303D01*
G01X26757Y9119D01*
G01X26778Y9140D01*
G01X26839Y9161D01*
G01X26901Y9161D01*
G01X26963Y9140D01*
G01X27003Y9100D01*
G01X27023Y9038D01*
G01X27023Y8996D01*
G01X27003Y8936D01*
G01X26963Y8894D01*
G01X26901Y8875D01*
G01X26839Y8875D01*
G01X26778Y8894D01*
G01X26757Y8915D01*
G01X26738Y8955D01*
G01X27617Y9386D02*
G01X27576Y9344D01*
G01X27535Y9284D01*
G01X27494Y9201D01*
G01X27473Y9100D01*
G01X27473Y9017D01*
G01X27494Y8915D01*
G01X27535Y8834D01*
G01X27576Y8771D01*
G01X27617Y8730D01*
G01X27855Y9161D02*
G01X27814Y9140D01*
G01X27772Y9100D01*
G01X27752Y9038D01*
G01X27752Y8996D01*
G01X27772Y8936D01*
G01X27814Y8894D01*
G01X27855Y8875D01*
G01X27915Y8875D01*
G01X27956Y8894D01*
G01X27997Y8936D01*
G01X28018Y8996D01*
G01X28018Y9038D01*
G01X27997Y9100D01*
G01X27956Y9140D01*
G01X27915Y9161D01*
G01X27855Y9161D01*
G01X28152Y9161D02*
G01X28152Y8875D01*
G01X28152Y9038D02*
G01X28173Y9100D01*
G01X28214Y9140D01*
G01X28255Y9161D01*
G01X28317Y9161D01*
G01X29011Y9161D02*
G01X29011Y8875D01*
G01X29011Y9100D02*
G01X28971Y9140D01*
G01X28930Y9161D01*
G01X28868Y9161D01*
G01X28827Y9140D01*
G01X28786Y9100D01*
G01X28767Y9038D01*
G01X28767Y8996D01*
G01X28786Y8936D01*
G01X28827Y8894D01*
G01X28868Y8875D01*
G01X28930Y8875D01*
G01X28971Y8894D01*
G01X29011Y8936D01*
G01X29147Y9161D02*
G01X29147Y8875D01*
G01X29147Y9078D02*
G01X29209Y9140D01*
G01X29250Y9161D01*
G01X29310Y9161D01*
G01X29352Y9140D01*
G01X29372Y9078D01*
G01X29372Y8875D01*
G01X24950Y8453D02*
G01X24950Y8025D01*
G01X25235Y8453D02*
G01X25235Y8025D01*
G01X24950Y8250D02*
G01X25235Y8250D01*
G01X25677Y8351D02*
G01X25657Y8392D01*
G01X25617Y8434D01*
G01X25576Y8453D01*
G01X25493Y8453D01*
G01X25452Y8434D01*
G01X25411Y8392D01*
G01X25392Y8351D01*
G01X25371Y8290D01*
G01X25371Y8188D01*
G01X25392Y8126D01*
G01X25411Y8086D01*
G01X25452Y8044D01*
G01X25493Y8025D01*
G01X25576Y8025D01*
G01X25617Y8044D01*
G01X25657Y8086D01*
G01X25677Y8126D01*
G01X25813Y8209D02*
G01X26181Y8209D01*
G01X26439Y8453D02*
G01X26377Y8434D01*
G01X26336Y8371D01*
G01X26315Y8269D01*
G01X26315Y8209D01*
G01X26336Y8105D01*
G01X26377Y8044D01*
G01X26439Y8025D01*
G01X26480Y8025D01*
G01X26540Y8044D01*
G01X26581Y8105D01*
G01X26602Y8209D01*
G01X26602Y8269D01*
G01X26581Y8371D01*
G01X26540Y8434D01*
G01X26480Y8453D01*
G01X26439Y8453D01*
G01X26982Y8392D02*
G01X26963Y8434D01*
G01X26901Y8453D01*
G01X26860Y8453D01*
G01X26798Y8434D01*
G01X26757Y8371D01*
G01X26738Y8269D01*
G01X26738Y8167D01*
G01X26757Y8086D01*
G01X26798Y8044D01*
G01X26860Y8025D01*
G01X26881Y8025D01*
G01X26942Y8044D01*
G01X26982Y8086D01*
G01X27003Y8146D01*
G01X27003Y8167D01*
G01X26982Y8228D01*
G01X26942Y8269D01*
G01X26881Y8290D01*
G01X26860Y8290D01*
G01X26798Y8269D01*
G01X26757Y8228D01*
G01X26738Y8167D01*
G01X27453Y8311D02*
G01X27535Y8025D01*
G01X27617Y8311D02*
G01X27535Y8025D01*
G01X27617Y8311D02*
G01X27698Y8025D01*
G01X27781Y8311D02*
G01X27698Y8025D01*
G01X27915Y8453D02*
G01X27935Y8434D01*
G01X27956Y8453D01*
G01X27935Y8475D01*
G01X27915Y8453D01*
G01X27935Y8311D02*
G01X27935Y8025D01*
G01X28152Y8453D02*
G01X28152Y8105D01*
G01X28173Y8044D01*
G01X28214Y8025D01*
G01X28255Y8025D01*
G01X28092Y8311D02*
G01X28235Y8311D01*
G01X28389Y8453D02*
G01X28389Y8025D01*
G01X28389Y8228D02*
G01X28452Y8290D01*
G01X28493Y8311D01*
G01X28553Y8311D01*
G01X28594Y8290D01*
G01X28614Y8228D01*
G01X28614Y8025D01*
G01X25175Y7400D02*
G01X25155Y7440D01*
G01X25093Y7461D01*
G01X25031Y7461D01*
G01X24969Y7440D01*
G01X24950Y7400D01*
G01X24969Y7359D01*
G01X25010Y7338D01*
G01X25114Y7317D01*
G01X25155Y7296D01*
G01X25175Y7255D01*
G01X25175Y7236D01*
G01X25155Y7194D01*
G01X25093Y7175D01*
G01X25031Y7175D01*
G01X24969Y7194D01*
G01X24950Y7236D01*
G01X25411Y7461D02*
G01X25371Y7440D01*
G01X25330Y7400D01*
G01X25310Y7338D01*
G01X25310Y7296D01*
G01X25330Y7236D01*
G01X25371Y7194D01*
G01X25411Y7175D01*
G01X25473Y7175D01*
G01X25514Y7194D01*
G01X25555Y7236D01*
G01X25576Y7296D01*
G01X25576Y7338D01*
G01X25555Y7400D01*
G01X25514Y7440D01*
G01X25473Y7461D01*
G01X25411Y7461D01*
G01X25710Y7461D02*
G01X25710Y7175D01*
G01X25710Y7378D02*
G01X25772Y7440D01*
G01X25813Y7461D01*
G01X25875Y7461D01*
G01X25914Y7440D01*
G01X25935Y7378D01*
G01X25935Y7175D01*
G01X25935Y7378D02*
G01X25997Y7440D01*
G01X26038Y7461D01*
G01X26100Y7461D01*
G01X26139Y7440D01*
G01X26160Y7378D01*
G01X26160Y7175D01*
G01X26296Y7338D02*
G01X26540Y7338D01*
G01X26540Y7378D01*
G01X26521Y7419D01*
G01X26500Y7440D01*
G01X26460Y7461D01*
G01X26397Y7461D01*
G01X26356Y7440D01*
G01X26315Y7400D01*
G01X26296Y7338D01*
G01X26296Y7296D01*
G01X26315Y7236D01*
G01X26356Y7194D01*
G01X26397Y7175D01*
G01X26460Y7175D01*
G01X26500Y7194D01*
G01X26540Y7236D01*
G01X26990Y7461D02*
G01X26990Y7175D01*
G01X26990Y7338D02*
G01X27011Y7400D01*
G01X27052Y7440D01*
G01X27093Y7461D01*
G01X27155Y7461D01*
G01X27289Y7338D02*
G01X27535Y7338D01*
G01X27535Y7378D01*
G01X27514Y7419D01*
G01X27494Y7440D01*
G01X27453Y7461D01*
G01X27392Y7461D01*
G01X27351Y7440D01*
G01X27310Y7400D01*
G01X27289Y7338D01*
G01X27289Y7296D01*
G01X27310Y7236D01*
G01X27351Y7194D01*
G01X27392Y7175D01*
G01X27453Y7175D01*
G01X27494Y7194D01*
G01X27535Y7236D01*
G01X27915Y7603D02*
G01X27915Y7175D01*
G01X27915Y7400D02*
G01X27875Y7440D01*
G01X27834Y7461D01*
G01X27772Y7461D01*
G01X27731Y7440D01*
G01X27690Y7400D01*
G01X27669Y7338D01*
G01X27669Y7296D01*
G01X27690Y7236D01*
G01X27731Y7194D01*
G01X27772Y7175D01*
G01X27834Y7175D01*
G01X27875Y7194D01*
G01X27915Y7236D01*
G01X28051Y7461D02*
G01X28051Y7255D01*
G01X28071Y7194D01*
G01X28111Y7175D01*
G01X28173Y7175D01*
G01X28214Y7194D01*
G01X28276Y7255D01*
G01X28276Y7461D02*
G01X28276Y7175D01*
G01X28656Y7400D02*
G01X28614Y7440D01*
G01X28575Y7461D01*
G01X28513Y7461D01*
G01X28472Y7440D01*
G01X28431Y7400D01*
G01X28410Y7338D01*
G01X28410Y7296D01*
G01X28431Y7236D01*
G01X28472Y7194D01*
G01X28513Y7175D01*
G01X28575Y7175D01*
G01X28614Y7194D01*
G01X28656Y7236D01*
G01X28790Y7338D02*
G01X29036Y7338D01*
G01X29036Y7378D01*
G01X29015Y7419D01*
G01X28996Y7440D01*
G01X28955Y7461D01*
G01X28893Y7461D01*
G01X28852Y7440D01*
G01X28811Y7400D01*
G01X28790Y7338D01*
G01X28790Y7296D01*
G01X28811Y7236D01*
G01X28852Y7194D01*
G01X28893Y7175D01*
G01X28955Y7175D01*
G01X28996Y7194D01*
G01X29036Y7236D01*
G01X29417Y7603D02*
G01X29417Y7175D01*
G01X29417Y7400D02*
G01X29376Y7440D01*
G01X29335Y7461D01*
G01X29273Y7461D01*
G01X29232Y7440D01*
G01X29192Y7400D01*
G01X29172Y7338D01*
G01X29172Y7296D01*
G01X29192Y7236D01*
G01X29232Y7194D01*
G01X29273Y7175D01*
G01X29335Y7175D01*
G01X29376Y7194D01*
G01X29417Y7236D01*
G01X25114Y6753D02*
G01X25072Y6753D01*
G01X25031Y6734D01*
G01X25010Y6671D01*
G01X25010Y6325D01*
G01X24950Y6611D02*
G01X25093Y6611D01*
G01X25248Y6611D02*
G01X25248Y6405D01*
G01X25268Y6344D01*
G01X25310Y6325D01*
G01X25371Y6325D01*
G01X25411Y6344D01*
G01X25473Y6405D01*
G01X25473Y6611D02*
G01X25473Y6325D01*
G01X25609Y6611D02*
G01X25609Y6325D01*
G01X25609Y6528D02*
G01X25669Y6590D01*
G01X25710Y6611D01*
G01X25772Y6611D01*
G01X25813Y6590D01*
G01X25834Y6528D01*
G01X25834Y6325D01*
G01X26214Y6550D02*
G01X26172Y6590D01*
G01X26131Y6611D01*
G01X26071Y6611D01*
G01X26030Y6590D01*
G01X25989Y6550D01*
G01X25968Y6488D01*
G01X25968Y6446D01*
G01X25989Y6386D01*
G01X26030Y6344D01*
G01X26071Y6325D01*
G01X26131Y6325D01*
G01X26172Y6344D01*
G01X26214Y6386D01*
G01X26410Y6753D02*
G01X26410Y6405D01*
G01X26431Y6344D01*
G01X26472Y6325D01*
G01X26513Y6325D01*
G01X26348Y6611D02*
G01X26492Y6611D01*
G01X26647Y6753D02*
G01X26668Y6734D01*
G01X26689Y6753D01*
G01X26668Y6775D01*
G01X26647Y6753D01*
G01X26668Y6611D02*
G01X26668Y6325D01*
G01X26926Y6611D02*
G01X26885Y6590D01*
G01X26843Y6550D01*
G01X26823Y6488D01*
G01X26823Y6446D01*
G01X26843Y6386D01*
G01X26885Y6344D01*
G01X26926Y6325D01*
G01X26986Y6325D01*
G01X27027Y6344D01*
G01X27068Y6386D01*
G01X27089Y6446D01*
G01X27089Y6488D01*
G01X27068Y6550D01*
G01X27027Y6590D01*
G01X26986Y6611D01*
G01X26926Y6611D01*
G01X27225Y6611D02*
G01X27225Y6325D01*
G01X27225Y6528D02*
G01X27285Y6590D01*
G01X27327Y6611D01*
G01X27388Y6611D01*
G01X27428Y6590D01*
G01X27450Y6528D01*
G01X27450Y6325D01*
G01X27830Y6611D02*
G01X27830Y6325D01*
G01X27830Y6550D02*
G01X27789Y6590D01*
G01X27747Y6611D01*
G01X27686Y6611D01*
G01X27646Y6590D01*
G01X27605Y6550D01*
G01X27585Y6488D01*
G01X27585Y6446D01*
G01X27605Y6386D01*
G01X27646Y6344D01*
G01X27686Y6325D01*
G01X27747Y6325D01*
G01X27789Y6344D01*
G01X27830Y6386D01*
G01X27964Y6753D02*
G01X27964Y6325D01*
G01X28100Y6753D02*
G01X28119Y6734D01*
G01X28140Y6753D01*
G01X28119Y6775D01*
G01X28100Y6753D01*
G01X28119Y6611D02*
G01X28119Y6325D01*
G01X28336Y6753D02*
G01X28336Y6405D01*
G01X28357Y6344D01*
G01X28398Y6325D01*
G01X28439Y6325D01*
G01X28276Y6611D02*
G01X28418Y6611D01*
G01X28594Y6611D02*
G01X28718Y6325D01*
G01X28839Y6611D02*
G01X28718Y6325D01*
G01X28677Y6242D01*
G01X28635Y6201D01*
G01X28594Y6180D01*
G01X28575Y6180D01*
G01X28975Y6836D02*
G01X29015Y6794D01*
G01X29056Y6734D01*
G01X29097Y6651D01*
G01X29118Y6550D01*
G01X29118Y6467D01*
G01X29097Y6365D01*
G01X29056Y6284D01*
G01X29015Y6221D01*
G01X28975Y6180D01*
G01X12206Y4651D02*
G01X12185Y4692D01*
G01X12144Y4734D01*
G01X12105Y4753D01*
G01X12022Y4753D01*
G01X11981Y4734D01*
G01X11940Y4692D01*
G01X11919Y4651D01*
G01X11900Y4590D01*
G01X11900Y4488D01*
G01X11919Y4426D01*
G01X11940Y4386D01*
G01X11981Y4344D01*
G01X12022Y4325D01*
G01X12105Y4325D01*
G01X12144Y4344D01*
G01X12185Y4386D01*
G01X12206Y4426D01*
G01X12342Y4611D02*
G01X12342Y4405D01*
G01X12361Y4344D01*
G01X12402Y4325D01*
G01X12464Y4325D01*
G01X12505Y4344D01*
G01X12567Y4405D01*
G01X12567Y4611D02*
G01X12567Y4325D01*
G01X12702Y4611D02*
G01X12702Y4325D01*
G01X12702Y4488D02*
G01X12722Y4550D01*
G01X12763Y4590D01*
G01X12803Y4611D01*
G01X12864Y4611D01*
G01X13000Y4611D02*
G01X13000Y4325D01*
G01X13000Y4488D02*
G01X13021Y4550D01*
G01X13061Y4590D01*
G01X13102Y4611D01*
G01X13164Y4611D01*
G01X13298Y4488D02*
G01X13544Y4488D01*
G01X13544Y4528D01*
G01X13523Y4569D01*
G01X13503Y4590D01*
G01X13463Y4611D01*
G01X13401Y4611D01*
G01X13360Y4590D01*
G01X13319Y4550D01*
G01X13298Y4488D01*
G01X13298Y4446D01*
G01X13319Y4386D01*
G01X13360Y4344D01*
G01X13401Y4325D01*
G01X13463Y4325D01*
G01X13503Y4344D01*
G01X13544Y4386D01*
G01X13680Y4611D02*
G01X13680Y4325D01*
G01X13680Y4528D02*
G01X13740Y4590D01*
G01X13781Y4611D01*
G01X13843Y4611D01*
G01X13884Y4590D01*
G01X13905Y4528D01*
G01X13905Y4325D01*
G01X14101Y4753D02*
G01X14101Y4405D01*
G01X14121Y4344D01*
G01X14161Y4325D01*
G01X14202Y4325D01*
G01X14039Y4611D02*
G01X14182Y4611D01*
G01X14652Y4753D02*
G01X14652Y4325D01*
G01X14788Y4753D02*
G01X14809Y4734D01*
G01X14828Y4753D01*
G01X14809Y4775D01*
G01X14788Y4753D01*
G01X14809Y4611D02*
G01X14809Y4325D01*
G01X14964Y4611D02*
G01X14964Y4325D01*
G01X14964Y4528D02*
G01X15025Y4590D01*
G01X15065Y4611D01*
G01X15127Y4611D01*
G01X15168Y4590D01*
G01X15189Y4528D01*
G01X15189Y4325D01*
G01X15189Y4528D02*
G01X15250Y4590D01*
G01X15290Y4611D01*
G01X15352Y4611D01*
G01X15393Y4590D01*
G01X15414Y4528D01*
G01X15414Y4325D01*
G01X15548Y4753D02*
G01X15569Y4734D01*
G01X15589Y4753D01*
G01X15569Y4775D01*
G01X15548Y4753D01*
G01X15569Y4611D02*
G01X15569Y4325D01*
G01X15785Y4753D02*
G01X15785Y4405D01*
G01X15806Y4344D01*
G01X15847Y4325D01*
G01X15889Y4325D01*
G01X15725Y4611D02*
G01X15868Y4611D01*
G01X16023Y4753D02*
G01X16043Y4734D01*
G01X16064Y4753D01*
G01X16043Y4775D01*
G01X16023Y4753D01*
G01X16043Y4611D02*
G01X16043Y4325D01*
G01X16200Y4611D02*
G01X16200Y4325D01*
G01X16200Y4528D02*
G01X16260Y4590D01*
G01X16302Y4611D01*
G01X16363Y4611D01*
G01X16403Y4590D01*
G01X16425Y4528D01*
G01X16425Y4325D01*
G01X16805Y4611D02*
G01X16805Y4284D01*
G01X16785Y4221D01*
G01X16764Y4201D01*
G01X16722Y4180D01*
G01X16661Y4180D01*
G01X16621Y4201D01*
G01X16805Y4550D02*
G01X16764Y4590D01*
G01X16722Y4611D01*
G01X16661Y4611D01*
G01X16621Y4590D01*
G01X16580Y4550D01*
G01X16560Y4488D01*
G01X16560Y4446D01*
G01X16580Y4386D01*
G01X16621Y4344D01*
G01X16661Y4325D01*
G01X16722Y4325D01*
G01X16764Y4344D01*
G01X16805Y4386D01*
G01X12694Y9000D02*
G01X13219Y8800D01*
G01X12694Y9000D02*
G01X13219Y9200D01*
G01X13044Y8875D02*
G01X13044Y9125D01*
G01X12694Y9750D02*
G01X13219Y9750D01*
G01X12694Y9750D02*
G01X12694Y9975D01*
G01X12719Y10050D01*
G01X12744Y10075D01*
G01X12794Y10100D01*
G01X12869Y10100D01*
G01X12919Y10075D01*
G01X12944Y10050D01*
G01X12969Y9975D01*
G01X12969Y9750D01*
G01X12869Y10265D02*
G01X13219Y10265D01*
G01X13019Y10265D02*
G01X12944Y10290D01*
G01X12894Y10340D01*
G01X12869Y10390D01*
G01X12869Y10465D01*
G01X12869Y10755D02*
G01X12894Y10705D01*
G01X12944Y10655D01*
G01X13019Y10630D01*
G01X13069Y10630D01*
G01X13144Y10655D01*
G01X13194Y10705D01*
G01X13219Y10755D01*
G01X13219Y10830D01*
G01X13194Y10880D01*
G01X13144Y10930D01*
G01X13069Y10955D01*
G01X13019Y10955D01*
G01X12944Y10930D01*
G01X12894Y10880D01*
G01X12869Y10830D01*
G01X12869Y10755D01*
G01X12694Y11505D02*
G01X13219Y11505D01*
G01X12694Y11505D02*
G01X13219Y11705D01*
G01X12694Y11905D02*
G01X13219Y11705D01*
G01X12694Y11905D02*
G01X13219Y11905D01*
G01X12694Y12069D02*
G01X12719Y12094D01*
G01X12694Y12119D01*
G01X12669Y12094D01*
G01X12694Y12069D01*
G01X12869Y12094D02*
G01X13219Y12094D01*
G01X12869Y12284D02*
G01X13219Y12284D01*
G01X12969Y12284D02*
G01X12894Y12359D01*
G01X12869Y12409D01*
G01X12869Y12484D01*
G01X12894Y12534D01*
G01X12969Y12559D01*
G01X13219Y12559D01*
G01X12694Y12725D02*
G01X12719Y12750D01*
G01X12694Y12775D01*
G01X12669Y12750D01*
G01X12694Y12725D01*
G01X12869Y12750D02*
G01X13219Y12750D01*
G01X12594Y13500D02*
G01X12644Y13450D01*
G01X12719Y13400D01*
G01X12819Y13350D01*
G01X12944Y13325D01*
G01X13044Y13325D01*
G01X13169Y13350D01*
G01X13269Y13400D01*
G01X13344Y13450D01*
G01X13394Y13500D01*
G01X12694Y13665D02*
G01X13219Y13665D01*
G01X12694Y13665D02*
G01X13219Y14015D01*
G01X12694Y14015D02*
G01X13219Y14015D01*
G01X12694Y14330D02*
G01X12719Y14280D01*
G01X12769Y14230D01*
G01X12819Y14205D01*
G01X12894Y14180D01*
G01X13019Y14180D01*
G01X13094Y14205D01*
G01X13144Y14230D01*
G01X13194Y14280D01*
G01X13219Y14330D01*
G01X13219Y14430D01*
G01X13194Y14480D01*
G01X13144Y14530D01*
G01X13094Y14555D01*
G01X13019Y14580D01*
G01X12894Y14580D01*
G01X12819Y14555D01*
G01X12769Y14530D01*
G01X12719Y14480D01*
G01X12694Y14430D01*
G01X12694Y14330D01*
G01X12694Y14919D02*
G01X13219Y14919D01*
G01X12694Y14744D02*
G01X12694Y15094D01*
G01X12869Y15644D02*
G01X13219Y15644D01*
G01X12969Y15644D02*
G01X12894Y15719D01*
G01X12869Y15769D01*
G01X12869Y15844D01*
G01X12894Y15894D01*
G01X12969Y15919D01*
G01X13219Y15919D01*
G01X12969Y15919D02*
G01X12894Y15994D01*
G01X12869Y16044D01*
G01X12869Y16119D01*
G01X12894Y16169D01*
G01X12969Y16194D01*
G01X13219Y16194D01*
G01X12694Y16359D02*
G01X12719Y16384D01*
G01X12694Y16409D01*
G01X12669Y16384D01*
G01X12694Y16359D01*
G01X12869Y16384D02*
G01X13219Y16384D01*
G01X12944Y16875D02*
G01X12894Y16825D01*
G01X12869Y16775D01*
G01X12869Y16700D01*
G01X12894Y16650D01*
G01X12944Y16600D01*
G01X13019Y16575D01*
G01X13069Y16575D01*
G01X13144Y16600D01*
G01X13194Y16650D01*
G01X13219Y16700D01*
G01X13219Y16775D01*
G01X13194Y16825D01*
G01X13144Y16875D01*
G01X12869Y17040D02*
G01X13219Y17040D01*
G01X13019Y17040D02*
G01X12944Y17065D01*
G01X12894Y17115D01*
G01X12869Y17165D01*
G01X12869Y17240D01*
G01X12869Y17530D02*
G01X12894Y17480D01*
G01X12944Y17430D01*
G01X13019Y17405D01*
G01X13069Y17405D01*
G01X13144Y17430D01*
G01X13194Y17480D01*
G01X13219Y17530D01*
G01X13219Y17605D01*
G01X13194Y17655D01*
G01X13144Y17705D01*
G01X13069Y17730D01*
G01X13019Y17730D01*
G01X12944Y17705D01*
G01X12894Y17655D01*
G01X12869Y17605D01*
G01X12869Y17530D01*
G01X12594Y17894D02*
G01X12644Y17944D01*
G01X12719Y17994D01*
G01X12819Y18044D01*
G01X12944Y18069D01*
G01X13044Y18069D01*
G01X13169Y18044D01*
G01X13269Y17994D01*
G01X13344Y17944D01*
G01X13394Y17894D01*
G01X13644Y8800D02*
G01X13669Y8825D01*
G01X13644Y8850D01*
G01X13619Y8825D01*
G01X13644Y8800D01*
G01X13819Y8825D02*
G01X14169Y8825D01*
G01X13894Y9290D02*
G01X13844Y9265D01*
G01X13819Y9190D01*
G01X13819Y9115D01*
G01X13844Y9040D01*
G01X13894Y9015D01*
G01X13944Y9040D01*
G01X13969Y9090D01*
G01X13994Y9215D01*
G01X14019Y9265D01*
G01X14069Y9290D01*
G01X14094Y9290D01*
G01X14144Y9265D01*
G01X14169Y9190D01*
G01X14169Y9115D01*
G01X14144Y9040D01*
G01X14094Y9015D01*
G01X13644Y9840D02*
G01X14169Y9840D01*
G01X13894Y9840D02*
G01X13844Y9890D01*
G01X13819Y9940D01*
G01X13819Y10015D01*
G01X13844Y10065D01*
G01X13894Y10115D01*
G01X13969Y10140D01*
G01X14019Y10140D01*
G01X14094Y10115D01*
G01X14144Y10065D01*
G01X14169Y10015D01*
G01X14169Y9940D01*
G01X14144Y9890D01*
G01X14094Y9840D01*
G01X13819Y10605D02*
G01X14169Y10605D01*
G01X13894Y10605D02*
G01X13844Y10555D01*
G01X13819Y10505D01*
G01X13819Y10430D01*
G01X13844Y10380D01*
G01X13894Y10330D01*
G01X13969Y10305D01*
G01X14019Y10305D01*
G01X14094Y10330D01*
G01X14144Y10380D01*
G01X14169Y10430D01*
G01X14169Y10505D01*
G01X14144Y10555D01*
G01X14094Y10605D01*
G01X13894Y11044D02*
G01X13844Y11019D01*
G01X13819Y10944D01*
G01X13819Y10869D01*
G01X13844Y10794D01*
G01X13894Y10769D01*
G01X13944Y10794D01*
G01X13969Y10844D01*
G01X13994Y10969D01*
G01X14019Y11019D01*
G01X14069Y11044D01*
G01X14094Y11044D01*
G01X14144Y11019D01*
G01X14169Y10944D01*
G01X14169Y10869D01*
G01X14144Y10794D01*
G01X14094Y10769D01*
G01X13644Y11209D02*
G01X13669Y11234D01*
G01X13644Y11259D01*
G01X13619Y11234D01*
G01X13644Y11209D01*
G01X13819Y11234D02*
G01X14169Y11234D01*
G01X13894Y11725D02*
G01X13844Y11675D01*
G01X13819Y11625D01*
G01X13819Y11550D01*
G01X13844Y11500D01*
G01X13894Y11450D01*
G01X13969Y11425D01*
G01X14019Y11425D01*
G01X14094Y11450D01*
G01X14144Y11500D01*
G01X14169Y11550D01*
G01X14169Y11625D01*
G01X14144Y11675D01*
G01X14094Y11725D01*
G01X13819Y12190D02*
G01X14169Y12190D01*
G01X13894Y12190D02*
G01X13844Y12140D01*
G01X13819Y12090D01*
G01X13819Y12015D01*
G01X13844Y11965D01*
G01X13894Y11915D01*
G01X13969Y11890D01*
G01X14019Y11890D01*
G01X14094Y11915D01*
G01X14144Y11965D01*
G01X14169Y12015D01*
G01X14169Y12090D01*
G01X14144Y12140D01*
G01X14094Y12190D01*
G01X13644Y12355D02*
G01X14169Y12355D01*
G01X13644Y12519D02*
G01X14169Y12519D01*
G01X13819Y12709D02*
G01X14169Y12859D01*
G01X13819Y13009D02*
G01X14169Y12859D01*
G01X14269Y12809D01*
G01X14319Y12759D01*
G01X14344Y12709D01*
G01X14344Y12684D01*
G01X13819Y13859D02*
G01X14169Y13859D01*
G01X13894Y13859D02*
G01X13844Y13809D01*
G01X13819Y13759D01*
G01X13819Y13684D01*
G01X13844Y13634D01*
G01X13894Y13584D01*
G01X13969Y13559D01*
G01X14019Y13559D01*
G01X14094Y13584D01*
G01X14144Y13634D01*
G01X14169Y13684D01*
G01X14169Y13759D01*
G01X14144Y13809D01*
G01X14094Y13859D01*
G01X13819Y14025D02*
G01X14169Y14025D01*
G01X13919Y14025D02*
G01X13844Y14100D01*
G01X13819Y14150D01*
G01X13819Y14225D01*
G01X13844Y14275D01*
G01X13919Y14300D01*
G01X14169Y14300D01*
G01X13644Y15050D02*
G01X14169Y14850D01*
G01X13644Y15050D02*
G01X14169Y15250D01*
G01X13994Y14925D02*
G01X13994Y15175D01*
G01X13819Y15415D02*
G01X14169Y15415D01*
G01X13969Y15415D02*
G01X13894Y15440D01*
G01X13844Y15490D01*
G01X13819Y15540D01*
G01X13819Y15615D01*
G01X13644Y16080D02*
G01X14169Y16080D01*
G01X13894Y16080D02*
G01X13844Y16030D01*
G01X13819Y15980D01*
G01X13819Y15905D01*
G01X13844Y15855D01*
G01X13894Y15805D01*
G01X13969Y15780D01*
G01X14019Y15780D01*
G01X14094Y15805D01*
G01X14144Y15855D01*
G01X14169Y15905D01*
G01X14169Y15980D01*
G01X14144Y16030D01*
G01X14094Y16080D01*
G01X13819Y16244D02*
G01X14069Y16244D01*
G01X14144Y16269D01*
G01X14169Y16319D01*
G01X14169Y16394D01*
G01X14144Y16444D01*
G01X14069Y16519D01*
G01X13819Y16519D02*
G01X14169Y16519D01*
G01X13644Y16684D02*
G01X13669Y16709D01*
G01X13644Y16734D01*
G01X13619Y16709D01*
G01X13644Y16684D01*
G01X13819Y16709D02*
G01X14169Y16709D01*
G01X13819Y16900D02*
G01X14169Y16900D01*
G01X13919Y16900D02*
G01X13844Y16975D01*
G01X13819Y17025D01*
G01X13819Y17100D01*
G01X13844Y17150D01*
G01X13919Y17175D01*
G01X14169Y17175D01*
G01X13819Y17465D02*
G01X13844Y17415D01*
G01X13894Y17365D01*
G01X13969Y17340D01*
G01X14019Y17340D01*
G01X14094Y17365D01*
G01X14144Y17415D01*
G01X14169Y17465D01*
G01X14169Y17540D01*
G01X14144Y17590D01*
G01X14094Y17640D01*
G01X14019Y17665D01*
G01X13969Y17665D01*
G01X13894Y17640D01*
G01X13844Y17590D01*
G01X13819Y17540D01*
G01X13819Y17465D01*
G01X14594Y8800D02*
G01X14969Y8800D01*
G01X15044Y8825D01*
G01X15094Y8875D01*
G01X15119Y8950D01*
G01X15119Y9000D01*
G01X15094Y9075D01*
G01X15044Y9125D01*
G01X14969Y9150D01*
G01X14594Y9150D01*
G01X14594Y9315D02*
G01X15119Y9315D01*
G01X14594Y9315D02*
G01X15119Y9665D01*
G01X14594Y9665D02*
G01X15119Y9665D01*
G01X14594Y9980D02*
G01X14619Y9930D01*
G01X14669Y9880D01*
G01X14719Y9855D01*
G01X14794Y9830D01*
G01X14919Y9830D01*
G01X14994Y9855D01*
G01X15044Y9880D01*
G01X15094Y9930D01*
G01X15119Y9980D01*
G01X15119Y10080D01*
G01X15094Y10130D01*
G01X15044Y10180D01*
G01X14994Y10205D01*
G01X14919Y10230D01*
G01X14794Y10230D01*
G01X14719Y10205D01*
G01X14669Y10180D01*
G01X14619Y10130D01*
G01X14594Y10080D01*
G01X14594Y9980D01*
G01X14769Y10905D02*
G01X14794Y10855D01*
G01X14844Y10805D01*
G01X14919Y10780D01*
G01X14969Y10780D01*
G01X15044Y10805D01*
G01X15094Y10855D01*
G01X15119Y10905D01*
G01X15119Y10980D01*
G01X15094Y11030D01*
G01X15044Y11080D01*
G01X14969Y11105D01*
G01X14919Y11105D01*
G01X14844Y11080D01*
G01X14794Y11030D01*
G01X14769Y10980D01*
G01X14769Y10905D01*
G01X14769Y11269D02*
G01X15119Y11269D01*
G01X14919Y11269D02*
G01X14844Y11294D01*
G01X14794Y11344D01*
G01X14769Y11394D01*
G01X14769Y11469D01*
G01X14594Y12019D02*
G01X15119Y12019D01*
G01X14594Y12019D02*
G01X15119Y12369D01*
G01X14594Y12369D02*
G01X15119Y12369D01*
G01X14769Y12834D02*
G01X15119Y12834D01*
G01X14844Y12834D02*
G01X14794Y12784D01*
G01X14769Y12734D01*
G01X14769Y12659D01*
G01X14794Y12609D01*
G01X14844Y12559D01*
G01X14919Y12534D01*
G01X14969Y12534D01*
G01X15044Y12559D01*
G01X15094Y12609D01*
G01X15119Y12659D01*
G01X15119Y12734D01*
G01X15094Y12784D01*
G01X15044Y12834D01*
G01X14769Y13000D02*
G01X15119Y13000D01*
G01X14869Y13000D02*
G01X14794Y13075D01*
G01X14769Y13125D01*
G01X14769Y13200D01*
G01X14794Y13250D01*
G01X14869Y13275D01*
G01X15119Y13275D01*
G01X14769Y13565D02*
G01X14794Y13515D01*
G01X14844Y13465D01*
G01X14919Y13440D01*
G01X14969Y13440D01*
G01X15044Y13465D01*
G01X15094Y13515D01*
G01X15119Y13565D01*
G01X15119Y13640D01*
G01X15094Y13690D01*
G01X15044Y13740D01*
G01X14969Y13765D01*
G01X14919Y13765D01*
G01X14844Y13740D01*
G01X14794Y13690D01*
G01X14769Y13640D01*
G01X14769Y13565D01*
G01X14769Y14315D02*
G01X15119Y14415D01*
G01X14769Y14515D02*
G01X15119Y14415D01*
G01X14769Y14515D02*
G01X15119Y14615D01*
G01X14769Y14715D02*
G01X15119Y14615D01*
G01X14594Y14880D02*
G01X14619Y14905D01*
G01X14594Y14930D01*
G01X14569Y14905D01*
G01X14594Y14880D01*
G01X14769Y14905D02*
G01X15119Y14905D01*
G01X14594Y15169D02*
G01X15019Y15169D01*
G01X15094Y15194D01*
G01X15119Y15244D01*
G01X15119Y15294D01*
G01X14769Y15094D02*
G01X14769Y15269D01*
G01X14594Y15459D02*
G01X15119Y15459D01*
G01X14869Y15459D02*
G01X14794Y15534D01*
G01X14769Y15584D01*
G01X14769Y15659D01*
G01X14794Y15709D01*
G01X14869Y15734D01*
G01X15119Y15734D01*
G01X14769Y16025D02*
G01X14794Y15975D01*
G01X14844Y15925D01*
G01X14919Y15900D01*
G01X14969Y15900D01*
G01X15044Y15925D01*
G01X15094Y15975D01*
G01X15119Y16025D01*
G01X15119Y16100D01*
G01X15094Y16150D01*
G01X15044Y16200D01*
G01X14969Y16225D01*
G01X14919Y16225D01*
G01X14844Y16200D01*
G01X14794Y16150D01*
G01X14769Y16100D01*
G01X14769Y16025D01*
G01X14769Y16390D02*
G01X15019Y16390D01*
G01X15094Y16415D01*
G01X15119Y16465D01*
G01X15119Y16540D01*
G01X15094Y16590D01*
G01X15019Y16665D01*
G01X14769Y16665D02*
G01X15119Y16665D01*
G01X14594Y16905D02*
G01X15019Y16905D01*
G01X15094Y16930D01*
G01X15119Y16980D01*
G01X15119Y17030D01*
G01X14769Y16830D02*
G01X14769Y17005D01*
G01X14594Y17655D02*
G01X15019Y17655D01*
G01X15094Y17680D01*
G01X15119Y17730D01*
G01X15119Y17780D01*
G01X14769Y17580D02*
G01X14769Y17755D01*
G01X14594Y17944D02*
G01X15119Y17944D01*
G01X14869Y17944D02*
G01X14794Y18019D01*
G01X14769Y18069D01*
G01X14769Y18144D01*
G01X14794Y18194D01*
G01X14869Y18219D01*
G01X15119Y18219D01*
G01X14919Y18384D02*
G01X14919Y18684D01*
G01X14869Y18684D01*
G01X14819Y18659D01*
G01X14794Y18634D01*
G01X14769Y18584D01*
G01X14769Y18509D01*
G01X14794Y18459D01*
G01X14844Y18409D01*
G01X14919Y18384D01*
G01X14969Y18384D01*
G01X15044Y18409D01*
G01X15094Y18459D01*
G01X15119Y18509D01*
G01X15119Y18584D01*
G01X15094Y18634D01*
G01X15044Y18684D01*
G01X15544Y8800D02*
G01X15919Y8800D01*
G01X15994Y8825D01*
G01X16044Y8875D01*
G01X16069Y8950D01*
G01X16069Y9000D01*
G01X16044Y9075D01*
G01X15994Y9125D01*
G01X15919Y9150D01*
G01X15544Y9150D01*
G01X15619Y9665D02*
G01X15569Y9615D01*
G01X15544Y9540D01*
G01X15544Y9440D01*
G01X15569Y9365D01*
G01X15619Y9315D01*
G01X15669Y9315D01*
G01X15719Y9340D01*
G01X15744Y9365D01*
G01X15769Y9415D01*
G01X15819Y9565D01*
G01X15844Y9615D01*
G01X15869Y9640D01*
G01X15919Y9665D01*
G01X15994Y9665D01*
G01X16044Y9615D01*
G01X16069Y9540D01*
G01X16069Y9440D01*
G01X16044Y9365D01*
G01X15994Y9315D01*
G01X15544Y9830D02*
G01X16069Y9830D01*
G01X15544Y9830D02*
G01X15544Y10055D01*
G01X15569Y10130D01*
G01X15594Y10155D01*
G01X15644Y10180D01*
G01X15694Y10180D01*
G01X15744Y10155D01*
G01X15769Y10130D01*
G01X15794Y10055D01*
G01X15794Y9830D02*
G01X15794Y10055D01*
G01X15819Y10130D01*
G01X15844Y10155D01*
G01X15894Y10180D01*
G01X15969Y10180D01*
G01X16019Y10155D01*
G01X16044Y10130D01*
G01X16069Y10055D01*
G01X16069Y9830D01*
G01X15794Y11030D02*
G01X15744Y10980D01*
G01X15719Y10930D01*
G01X15719Y10855D01*
G01X15744Y10805D01*
G01X15794Y10755D01*
G01X15869Y10730D01*
G01X15919Y10730D01*
G01X15994Y10755D01*
G01X16044Y10805D01*
G01X16069Y10855D01*
G01X16069Y10930D01*
G01X16044Y10980D01*
G01X15994Y11030D01*
G01X15719Y11319D02*
G01X15744Y11269D01*
G01X15794Y11219D01*
G01X15869Y11194D01*
G01X15919Y11194D01*
G01X15994Y11219D01*
G01X16044Y11269D01*
G01X16069Y11319D01*
G01X16069Y11394D01*
G01X16044Y11444D01*
G01X15994Y11494D01*
G01X15919Y11519D01*
G01X15869Y11519D01*
G01X15794Y11494D01*
G01X15744Y11444D01*
G01X15719Y11394D01*
G01X15719Y11319D01*
G01X15719Y11684D02*
G01X16069Y11684D01*
G01X15819Y11684D02*
G01X15744Y11759D01*
G01X15719Y11809D01*
G01X15719Y11884D01*
G01X15744Y11934D01*
G01X15819Y11959D01*
G01X16069Y11959D01*
G01X15719Y12125D02*
G01X16069Y12125D01*
G01X15819Y12125D02*
G01X15744Y12200D01*
G01X15719Y12250D01*
G01X15719Y12325D01*
G01X15744Y12375D01*
G01X15819Y12400D01*
G01X16069Y12400D01*
G01X15869Y12565D02*
G01X15869Y12865D01*
G01X15819Y12865D01*
G01X15769Y12840D01*
G01X15744Y12815D01*
G01X15719Y12765D01*
G01X15719Y12690D01*
G01X15744Y12640D01*
G01X15794Y12590D01*
G01X15869Y12565D01*
G01X15919Y12565D01*
G01X15994Y12590D01*
G01X16044Y12640D01*
G01X16069Y12690D01*
G01X16069Y12765D01*
G01X16044Y12815D01*
G01X15994Y12865D01*
G01X15794Y13330D02*
G01X15744Y13280D01*
G01X15719Y13230D01*
G01X15719Y13155D01*
G01X15744Y13105D01*
G01X15794Y13055D01*
G01X15869Y13030D01*
G01X15919Y13030D01*
G01X15994Y13055D01*
G01X16044Y13105D01*
G01X16069Y13155D01*
G01X16069Y13230D01*
G01X16044Y13280D01*
G01X15994Y13330D01*
G01X15544Y13569D02*
G01X15969Y13569D01*
G01X16044Y13594D01*
G01X16069Y13644D01*
G01X16069Y13694D01*
G01X15719Y13494D02*
G01X15719Y13669D01*
G01X15544Y13859D02*
G01X15569Y13884D01*
G01X15544Y13909D01*
G01X15519Y13884D01*
G01X15544Y13859D01*
G01X15719Y13884D02*
G01X16069Y13884D01*
G01X15719Y14075D02*
G01X16069Y14225D01*
G01X15719Y14375D02*
G01X16069Y14225D01*
G01X15544Y14540D02*
G01X15569Y14565D01*
G01X15544Y14590D01*
G01X15519Y14565D01*
G01X15544Y14540D01*
G01X15719Y14565D02*
G01X16069Y14565D01*
G01X15544Y14830D02*
G01X15969Y14830D01*
G01X16044Y14855D01*
G01X16069Y14905D01*
G01X16069Y14955D01*
G01X15719Y14755D02*
G01X15719Y14930D01*
G01X15719Y15144D02*
G01X16069Y15294D01*
G01X15719Y15444D02*
G01X16069Y15294D01*
G01X16169Y15244D01*
G01X16219Y15194D01*
G01X16244Y15144D01*
G01X16244Y15119D01*
G01X15944Y15634D02*
G01X15969Y15609D01*
G01X15994Y15634D01*
G01X15969Y15659D01*
G01X15944Y15634D01*
G01X4700Y18553D02*
G01X4700Y18171D01*
G01X4700Y18553D02*
G01X4844Y18171D01*
G01X4990Y18553D02*
G01X4844Y18171D01*
G01X4990Y18553D02*
G01X4990Y18171D01*
G01X5219Y18553D02*
G01X5184Y18535D01*
G01X5147Y18499D01*
G01X5128Y18462D01*
G01X5110Y18408D01*
G01X5110Y18317D01*
G01X5128Y18262D01*
G01X5147Y18226D01*
G01X5184Y18190D01*
G01X5219Y18171D01*
G01X5293Y18171D01*
G01X5328Y18190D01*
G01X5364Y18226D01*
G01X5384Y18262D01*
G01X5402Y18317D01*
G01X5402Y18408D01*
G01X5384Y18462D01*
G01X5364Y18499D01*
G01X5328Y18535D01*
G01X5293Y18553D01*
G01X5219Y18553D01*
G01X5776Y18499D02*
G01X5739Y18535D01*
G01X5685Y18553D01*
G01X5613Y18553D01*
G01X5557Y18535D01*
G01X5522Y18499D01*
G01X5522Y18462D01*
G01X5539Y18426D01*
G01X5557Y18408D01*
G01X5594Y18390D01*
G01X5703Y18353D01*
G01X5739Y18335D01*
G01X5757Y18317D01*
G01X5776Y18281D01*
G01X5776Y18226D01*
G01X5739Y18190D01*
G01X5685Y18171D01*
G01X5613Y18171D01*
G01X5557Y18190D01*
G01X5522Y18226D01*
G01X5896Y18553D02*
G01X5896Y18171D01*
G01X5896Y18553D02*
G01X6132Y18553D01*
G01X5896Y18371D02*
G01X6042Y18371D01*
G01X6252Y18553D02*
G01X6252Y18171D01*
G01X6252Y18553D02*
G01X6489Y18553D01*
G01X6252Y18371D02*
G01X6397Y18371D01*
G01X6252Y18171D02*
G01X6489Y18171D01*
G01X6735Y18553D02*
G01X6735Y18171D01*
G01X6609Y18553D02*
G01X6864Y18553D01*
G54D30*
G01X11700Y23455D02*
G01X11700Y22882D01*
G01X11700Y23455D02*
G01X11944Y23455D01*
G01X12027Y23428D01*
G01X12055Y23401D01*
G01X12081Y23346D01*
G01X12081Y23292D01*
G01X12055Y23236D01*
G01X12027Y23209D01*
G01X11944Y23182D01*
G01X11700Y23182D01*
G01X11890Y23182D02*
G01X12081Y22882D01*
G01X12589Y23265D02*
G01X12589Y22882D01*
G01X12589Y23182D02*
G01X12535Y23236D01*
G01X12480Y23265D01*
G01X12397Y23265D01*
G01X12343Y23236D01*
G01X12289Y23182D01*
G01X12261Y23101D01*
G01X12261Y23046D01*
G01X12289Y22965D01*
G01X12343Y22909D01*
G01X12397Y22882D01*
G01X12480Y22882D01*
G01X12535Y22909D01*
G01X12589Y22965D01*
G01X12768Y23455D02*
G01X12768Y22882D01*
G01X12948Y23265D02*
G01X12948Y22692D01*
G01X12948Y23182D02*
G01X13003Y23236D01*
G01X13057Y23265D01*
G01X13139Y23265D01*
G01X13194Y23236D01*
G01X13248Y23182D01*
G01X13276Y23101D01*
G01X13276Y23046D01*
G01X13248Y22965D01*
G01X13194Y22909D01*
G01X13139Y22882D01*
G01X13057Y22882D01*
G01X13003Y22909D01*
G01X12948Y22965D01*
G01X13456Y23455D02*
G01X13456Y22882D01*
G01X13456Y23155D02*
G01X13538Y23236D01*
G01X13593Y23265D01*
G01X13675Y23265D01*
G01X13728Y23236D01*
G01X13756Y23155D01*
G01X13756Y22882D01*
G01X14356Y23455D02*
G01X14356Y22882D01*
G01X14356Y23455D02*
G01X14602Y23455D01*
G01X14684Y23428D01*
G01X14710Y23401D01*
G01X14738Y23346D01*
G01X14738Y23292D01*
G01X14710Y23236D01*
G01X14684Y23209D01*
G01X14602Y23182D01*
G01X14356Y23182D02*
G01X14602Y23182D01*
G01X14684Y23155D01*
G01X14710Y23128D01*
G01X14738Y23073D01*
G01X14738Y22992D01*
G01X14710Y22936D01*
G01X14684Y22909D01*
G01X14602Y22882D01*
G01X14356Y22882D01*
G01X15244Y23265D02*
G01X15244Y22882D01*
G01X15244Y23182D02*
G01X15190Y23236D01*
G01X15135Y23265D01*
G01X15055Y23265D01*
G01X15000Y23236D01*
G01X14944Y23182D01*
G01X14918Y23101D01*
G01X14918Y23046D01*
G01X14944Y22965D01*
G01X15000Y22909D01*
G01X15055Y22882D01*
G01X15135Y22882D01*
G01X15190Y22909D01*
G01X15244Y22965D01*
G01X15752Y23182D02*
G01X15697Y23236D01*
G01X15643Y23265D01*
G01X15561Y23265D01*
G01X15506Y23236D01*
G01X15452Y23182D01*
G01X15425Y23101D01*
G01X15425Y23046D01*
G01X15452Y22965D01*
G01X15506Y22909D01*
G01X15561Y22882D01*
G01X15643Y22882D01*
G01X15697Y22909D01*
G01X15752Y22965D01*
G01X16068Y23265D02*
G01X16014Y23236D01*
G01X15960Y23182D01*
G01X15932Y23101D01*
G01X15932Y23046D01*
G01X15960Y22965D01*
G01X16014Y22909D01*
G01X16068Y22882D01*
G01X16151Y22882D01*
G01X16205Y22909D01*
G01X16260Y22965D01*
G01X16286Y23046D01*
G01X16286Y23101D01*
G01X16260Y23182D01*
G01X16205Y23236D01*
G01X16151Y23265D01*
G01X16068Y23265D01*
G01X16467Y23265D02*
G01X16467Y22882D01*
G01X16467Y23155D02*
G01X16548Y23236D01*
G01X16603Y23265D01*
G01X16685Y23265D01*
G01X16739Y23236D01*
G01X16767Y23155D01*
G01X16767Y22882D01*
G01X12119Y22455D02*
G01X12119Y21882D01*
G01X12119Y22455D02*
G01X12338Y21882D01*
G01X12556Y22455D02*
G01X12338Y21882D01*
G01X12556Y22455D02*
G01X12556Y21882D01*
G01X13064Y22265D02*
G01X13064Y21882D01*
G01X13064Y22182D02*
G01X13009Y22236D01*
G01X12955Y22265D01*
G01X12872Y22265D01*
G01X12818Y22236D01*
G01X12764Y22182D01*
G01X12735Y22101D01*
G01X12735Y22046D01*
G01X12764Y21965D01*
G01X12818Y21909D01*
G01X12872Y21882D01*
G01X12955Y21882D01*
G01X13009Y21909D01*
G01X13064Y21965D01*
G01X13271Y22265D02*
G01X13435Y21882D01*
G01X13597Y22265D02*
G01X13435Y21882D01*
G01X13380Y21773D01*
G01X13325Y21719D01*
G01X13271Y21692D01*
G01X13243Y21692D01*
G01X14225Y22319D02*
G01X14225Y22346D01*
G01X14252Y22401D01*
G01X14280Y22428D01*
G01X14335Y22455D01*
G01X14443Y22455D01*
G01X14497Y22428D01*
G01X14525Y22401D01*
G01X14552Y22346D01*
G01X14552Y22292D01*
G01X14525Y22236D01*
G01X14471Y22155D01*
G01X14197Y21882D01*
G01X14580Y21882D01*
G01X14923Y22455D02*
G01X14842Y22428D01*
G01X14786Y22346D01*
G01X14760Y22209D01*
G01X14760Y22128D01*
G01X14786Y21992D01*
G01X14842Y21909D01*
G01X14923Y21882D01*
G01X14977Y21882D01*
G01X15060Y21909D01*
G01X15114Y21992D01*
G01X15142Y22128D01*
G01X15142Y22209D01*
G01X15114Y22346D01*
G01X15060Y22428D01*
G01X14977Y22455D01*
G01X14923Y22455D01*
G01X15348Y22319D02*
G01X15348Y22346D01*
G01X15376Y22401D01*
G01X15403Y22428D01*
G01X15457Y22455D01*
G01X15567Y22455D01*
G01X15622Y22428D01*
G01X15648Y22401D01*
G01X15676Y22346D01*
G01X15676Y22292D01*
G01X15648Y22236D01*
G01X15594Y22155D01*
G01X15322Y21882D01*
G01X15703Y21882D01*
G01X16047Y22455D02*
G01X15964Y22428D01*
G01X15910Y22346D01*
G01X15884Y22209D01*
G01X15884Y22128D01*
G01X15910Y21992D01*
G01X15964Y21909D01*
G01X16047Y21882D01*
G01X16102Y21882D01*
G01X16184Y21909D01*
G01X16238Y21992D01*
G01X16264Y22128D01*
G01X16264Y22209D01*
G01X16238Y22346D01*
G01X16184Y22428D01*
G01X16102Y22455D01*
G01X16047Y22455D01*
G54D29*
G01X25150Y15603D02*
G01X25150Y15221D01*
G01X25150Y15603D02*
G01X25405Y15221D01*
G01X25405Y15603D02*
G01X25405Y15221D01*
G01X25525Y15603D02*
G01X25525Y15221D01*
G01X25525Y15603D02*
G01X25688Y15603D01*
G01X25743Y15584D01*
G01X25760Y15567D01*
G01X25778Y15530D01*
G01X25778Y15494D01*
G01X25760Y15457D01*
G01X25743Y15440D01*
G01X25688Y15421D01*
G01X25525Y15421D02*
G01X25688Y15421D01*
G01X25743Y15403D01*
G01X25760Y15384D01*
G01X25778Y15348D01*
G01X25778Y15294D01*
G01X25760Y15257D01*
G01X25743Y15240D01*
G01X25688Y15221D01*
G01X25525Y15221D01*
G01X26214Y15603D02*
G01X26414Y15603D01*
G01X26306Y15457D01*
G01X26360Y15457D01*
G01X26397Y15440D01*
G01X26414Y15421D01*
G01X26434Y15367D01*
G01X26434Y15330D01*
G01X26414Y15276D01*
G01X26378Y15240D01*
G01X26325Y15221D01*
G01X26269Y15221D01*
G01X26214Y15240D01*
G01X26197Y15257D01*
G01X26178Y15294D01*
G01X26553Y15603D02*
G01X26698Y15221D01*
G01X26844Y15603D02*
G01X26698Y15221D01*
G01X27001Y15603D02*
G01X27201Y15603D01*
G01X27092Y15457D01*
G01X27146Y15457D01*
G01X27182Y15440D01*
G01X27201Y15421D01*
G01X27218Y15367D01*
G01X27218Y15330D01*
G01X27201Y15276D01*
G01X27164Y15240D01*
G01X27110Y15221D01*
G01X27055Y15221D01*
G01X27001Y15240D01*
G01X26982Y15257D01*
G01X26964Y15294D01*
G01X27710Y15476D02*
G01X27673Y15457D01*
G01X27636Y15421D01*
G01X27618Y15367D01*
G01X27618Y15330D01*
G01X27636Y15276D01*
G01X27673Y15240D01*
G01X27710Y15221D01*
G01X27764Y15221D01*
G01X27801Y15240D01*
G01X27836Y15276D01*
G01X27855Y15330D01*
G01X27855Y15367D01*
G01X27836Y15421D01*
G01X27801Y15457D01*
G01X27764Y15476D01*
G01X27710Y15476D01*
G01X27975Y15476D02*
G01X27975Y15221D01*
G01X27975Y15403D02*
G01X28030Y15457D01*
G01X28065Y15476D01*
G01X28121Y15476D01*
G01X28156Y15457D01*
G01X28175Y15403D01*
G01X28175Y15221D01*
G01X28575Y15603D02*
G01X28575Y15221D01*
G01X28575Y15603D02*
G01X28739Y15603D01*
G01X28793Y15584D01*
G01X28811Y15567D01*
G01X28830Y15530D01*
G01X28830Y15494D01*
G01X28811Y15457D01*
G01X28793Y15440D01*
G01X28739Y15421D01*
G01X28575Y15421D01*
G01X28702Y15421D02*
G01X28830Y15221D01*
G01X28950Y15603D02*
G01X29205Y15221D01*
G01X29205Y15603D02*
G01X28950Y15221D01*
G01X5948Y12944D02*
G01X5985Y12982D01*
G01X6003Y13036D01*
G01X6003Y13109D01*
G01X5985Y13163D01*
G01X5948Y13200D01*
G01X5913Y13200D01*
G01X5876Y13182D01*
G01X5857Y13163D01*
G01X5839Y13126D01*
G01X5803Y13017D01*
G01X5785Y12982D01*
G01X5767Y12963D01*
G01X5731Y12944D01*
G01X5676Y12944D01*
G01X5639Y12982D01*
G01X5622Y13036D01*
G01X5622Y13109D01*
G01X5639Y13163D01*
G01X5676Y13200D01*
G01X5913Y12553D02*
G01X5948Y12571D01*
G01X5985Y12607D01*
G01X6003Y12644D01*
G01X6003Y12715D01*
G01X5985Y12753D01*
G01X5948Y12788D01*
G01X5913Y12807D01*
G01X5857Y12825D01*
G01X5767Y12825D01*
G01X5713Y12807D01*
G01X5676Y12788D01*
G01X5639Y12753D01*
G01X5622Y12715D01*
G01X5622Y12644D01*
G01X5639Y12607D01*
G01X5676Y12571D01*
G01X5713Y12553D01*
G01X6003Y12432D02*
G01X5622Y12432D01*
G01X5622Y12432D02*
G01X5622Y12215D01*
G01X5148Y12944D02*
G01X5185Y12982D01*
G01X5203Y13036D01*
G01X5203Y13109D01*
G01X5185Y13163D01*
G01X5148Y13200D01*
G01X5113Y13200D01*
G01X5076Y13182D01*
G01X5057Y13163D01*
G01X5039Y13126D01*
G01X5003Y13017D01*
G01X4985Y12982D01*
G01X4967Y12963D01*
G01X4931Y12944D01*
G01X4876Y12944D01*
G01X4839Y12982D01*
G01X4822Y13036D01*
G01X4822Y13109D01*
G01X4839Y13163D01*
G01X4876Y13200D01*
G01X5203Y12825D02*
G01X4822Y12825D01*
G01X5203Y12825D02*
G01X5203Y12698D01*
G01X5185Y12644D01*
G01X5148Y12607D01*
G01X5113Y12588D01*
G01X5057Y12571D01*
G01X4967Y12571D01*
G01X4913Y12588D01*
G01X4876Y12607D01*
G01X4839Y12644D01*
G01X4822Y12698D01*
G01X4822Y12825D01*
G01X5203Y12305D02*
G01X4822Y12451D01*
G01X5203Y12305D02*
G01X4822Y12159D01*
G01X4948Y12396D02*
G01X4948Y12215D01*
G01X26600Y20103D02*
G01X26600Y19675D01*
G01X26885Y20103D02*
G01X26885Y19675D01*
G01X26600Y19900D02*
G01X26885Y19900D01*
G01X27327Y20002D02*
G01X27307Y20042D01*
G01X27267Y20084D01*
G01X27226Y20103D01*
G01X27143Y20103D01*
G01X27102Y20084D01*
G01X27061Y20042D01*
G01X27042Y20002D01*
G01X27021Y19940D01*
G01X27021Y19838D01*
G01X27042Y19777D01*
G01X27061Y19736D01*
G01X27102Y19694D01*
G01X27143Y19675D01*
G01X27226Y19675D01*
G01X27267Y19694D01*
G01X27307Y19736D01*
G01X27327Y19777D01*
G01X27463Y19859D02*
G01X27831Y19859D01*
G01X28089Y20103D02*
G01X28027Y20084D01*
G01X27986Y20021D01*
G01X27965Y19919D01*
G01X27965Y19859D01*
G01X27986Y19755D01*
G01X28027Y19694D01*
G01X28089Y19675D01*
G01X28130Y19675D01*
G01X28190Y19694D01*
G01X28231Y19755D01*
G01X28252Y19859D01*
G01X28252Y19919D01*
G01X28231Y20021D01*
G01X28190Y20084D01*
G01X28130Y20103D01*
G01X28089Y20103D01*
G01X28632Y20103D02*
G01X28428Y20103D01*
G01X28407Y19919D01*
G01X28428Y19940D01*
G01X28489Y19961D01*
G01X28551Y19961D01*
G01X28613Y19940D01*
G01X28653Y19900D01*
G01X28673Y19838D01*
G01X28673Y19796D01*
G01X28653Y19736D01*
G01X28613Y19694D01*
G01X28551Y19675D01*
G01X28489Y19675D01*
G01X28428Y19694D01*
G01X28407Y19715D01*
G01X28388Y19755D01*
G54D31*
G01X24853Y17350D02*
G01X25418Y17350D01*
G01X24853Y17350D02*
G01X24853Y17698D01*
G01X25122Y17350D02*
G01X25122Y17565D01*
G01X25418Y17350D02*
G01X25418Y17698D01*
G01X24853Y17876D02*
G01X25418Y17876D01*
G01X24853Y17876D02*
G01X25418Y18252D01*
G01X24853Y18252D02*
G01X25418Y18252D01*
G01X25753Y16650D02*
G01X26318Y16865D01*
G01X25753Y17078D02*
G01X26318Y16865D01*
G01X25888Y17659D02*
G01X25835Y17632D01*
G01X25781Y17578D01*
G01X25753Y17525D01*
G01X25753Y17417D01*
G01X25781Y17363D01*
G01X25835Y17309D01*
G01X25888Y17284D01*
G01X25968Y17257D01*
G01X26102Y17257D01*
G01X26184Y17284D01*
G01X26236Y17309D01*
G01X26290Y17363D01*
G01X26318Y17417D01*
G01X26318Y17525D01*
G01X26290Y17578D01*
G01X26236Y17632D01*
G01X26184Y17659D01*
G01X25888Y18238D02*
G01X25835Y18211D01*
G01X25781Y18159D01*
G01X25753Y18105D01*
G01X25753Y17998D01*
G01X25781Y17944D01*
G01X25835Y17890D01*
G01X25888Y17863D01*
G01X25968Y17836D01*
G01X26102Y17836D01*
G01X26184Y17863D01*
G01X26236Y17890D01*
G01X26290Y17944D01*
G01X26318Y17998D01*
G01X26318Y18105D01*
G01X26290Y18159D01*
G01X26236Y18211D01*
G01X26184Y18238D01*
G01X26888Y17153D02*
G01X26835Y17126D01*
G01X26781Y17071D01*
G01X26753Y17017D01*
G01X26753Y16911D01*
G01X26781Y16857D01*
G01X26835Y16803D01*
G01X26888Y16777D01*
G01X26968Y16750D01*
G01X27102Y16750D01*
G01X27184Y16777D01*
G01X27236Y16803D01*
G01X27290Y16857D01*
G01X27318Y16911D01*
G01X27318Y17017D01*
G01X27290Y17071D01*
G01X27236Y17126D01*
G01X27184Y17153D01*
G01X27102Y17153D01*
G01X27102Y17017D02*
G01X27102Y17153D01*
G01X26753Y17330D02*
G01X27318Y17330D01*
G01X26753Y17330D02*
G01X27318Y17705D01*
G01X26753Y17705D02*
G01X27318Y17705D01*
G01X26753Y17882D02*
G01X27318Y17882D01*
G01X26753Y17882D02*
G01X26753Y18071D01*
G01X26781Y18151D01*
G01X26835Y18205D01*
G01X26888Y18232D01*
G01X26968Y18259D01*
G01X27102Y18259D01*
G01X27184Y18232D01*
G01X27236Y18205D01*
G01X27290Y18151D01*
G01X27318Y18071D01*
G01X27318Y17882D01*
G01X27703Y16938D02*
G01X28268Y16938D01*
G01X27703Y16750D02*
G01X27703Y17126D01*
G01X27703Y17303D02*
G01X28268Y17678D01*
G01X27703Y17678D02*
G01X28268Y17303D01*
G01X27703Y17855D02*
G01X28268Y17855D01*
G01X27703Y17855D02*
G01X27703Y18044D01*
G01X27731Y18123D01*
G01X27785Y18178D01*
G01X27838Y18205D01*
G01X27918Y18232D01*
G01X28052Y18232D01*
G01X28134Y18205D01*
G01X28186Y18178D01*
G01X28240Y18123D01*
G01X28268Y18044D01*
G01X28268Y17855D01*
G01X28753Y16750D02*
G01X29318Y16750D01*
G01X28753Y16750D02*
G01X28753Y16992D01*
G01X28781Y17071D01*
G01X28807Y17098D01*
G01X28860Y17126D01*
G01X28914Y17126D01*
G01X28968Y17098D01*
G01X28996Y17071D01*
G01X29022Y16992D01*
G01X29022Y16750D01*
G01X29022Y16938D02*
G01X29318Y17126D01*
G01X28753Y17303D02*
G01X29318Y17678D01*
G01X28753Y17678D02*
G01X29318Y17303D01*
G01X28753Y17855D02*
G01X29318Y17855D01*
G01X28753Y17855D02*
G01X28753Y18044D01*
G01X28781Y18123D01*
G01X28835Y18178D01*
G01X28888Y18205D01*
G01X28968Y18232D01*
G01X29102Y18232D01*
G01X29184Y18205D01*
G01X29236Y18178D01*
G01X29290Y18123D01*
G01X29318Y18044D01*
G01X29318Y17855D01*
G01X29835Y15976D02*
G01X29781Y15921D01*
G01X29753Y15842D01*
G01X29753Y15734D01*
G01X29781Y15653D01*
G01X29835Y15600D01*
G01X29888Y15600D01*
G01X29942Y15626D01*
G01X29968Y15653D01*
G01X29996Y15707D01*
G01X30048Y15867D01*
G01X30076Y15921D01*
G01X30102Y15948D01*
G01X30156Y15976D01*
G01X30236Y15976D01*
G01X30290Y15921D01*
G01X30318Y15842D01*
G01X30318Y15734D01*
G01X30290Y15653D01*
G01X30236Y15600D01*
G01X29753Y16340D02*
G01X30318Y16340D01*
G01X29753Y16153D02*
G01X29753Y16528D01*
G01X29753Y16921D02*
G01X30318Y16705D01*
G01X29753Y16921D02*
G01X30318Y17134D01*
G01X30130Y16786D02*
G01X30130Y17055D01*
G01X29753Y17501D02*
G01X30318Y17501D01*
G01X29753Y17313D02*
G01X29753Y17688D01*
G01X29753Y17865D02*
G01X30318Y17865D01*
G01X29753Y17865D02*
G01X29753Y18215D01*
G01X30022Y17865D02*
G01X30022Y18080D01*
G01X30318Y17865D02*
G01X30318Y18215D01*
G54D25*
G01X26350Y5403D02*
G01X26350Y5021D01*
G01X26605Y5403D02*
G01X26605Y5021D01*
G01X26350Y5221D02*
G01X26605Y5221D01*
G01X26997Y5313D02*
G01X26978Y5348D01*
G01X26943Y5384D01*
G01X26906Y5403D01*
G01X26834Y5403D01*
G01X26797Y5384D01*
G01X26760Y5348D01*
G01X26743Y5313D01*
G01X26725Y5257D01*
G01X26725Y5167D01*
G01X26743Y5113D01*
G01X26760Y5076D01*
G01X26797Y5040D01*
G01X26834Y5021D01*
G01X26906Y5021D01*
G01X26943Y5040D01*
G01X26978Y5076D01*
G01X26997Y5113D01*
G01X27117Y5184D02*
G01X27444Y5184D01*
G01X27673Y5403D02*
G01X27618Y5384D01*
G01X27582Y5330D01*
G01X27564Y5240D01*
G01X27564Y5184D01*
G01X27582Y5094D01*
G01X27618Y5040D01*
G01X27673Y5021D01*
G01X27710Y5021D01*
G01X27764Y5040D01*
G01X27801Y5094D01*
G01X27818Y5184D01*
G01X27818Y5240D01*
G01X27801Y5330D01*
G01X27764Y5384D01*
G01X27710Y5403D01*
G01X27673Y5403D01*
G01X28156Y5403D02*
G01X27975Y5403D01*
G01X27956Y5240D01*
G01X27975Y5257D01*
G01X28030Y5276D01*
G01X28085Y5276D01*
G01X28139Y5257D01*
G01X28175Y5221D01*
G01X28193Y5167D01*
G01X28193Y5130D01*
G01X28175Y5076D01*
G01X28139Y5040D01*
G01X28085Y5021D01*
G01X28030Y5021D01*
G01X27975Y5040D01*
G01X27956Y5057D01*
G01X27939Y5094D01*
G01X25300Y4703D02*
G01X25300Y4321D01*
G01X25300Y4703D02*
G01X25464Y4703D01*
G01X25518Y4684D01*
G01X25535Y4667D01*
G01X25555Y4630D01*
G01X25555Y4576D01*
G01X25535Y4540D01*
G01X25518Y4521D01*
G01X25464Y4503D01*
G01X25300Y4503D01*
G01X25784Y4703D02*
G01X25747Y4684D01*
G01X25710Y4648D01*
G01X25693Y4613D01*
G01X25675Y4557D01*
G01X25675Y4467D01*
G01X25693Y4413D01*
G01X25710Y4376D01*
G01X25747Y4340D01*
G01X25784Y4321D01*
G01X25856Y4321D01*
G01X25893Y4340D01*
G01X25928Y4376D01*
G01X25947Y4413D01*
G01X25964Y4467D01*
G01X25964Y4557D01*
G01X25947Y4613D01*
G01X25928Y4648D01*
G01X25893Y4684D01*
G01X25856Y4703D01*
G01X25784Y4703D01*
G01X26085Y4703D02*
G01X26176Y4321D01*
G01X26267Y4703D02*
G01X26176Y4321D01*
G01X26267Y4703D02*
G01X26357Y4321D01*
G01X26448Y4703D02*
G01X26357Y4321D01*
G01X26568Y4703D02*
G01X26568Y4321D01*
G01X26568Y4703D02*
G01X26805Y4703D01*
G01X26568Y4521D02*
G01X26714Y4521D01*
G01X26568Y4321D02*
G01X26805Y4321D01*
G01X26925Y4703D02*
G01X26925Y4321D01*
G01X26925Y4703D02*
G01X27089Y4703D01*
G01X27143Y4684D01*
G01X27161Y4667D01*
G01X27180Y4630D01*
G01X27180Y4594D01*
G01X27161Y4557D01*
G01X27143Y4540D01*
G01X27089Y4521D01*
G01X26925Y4521D01*
G01X27052Y4521D02*
G01X27180Y4321D01*
G01X27318Y4413D02*
G01X27300Y4394D01*
G01X27318Y4376D01*
G01X27335Y4394D01*
G01X27318Y4413D01*
G01X27493Y4703D02*
G01X27693Y4703D01*
G01X27584Y4557D01*
G01X27638Y4557D01*
G01X27675Y4540D01*
G01X27693Y4521D01*
G01X27710Y4467D01*
G01X27710Y4430D01*
G01X27693Y4376D01*
G01X27656Y4340D01*
G01X27602Y4321D01*
G01X27547Y4321D01*
G01X27493Y4340D01*
G01X27475Y4357D01*
G01X27456Y4394D01*
G01X27848Y4413D02*
G01X27831Y4394D01*
G01X27848Y4376D01*
G01X27867Y4394D01*
G01X27848Y4413D01*
G01X28205Y4648D02*
G01X28186Y4684D01*
G01X28132Y4703D01*
G01X28096Y4703D01*
G01X28042Y4684D01*
G01X28005Y4630D01*
G01X27986Y4540D01*
G01X27986Y4448D01*
G01X28005Y4376D01*
G01X28042Y4340D01*
G01X28096Y4321D01*
G01X28114Y4321D01*
G01X28168Y4340D01*
G01X28205Y4376D01*
G01X28223Y4430D01*
G01X28223Y4448D01*
G01X28205Y4503D01*
G01X28168Y4540D01*
G01X28114Y4557D01*
G01X28096Y4557D01*
G01X28042Y4540D01*
G01X28005Y4503D01*
G01X27986Y4448D01*
G01X28343Y4484D02*
G01X28671Y4484D01*
G01X28790Y4484D02*
G01X29118Y4484D01*
G01X29456Y4648D02*
G01X29438Y4684D01*
G01X29384Y4703D01*
G01X29347Y4703D01*
G01X29293Y4684D01*
G01X29256Y4630D01*
G01X29238Y4540D01*
G01X29238Y4448D01*
G01X29256Y4376D01*
G01X29293Y4340D01*
G01X29347Y4321D01*
G01X29364Y4321D01*
G01X29419Y4340D01*
G01X29456Y4376D01*
G01X29475Y4430D01*
G01X29475Y4448D01*
G01X29456Y4503D01*
G01X29419Y4540D01*
G01X29364Y4557D01*
G01X29347Y4557D01*
G01X29293Y4540D01*
G01X29256Y4503D01*
G01X29238Y4448D01*
G01X29594Y4703D02*
G01X29739Y4321D01*
G01X29885Y4703D02*
G01X29739Y4321D01*
G54D29*
G01X20805Y16253D02*
G01X20600Y15967D01*
G01X20906Y15967D01*
G01X20805Y16253D02*
G01X20805Y15825D01*
G01X21327Y16253D02*
G01X21123Y15825D01*
G01X21042Y16253D02*
G01X21327Y16253D01*
G01X21463Y16111D02*
G01X21463Y15905D01*
G01X21484Y15844D01*
G01X21525Y15825D01*
G01X21585Y15825D01*
G01X21627Y15844D01*
G01X21688Y15905D01*
G01X21688Y16111D02*
G01X21688Y15825D01*
G01X21822Y16253D02*
G01X21822Y15825D01*
G01X21822Y16253D02*
G01X22089Y16253D01*
G01X21822Y16050D02*
G01X21986Y16050D01*
G01X21306Y16802D02*
G01X21285Y16842D01*
G01X21244Y16884D01*
G01X21205Y16903D01*
G01X21122Y16903D01*
G01X21081Y16884D01*
G01X21040Y16842D01*
G01X21019Y16802D01*
G01X21000Y16740D01*
G01X21000Y16638D01*
G01X21019Y16577D01*
G01X21040Y16536D01*
G01X21081Y16494D01*
G01X21122Y16475D01*
G01X21205Y16475D01*
G01X21244Y16494D01*
G01X21285Y16536D01*
G01X21306Y16577D01*
G01X21461Y16802D02*
G01X21461Y16821D01*
G01X21482Y16863D01*
G01X21502Y16884D01*
G01X21543Y16903D01*
G01X21626Y16903D01*
G01X21667Y16884D01*
G01X21686Y16863D01*
G01X21707Y16821D01*
G01X21707Y16780D01*
G01X21686Y16740D01*
G01X21646Y16678D01*
G01X21442Y16475D01*
G01X21727Y16475D01*
G01X10322Y11150D02*
G01X10343Y11109D01*
G01X10403Y11048D01*
G01X9975Y11048D01*
G01X10403Y10790D02*
G01X10384Y10851D01*
G01X10322Y10892D01*
G01X10219Y10913D01*
G01X10159Y10913D01*
G01X10056Y10892D01*
G01X9994Y10851D01*
G01X9975Y10790D01*
G01X9975Y10749D01*
G01X9994Y10688D01*
G01X10056Y10647D01*
G01X10159Y10626D01*
G01X10219Y10626D01*
G01X10322Y10647D01*
G01X10384Y10688D01*
G01X10403Y10749D01*
G01X10403Y10790D01*
G01X10403Y10369D02*
G01X10384Y10430D01*
G01X10322Y10471D01*
G01X10219Y10491D01*
G01X10159Y10491D01*
G01X10056Y10471D01*
G01X9994Y10430D01*
G01X9975Y10369D01*
G01X9975Y10328D01*
G01X9994Y10266D01*
G01X10056Y10225D01*
G01X10159Y10205D01*
G01X10219Y10205D01*
G01X10322Y10225D01*
G01X10384Y10266D01*
G01X10403Y10328D01*
G01X10403Y10369D01*
G01X10260Y10070D02*
G01X9975Y10070D01*
G01X10178Y10070D02*
G01X10239Y10009D01*
G01X10260Y9968D01*
G01X10260Y9906D01*
G01X10239Y9865D01*
G01X10178Y9845D01*
G01X9975Y9845D01*
G01X10403Y9710D02*
G01X9975Y9710D01*
G01X10403Y9710D02*
G01X10403Y9444D01*
G01X10200Y9710D02*
G01X10200Y9546D01*
G01X10302Y12592D02*
G01X10343Y12613D01*
G01X10384Y12655D01*
G01X10403Y12694D01*
G01X10403Y12776D01*
G01X10384Y12817D01*
G01X10343Y12859D01*
G01X10302Y12880D01*
G01X10239Y12900D01*
G01X10138Y12900D01*
G01X10077Y12880D01*
G01X10035Y12859D01*
G01X9994Y12817D01*
G01X9975Y12776D01*
G01X9975Y12694D01*
G01X9994Y12655D01*
G01X10035Y12613D01*
G01X10077Y12592D01*
G01X10322Y12457D02*
G01X10343Y12417D01*
G01X10403Y12355D01*
G01X9975Y12355D01*
G01X9996Y15650D02*
G01X10425Y15650D01*
G01X9996Y15650D02*
G01X9996Y15834D01*
G01X10015Y15894D01*
G01X10036Y15915D01*
G01X10077Y15936D01*
G01X10118Y15936D01*
G01X10160Y15915D01*
G01X10180Y15894D01*
G01X10200Y15834D01*
G01X10200Y15650D01*
G01X10200Y15792D02*
G01X10425Y15936D01*
G01X9996Y16317D02*
G01X9996Y16111D01*
G01X10180Y16092D01*
G01X10160Y16111D01*
G01X10139Y16173D01*
G01X10139Y16234D01*
G01X10160Y16296D01*
G01X10200Y16336D01*
G01X10261Y16357D01*
G01X10302Y16357D01*
G01X10364Y16336D01*
G01X10405Y16296D01*
G01X10425Y16234D01*
G01X10425Y16173D01*
G01X10405Y16111D01*
G01X10385Y16092D01*
G01X10343Y16071D01*
G01X2577Y16329D02*
G01X2556Y16370D01*
G01X2495Y16431D01*
G01X2924Y16431D01*
G01X2495Y16689D02*
G01X2515Y16628D01*
G01X2577Y16587D01*
G01X2679Y16566D01*
G01X2740Y16566D01*
G01X2843Y16587D01*
G01X2904Y16628D01*
G01X2924Y16689D01*
G01X2924Y16730D01*
G01X2904Y16791D01*
G01X2843Y16832D01*
G01X2740Y16853D01*
G01X2679Y16853D01*
G01X2577Y16832D01*
G01X2515Y16791D01*
G01X2495Y16730D01*
G01X2495Y16689D01*
G01X2495Y16988D02*
G01X2924Y16988D01*
G01X2495Y17274D02*
G01X2781Y16988D01*
G01X2679Y17090D02*
G01X2924Y17274D01*
G01X3703Y17229D02*
G01X3275Y17229D01*
G01X3703Y17229D02*
G01X3703Y17045D01*
G01X3684Y16984D01*
G01X3663Y16963D01*
G01X3622Y16943D01*
G01X3581Y16943D01*
G01X3539Y16963D01*
G01X3519Y16984D01*
G01X3500Y17045D01*
G01X3500Y17229D01*
G01X3500Y17086D02*
G01X3275Y16943D01*
G01X3703Y16767D02*
G01X3703Y16542D01*
G01X3539Y16664D01*
G01X3539Y16603D01*
G01X3519Y16562D01*
G01X3500Y16542D01*
G01X3438Y16521D01*
G01X3397Y16521D01*
G01X3335Y16542D01*
G01X3294Y16583D01*
G01X3275Y16644D01*
G01X3275Y16705D01*
G01X3294Y16767D01*
G01X3314Y16787D01*
G01X3356Y16808D01*
G01X8277Y16129D02*
G01X8256Y16170D01*
G01X8195Y16231D01*
G01X8624Y16231D01*
G01X8195Y16489D02*
G01X8215Y16428D01*
G01X8277Y16387D01*
G01X8379Y16366D01*
G01X8440Y16366D01*
G01X8543Y16387D01*
G01X8604Y16428D01*
G01X8624Y16489D01*
G01X8624Y16530D01*
G01X8604Y16591D01*
G01X8543Y16632D01*
G01X8440Y16653D01*
G01X8379Y16653D01*
G01X8277Y16632D01*
G01X8215Y16591D01*
G01X8195Y16530D01*
G01X8195Y16489D01*
G01X8195Y16910D02*
G01X8215Y16849D01*
G01X8277Y16808D01*
G01X8379Y16788D01*
G01X8440Y16788D01*
G01X8543Y16808D01*
G01X8604Y16849D01*
G01X8624Y16910D01*
G01X8624Y16951D01*
G01X8604Y17013D01*
G01X8543Y17054D01*
G01X8440Y17074D01*
G01X8379Y17074D01*
G01X8277Y17054D01*
G01X8215Y17013D01*
G01X8195Y16951D01*
G01X8195Y16910D01*
G01X8195Y17209D02*
G01X8624Y17209D01*
G01X8195Y17495D02*
G01X8481Y17209D01*
G01X8379Y17311D02*
G01X8624Y17495D01*
G01X7853Y17229D02*
G01X7425Y17229D01*
G01X7853Y17229D02*
G01X7853Y17045D01*
G01X7834Y16984D01*
G01X7813Y16963D01*
G01X7772Y16943D01*
G01X7731Y16943D01*
G01X7689Y16963D01*
G01X7669Y16984D01*
G01X7650Y17045D01*
G01X7650Y17229D01*
G01X7650Y17086D02*
G01X7425Y16943D01*
G01X7853Y16603D02*
G01X7568Y16808D01*
G01X7568Y16501D01*
G01X7853Y16603D02*
G01X7425Y16603D01*
G54D11*
G75*
G01X5958Y17760D02*
G02X5493Y17760I-233J-18D01*
G01*
G54D25*
G75*
G01X21655Y15548D02*
G03X21705Y17098I25J775D01*
G01*
G54D28*
G75*
G01X20384Y16300D02*
G03X20384Y16300I-984J0D01*
G01*
G54D11*
G75*
G01X4746Y17830D02*
G03X4746Y17830I-75J0D01*
G01*
G01X1650Y14700D02*
G01X9523Y14700D01*
G01X9523Y6826D01*
G01X1650Y6826D01*
G01X1650Y14700D01*
G01X6050Y25850D02*
G01X19000Y25850D01*
G01X19000Y23825D01*
G01X6050Y23825D01*
G01X6050Y25850D01*

%LPD*%
G36*
G01X19426Y17283D02*
G01X19400Y17284D01*
G01X19346Y17282D01*
G01X19319Y17280D01*
G01X19265Y17274D01*
G01X19213Y17264D01*
G01X19186Y17258D01*
G01X19134Y17244D01*
G01X19109Y17235D01*
G01X19083Y17226D01*
G01X19058Y17217D01*
G01X19034Y17206D01*
G01X19009Y17195D01*
G01X18985Y17183D01*
G01X18962Y17170D01*
G01X18938Y17156D01*
G01X18915Y17142D01*
G01X18871Y17112D01*
G01X18849Y17096D01*
G01X18828Y17079D01*
G01X18808Y17062D01*
G01X18788Y17044D01*
G01X18768Y17025D01*
G01X18750Y17006D01*
G01X20050Y17006D01*
G01X20031Y17025D01*
G01X20011Y17044D01*
G01X19991Y17062D01*
G01X19971Y17079D01*
G01X19950Y17096D01*
G01X19928Y17112D01*
G01X19884Y17142D01*
G01X19861Y17156D01*
G01X19837Y17170D01*
G01X19814Y17183D01*
G01X19790Y17195D01*
G01X19765Y17206D01*
G01X19741Y17217D01*
G01X19716Y17226D01*
G01X19690Y17235D01*
G01X19665Y17244D01*
G01X19613Y17258D01*
G01X19586Y17264D01*
G01X19534Y17274D01*
G01X19480Y17280D01*
G01X19453Y17282D01*
G01X19426Y17283D01*
G37*
M00*
M02*
